/* XPM */
static char * skychart_xpm[] = {
"32 32 29 1",
" 	c #4A4A4A",
".	c #3E3E3E",
"+	c #320050",
"@	c #6E6E6E",
"#	c #323232",
"$	c #868686",
"%	c #9E9E9E",
"&	c #A0A0A4",
"*	c #565656",
"=	c #929292",
"-	c #AAAAAA",
";	c #7A7A7A",
">	c #B6B6B6",
",	c #626262",
"'	c #808080",
")	c #C2C2C2",
"!	c #C0C0C0",
"~	c #DADADA",
"{	c #CECECE",
"]	c #E6E6E6",
"^	c #190050",
"/	c #F2F2F2",
"(	c #FEFE00",
"_	c #FFFFFF",
":	c #FFFF6B",
"<	c #000000",
"[	c #0E0E0E",
"}	c #1A1A1A",
"|	c #262626",
"         .......++++@.@.# @$%&&&",
"            ......+ @ @.*@=&--&&",
"****          .....$.$ *;%->>>-&",
"*********        .,@;,,'&>)!!>&=",
"******~*****      =,$@$-!{{)>-=@",
",,,,,,,*******   $@&@=>{~~{!-=@*",
",,,,,,,,,*******,%&$=>{~~{)-$@ .",
",,,,,,,,,,,,****&$-&)~]]~)&$, .^",
"@@@@@,,,@@@,,,*;&)&{]/]~!&', .+^",
"@@@@@@@@;(@,,,,!>-{]/]~!&;, .+++",
"@@@@@@@@@;@,,@&>){]/]~>=;, ...++",
";;;;;;@@@@@@@'{~{]/]{-=@,   ...+",
";;;;;;;;;@@;')~{]]~)&$@,*      .",
"''''';;;;;;'&]]/]{>&'@,***   ( .",
"$$$''''';'$&]/_]{-=;@,****    ..",
"$$$$$$$''$=)__]!&=;@,,,****    .",
"===$/=$$$$&/_~>&$;@@,,,,****    ",
"=======$$=]/)-&$;;@@@@@,,****   ",
"=========&_)&=$';;@@@:@,,,****  ",
"&&&=======&==$$'';;@@@@,,,,***  ",
"&&&&&&======$$$''';;@@@@,,,**** ",
"&&&&&&&&&=====$$$'';;@@@@,,,*** ",
"&&&&&&&&&&=====$$'';;;@@@,,,,***",
"---&&&&&&&&=====$$'';;;@@@,,,***",
"-----&&&&&&&&====$$'';;@@@@,_,**",
">>>>---&&&=$=&===$$$';;;@@@,@,**",
" @=>>>--=.<<[ ====$$'';;@@@,,,,*",
"<<<}*,*.<<<<<<|.|[|@$'';;@@@,,,*",
"<<<<<<<<<<<<<<<<<<<<|##.*,@@,,,*",
"<<<<<<<<<<<<<<<<<<<<<<<<<<#   .#",
"<<<<<<<<<<<<<<<<<<<<<<<<<<<<<<<<",
"<<<<<<<<<<<<<<<<<<<<<<<<<<<<<<<<"};
