/* XPM */
static char * arrow_xpm[] = {
"80 80 74 1",
" 	c #000000",
".	c #070600",
"+	c #1E1D01",
"@	c #0D0D00",
"#	c #2A2802",
"$	c #181701",
"%	c #383503",
"&	c #242202",
"*	c #484504",
"=	c #333002",
"-	c #514E04",
";	c #413E03",
">	c #595505",
",	c #030300",
"'	c #4E4B04",
")	c #5B5705",
"!	c #070700",
"~	c #010100",
"{	c #555104",
"]	c #0F0E00",
"^	c #050500",
"/	c #0A0900",
"(	c #272502",
"_	c #131201",
":	c #363403",
"<	c #444103",
"[	c #504C04",
"}	c #3C3903",
"|	c #585404",
"1	c #020200",
"2	c #474403",
"3	c #060600",
"4	c #171601",
"5	c #232101",
"6	c #262402",
"7	c #343102",
"8	c #0B0A00",
"9	c #565204",
"0	c #141301",
"a	c #222001",
"b	c #2F2D02",
"c	c #3E3B03",
"d	c #1F1D01",
"e	c #2D2B02",
"f	c #040400",
"g	c #4B4804",
"h	c #6A6505",
"i	c #898319",
"j	c #8C861D",
"k	c #757006",
"l	c #99942F",
"m	c #B8B462",
"n	c #B9B564",
"o	c #A8A345",
"p	c #111100",
"q	c #97922C",
"r	c #AEA94F",
"s	c #201E01",
"t	c #0B0B00",
"u	c #B4B05A",
"v	c #7A7408",
"w	c #121101",
"x	c #B6B25E",
"y	c #A29D3D",
"z	c #B5B15C",
"A	c #2A2903",
"B	c #454205",
"C	c #ADA84D",
"D	c #413E05",
"E	c #221F02",
"F	c #7D7811",
"G	c #9E9936",
"H	c #9F9A38",
"I	c #78741C",
"                                                                                ",
"                                                                                ",
"                                                                                ",
"                                                                                ",
"                                       .+                                       ",
"                                       @#                                       ",
"                                       $%                                       ",
"                                       &*                                       ",
"                                       =-                                       ",
"                                       ;>,                                      ",
"                                       ')!                                      ",
"                                      ~{)]                                      ",
"                                      ^>)$                                      ",
"                                      /))(                                      ",
"                                      _)):                                      ",
"                                      +))<                                      ",
"                                      #))[                                      ",
"                                      }))|1                                     ",
"                                      2))>3                                     ",
"                                      -)))@                                     ",
"                                     ,>)))4                                     ",
"                                     !))))5                                     ",
"                                     ]))))=                                     ",
"                                     $))));                                     ",
"                                     6))))[                                     ",
"                                     7))))|~                                    ",
"                                     ;))))>^                                    ",
"                                     [)))))8                                    ",
"                                    ~9)))))0                                    ",
"                                    ^>)))))a                                    ",
"                                    /))))))b                                    ",
"                                    0))))))c                                    ",
"                                    d))))))'                                    ",
"                                    e))))))9~                                   ",
"                                    }))>>))>f                                   ",
"                                    g9hijk|>/                                   ",
"                                    {lmnnmohp                                   ",
"                                   1qnnnnnnrs                                   ",
"                                   tunnnnnnn|                                   ",
"                                   +mnnnnnnnv                                   ",
"                                   wxnnnnnnnh                                   ",
"                                   8ynnnnnnzA                                   ",
"                                   1BCnnnnzD~                                   ",
"                                    1EFGHI$                                     ",
"                                      1~~                                       ",
"                                                                                ",
"                                                                                ",
"                                                                                ",
"                                                                                ",
"                                                                                ",
"                                                                                ",
"                                                                                ",
"                                                                                ",
"                                                                                ",
"                                                                                ",
"                                                                                ",
"                                                                                ",
"                                                                                ",
"                                                                                ",
"                                                                                ",
"                                                                                ",
"                                                                                ",
"                                                                                ",
"                                                                                ",
"                                                                                ",
"                                                                                ",
"                                                                                ",
"                                                                                ",
"                                                                                ",
"                                                                                ",
"                                                                                ",
"                                                                                ",
"                                                                                ",
"                                                                                ",
"                                                                                ",
"                                                                                ",
"                                                                                ",
"                                                                                ",
"                                                                                ",
"                                                                                "};
