/* XPM */
static char *close[] = {
/* columns rows colors chars-per-pixel */
"11 11 2 1",
"  c black",
". c #C0C0C0",
/* pixels */
"...........",
"...........",
"..  ...  ..",
"..   .   ..",
"...     ...",
"....   ....",
"...     ...",
"..   .   ..",
"..  ...  ..",
"...........",
"..........."
};
