/* XPM */
static char *graphic[] = {
"16 16 45 1",
". c None",
", c #A53100",
"- c #CE6342",
"* c #FFADAD",
"a c #C66342",
"b c #FFBDB5",
"c c #FFCEBD",
"d c #CE6B4A",
"e c #C65A42",
"f c #FFB5AD",
"g c #FFCECE",
"h c #FFD6D6",
"i c #FFDEDE",
"j c #CE7352",
"k c #BD5A39",
"l c #FFBDBD",
"m c #FFD6CE",
"n c #FFE7E7",
"o c #FFF7EF",
"p c #FFFFFF",
"q c #D67B5A",
"r c #FFEFF7",
"s c #EF7B63",
"t c #B53910",
"u c #AD3910",
"v c #C63918",
"w c #BD3910",
"x c #CE3918",
"y c #C63118",
"z c #DE3118",
"A c #D63918",
"B c #E73921",
"C c #DE3918",
"D c #E72910",
"E c #D62108",
"F c #AD3918",
"G c #CE3118",
"H c #D61800",
"I c #FFF7F7",
"J c #EF735A",
"K c #FFEFE7",
"L c #C66B52",
"M c #BD6342",
"N c #FFC6BD",
"O c #C66B4A",
"................",
"........,.......",
".......-*-......",
"......abbcd.....",
".....efbghij....",
"....klbgmnopq...",
"...-fbghnrppps..",
"..,tuvwxyzABCDE.",
"................",
"..,tFvwxGzxCCDH.",
"...-fbghnrppIJ..",
"....klbgmnKpj...",
".....efbghhL....",
"......MbbNO.....",
".......-*a......",
"........,......."}
