/* XPM */
static char *graphic[] = {
"16 16 26 1",
". c None",
", c #FFFFFF",
"- c #F7FFFF",
"* c #EFF7FF",
"a c #E7F7FF",
"b c #6363B5",
"c c #000084",
"d c #7373BD",
"e c #7B7BBD",
"f c #6B73BD",
"g c #6B6BBD",
"h c #000884",
"i c #DEE7F7",
"j c #080884",
"k c #D6E7F7",
"l c #BDC6EF",
"m c #F7F7FF",
"n c #31399C",
"o c #EFEFF7",
"p c #D6EFFF",
"q c #DEE7FF",
"r c #DEEFFF",
"s c #5A5AB5",
"t c #D6E7FF",
"u c #CEE7FF",
"v c #CEDEFF",
".,,,,,,,,,,,,-*,",
".,,,,,,--,,,,,,,",
".,,,,,--,,,,,,,,",
".,,,,--,,,,-*,,a",
".,,bcd,,eceafcga",
".,-hij,,jkhaclca",
".-*-mc,*c*cafcga",
".*-,cn*acacaaaaa",
".-,-ocaacacaaaap",
".,*hicaahqhaaapp",
".*rbcsaagcgaappt",
".raaaaaaaaappptu",
".arararaaappptuu",
".arararapppptuuv",
".qppppppppptuuvv",
".rppppppppvvvvvv"}
