/* XPM */
static char *graphic[] = {
"16 16 25 1",
". c None",
", c #FFFFFF",
"- c #F7FFFF",
"* c #EFF7FF",
"a c #E7F7FF",
"b c #000084",
"c c #7B7BBD",
"d c #6B73BD",
"e c #6B6BBD",
"f c #080884",
"g c #D6E7F7",
"h c #000884",
"i c #BDC6EF",
"j c #18188C",
"k c #4A4AAD",
"l c #E7E7F7",
"m c #D6EFFF",
"n c #E7EFF7",
"o c #DEE7FF",
"p c #DEEFFF",
"q c #5A5AB5",
"r c #5A63B5",
"s c #D6E7FF",
"t c #CEE7FF",
"u c #CEDEFF",
".,,,,,,,,,,,,-*,",
".,,,,,,--,,,,,,,",
".,,,,,--,,,,,,,,",
".,,,,--,,,,-*,,a",
".,,bbb,,cbcadbea",
".,-b-,,,fghabiba",
".-*bjk,*b*badbea",
".*-blb*ababaaaaa",
".-,,,baababaaaam",
".,*bnbaahohaaamm",
".*pqbraaebeaamms",
".paaaaaaaaammmst",
".apapapaaammmstt",
".apapapammmmsttu",
".ommmmmmmmmsttuu",
".pmmmmmmmmuuuuuu"}
