/* XPM */
static char *graphic[] = {
"16 16 25 1",
". c None",
", c #FFFFFF",
"- c #F7FFFF",
"* c #EFF7FF",
"a c #E7F7FF",
"b c #6B6BBD",
"c c #000084",
"d c #7373BD",
"e c #7B7BBD",
"f c #6B73BD",
"g c #000884",
"h c #E7E7F7",
"i c #080884",
"j c #D6E7F7",
"k c #BDC6EF",
"l c #4A4AAD",
"m c #31319C",
"n c #D6EFFF",
"o c #DEE7F7",
"p c #DEE7FF",
"q c #DEEFFF",
"r c #636BB5",
"s c #D6E7FF",
"t c #CEE7FF",
"u c #CEDEFF",
".,,,,,,,,,,,,-*,",
".,,,,,,--,,,,,,,",
".,,,,,--,,,,,,,,",
".,,,,--,,,,-*,,a",
".,,bcd,,eceafcba",
".,-ghi,,ijgackca",
".-*c,c,*c*cafcba",
".*-chc*acacaaaaa",
".-,lmcaacacaaaan",
".,*,ogaagpgaaann",
".*qrcfaabcbaanns",
".qaaaaaaaaannnst",
".aqaqaqaaannnstt",
".aqaqaqannnnsttu",
".pnnnnnnnnnsttuu",
".qnnnnnnnnuuuuuu"}
