/* XPM */
static char *graphic[] = {
"16 16 12 1",
". c None",
", c #7B84E7",
"- c #3942DE",
"* c #A5ADEF",
"a c #636BE7",
"b c #525ADE",
"c c #ADBDF7",
"d c #8C94EF",
"e c #737BE7",
"f c #B5BDF7",
"g c #D6D6F7",
"h c #9CA5EF",
"................",
"................",
"................",
".....,------....",
".....*,,,a-b....",
".........b-c....",
"........,-c.....",
".......d-e......",
"......f-e.......",
".....g-b........",
".....e------....",
".....heeeeee....",
"................",
"................",
"................",
"................"}
