/* XPM */
static char *graphic[] = {
"16 16 47 1",
". c None",
", c #737373",
"- c #63636B",
"* c #525252",
"a c #314252",
"b c #6B6B6B",
"c c #6B7384",
"d c #738494",
"e c #6B8494",
"f c #6B7373",
"g c #636B7B",
"h c #5A6B7B",
"i c #737B84",
"j c #F7F710",
"k c #637384",
"l c #5A636B",
"m c #7B8C94",
"n c #1052EF",
"o c #4A5252",
"p c #425263",
"q c #42637B",
"r c #4A7394",
"s c #394252",
"t c #4A84A5",
"u c #4A637B",
"v c #94B5D6",
"w c #424A52",
"x c #7BADD6",
"y c #F72110",
"z c #63737B",
"A c #525A63",
"B c #5A6B73",
"C c #73ADD6",
"D c #52636B",
"E c #636B73",
"F c #94BDDE",
"G c #84A5BD",
"H c #7B94AD",
"I c #5A6373",
"J c #526B7B",
"K c #4A6B84",
"L c #5294C6",
"M c #4A8CBD",
"N c #5284AD",
"O c #63849C",
"P c #4A5A6B",
"Q c #525A73",
".......,,,......",
"....-*aaaaa*-...",
"..,bcd.....ecbf.",
"..bg.........h-.",
".-i....j......kl",
".*m...n...n...eo",
".p.............a",
".p..........j..a",
".q.............a",
".rn....n.......s",
".t.........n...s",
".uv..j........dw",
".hx.....y.....zA",
"..BC.........DD.",
"..EhxF.....GHII.",
"....JKLLMNOPQ..."}
