/* XPM */
static char *graphic[] = {
"16 16 37 1",
". c None",
", c #D69C00",
"- c #FFC600",
"* c #FF9C00",
"a c #FFFFFF",
"b c #00BD00",
"c c #FFFFEF",
"d c #FFDEA5",
"e c #CEFFCE",
"f c #A56B00",
"g c #FFF7AD",
"h c #FFCE63",
"i c #E7FFAD",
"j c #FFF763",
"k c #63CE31",
"l c #ADEF31",
"m c #EF6B00",
"n c #EF8C00",
"o c #004AB5",
"p c #E78C00",
"q c #636394",
"r c #6363DE",
"s c #DEEFFF",
"t c #CECEFF",
"u c #004A63",
"v c #A56300",
"w c #E76300",
"x c #FFBD00",
"y c #CE9C00",
"z c #FFFFE7",
"A c #FFFFA5",
"B c #FFF7A5",
"C c #FFE79C",
"D c #FFDE9C",
"E c #9C6300",
"F c #00FF00",
"G c #FFEFA5",
"........,-*-,-ab",
".......,aacdcd*e",
"......,cfcdghghi",
".....,cfjfjhj,*k",
"....,cfgfgf-,-fl",
"...,cf.fjfjfmfmf",
"...nf...fgf..ofp",
"..aqrsrqrfatuvw,",
".*x,x*x,x*xyn*ny",
",zAzAzBzCcDcEm,*",
"x,x*x,x*xyx*nynE",
",zAzAzBzFFDcEmym",
"xAzAzBzGcCcDn*xE",
"fwfwfwfwEmEmE*E.",
".,zAzBzGcCcExE..",
"..fwfwfwEmEmE..."}
