/* XPM */
static char *graphic[] = {
"16 16 135 2",
".. c None",
"., c #F7EFD6",
".- c #B78D4F",
".* c #B7873B",
".a c #F7E7CE",
".b c #F7EFCE",
".c c #AD772D",
".d c #D69C1D",
".e c #D7941D",
".f c #966731",
".g c #F7E7C7",
".h c #AF8643",
".i c #A76B1D",
".j c #8F5B1D",
".k c #C7841D",
".l c #7F4B1D",
".m c #945F27",
".n c #E7D6AD",
".o c #E7D6AF",
".p c #BD7F1D",
".q c #AD6F1D",
".r c #BF7B1E",
".s c #DF9D1F",
".t c #DEAF25",
".u c #955F1F",
".v c #865321",
".w c #D7B57B",
".x c #BD8635",
".y c #E7C784",
".z c #D7BF94",
".A c #CE8E1E",
".B c #BF7F1F",
".C c #9E6321",
".D c #CE8E23",
".E c #F7CE2D",
".F c #EFCE31",
".G c #A76F23",
".H c #7F4F21",
".I c #A57725",
".J c #975B1E",
".K c #D7AF63",
".L c #DFB767",
".M c #B77F27",
".N c #A77329",
".O c #BF7F29",
".P c #CE942B",
".Q c #E7BD33",
".R c #E7D73D",
".S c #BD8729",
".T c #7F4F23",
".U c #734621",
".V c #AD7B35",
".W c #F7F7E7",
".X c #EFD773",
".Y c #DEBD4B",
".Z c #AD843F",
".0 c #A77739",
".1 c #BF8739",
".2 c #D6AD39",
".3 c #E7D73F",
".4 c #CE9D31",
".5 c #7F5225",
".6 c #976F37",
".7 c #DECF9F",
".8 c #C7B55E",
".9 c #A58D5B",
".@ c #95734F",
".# c #AD844A",
".; c #C7953F",
".: c #E7C73D",
".= c #CE9629",
".+ c #9F6F2D",
".% c #C7C6BF",
".$ c #AFA796",
".( c #97846B",
".) c #9E8C6F",
".[ c #8C7763",
".] c #9F7B4F",
",. c #9F773F",
",, c #C6962F",
",- c #C78E37",
",* c #E7DFDF",
",a c #C7C6C6",
",b c #ADAFAF",
",c c #948F8C",
",d c #87857F",
",e c #8D867F",
",f c #948E77",
",g c #8F7B63",
",h c #84634B",
",i c #B59667",
",j c #D7DEC7",
",k c #DEDFDF",
",l c #BDBFBF",
",m c #9E9C9C",
",n c #8F8D87",
",o c #878584",
",p c #878484",
",q c #8D877F",
",r c #A5967B",
",s c #BDAF9C",
",t c #D7DEDF",
",u c #DEDEDE",
",v c #BDBDBD",
",w c #9D9797",
",x c #8C8584",
",y c #878585",
",z c #8D8485",
",A c #9C958D",
",B c #C6BFBF",
",C c #D7DEDE",
",D c #9C9C8F",
",E c #8C8485",
",F c #8D8E86",
",G c #A7A5A5",
",H c #CECECE",
",I c #AFA78D",
",J c #8F877B",
",K c #87867F",
",L c #958777",
",M c #B5A796",
",N c #D6D7D7",
",O c #D7E7DF",
",P c #C7B56F",
",Q c #8C735E",
",R c #977F67",
",S c #9E8767",
",T c #A78D63",
",U c #C7BD97",
",V c #D7E7A5",
",W c #D7E7B5",
",X c #D7CEB5",
",Y c #8F6F46",
",Z c #9F7342",
",0 c #C6A76F",
".........,.-.*.a................",
".......b.c.d.e.f.g..............",
".......h.i.j.k.l.m.n............",
".....o.p.q.r.s.t.u.v.w.x.y......",
".....z.A.B.C.D.E.F.G.H.I.J.K....",
".......L.M.N.O.P.Q.R.S.T.U.V....",
".......W.X.Y.Z.0.1.2.3.4.5.6....",
"...........7.8.9.@.#.;.:.=.+....",
"...........%.$.(.).[.],.,,,-....",
"......,*,a,b,c,d,e,f,g,h,i,j....",
"......,k,l,m,n,o,p,q,r,s,t......",
"......,u,v,w,x,y,y,z,A,B,C......",
"......,k,B,D,E,y,o,F,G,a........",
"........,H,I,J,K,q,L,M,N........",
"........,O,P,Q,R,S,T,U..........",
"........,V,W,X,Y,Z,0............"}
