/* XPM */
static char *graphic[] = {
"16 16 141 2",
".. c None",
"., c #F7EFD6",
".- c #B78D4F",
".* c #B7873B",
".a c #F7E7CE",
".b c #F7EFCE",
".c c #AD772D",
".d c #D69C1D",
".e c #D7941D",
".f c #966731",
".g c #F7E7C7",
".h c #AF8643",
".i c #A76B1D",
".j c #8F5B1D",
".k c #C7841D",
".l c #7F4B1D",
".m c #945F27",
".n c #E7D6AD",
".o c #E7D6AF",
".p c #BD7F1D",
".q c #AD6F1D",
".r c #B77F1E",
".s c #DE9F1F",
".t c #DEAD25",
".u c #97631F",
".v c #845621",
".w c #D7B57B",
".x c #BD8635",
".y c #E7C784",
".z c #D7BF94",
".A c #C78C1E",
".B c #B77F1F",
".C c #976721",
".D c #C79421",
".E c #E7CF2B",
".F c #E7D72F",
".G c #9F7723",
".H c #7B5321",
".I c #A77725",
".J c #975B1E",
".K c #D7AF63",
".L c #CFB763",
".M c #AF8627",
".N c #967F27",
".O c #A58D27",
".P c #B79E27",
".Q c #CEC62F",
".R c #D7D739",
".S c #AD8F29",
".T c #775723",
".U c #734721",
".V c #AD7B35",
".W c #CFDF67",
".X c #B7CF3F",
".Y c #849E35",
".Z c #7F9C31",
".0 c #8EA731",
".1 c #AFBF31",
".2 c #CFD739",
".3 c #B7A52F",
".4 c #7B5A23",
".5 c #956F37",
".6 c #96DF6F",
".7 c #77D642",
".8 c #5EBF3D",
".9 c #57AF39",
".@ c #73AD37",
".# c #95AD35",
".; c #C6CE37",
".: c #BD9F27",
".= c #9D732D",
".+ c #8DE797",
".% c #67DE6F",
".$ c #46DE47",
".( c #37D735",
".) c #3FD739",
".[ c #4ABD3D",
".] c #67A73B",
",. c #7F9535",
",, c #AF9E2D",
",- c #B79435",
",* c #A7EFA7",
",a c #6FDF77",
",b c #3FE74E",
",c c #1FE72D",
",d c #15DE25",
",e c #1DE72B",
",f c #37D639",
",g c #4FB542",
",h c #5E8E3B",
",i c #9DA75A",
",j c #D7DEB5",
",k c #95E79F",
",l c #5FDE67",
",m c #2BE73B",
",n c #0EF721",
",o c #04F718",
",p c #0DF721",
",q c #25DF31",
",r c #4ECE47",
",s c #7FCE73",
",t c #BDE7BD",
",u c #97E79E",
",v c #5BDE67",
",w c #29E739",
",x c #0DEF21",
",y c #04F719",
",z c #25DE33",
",A c #4ECF4E",
",B c #87D78D",
",C c #BDE7BF",
",D c #9FE7A5",
",E c #6BDE73",
",F c #39DF43",
",G c #1DE72D",
",H c #15EF27",
",I c #33D63F",
",J c #5ECF67",
",K c #94D695",
",L c #BFE7C7",
",M c #8CDF8E",
",N c #5BD753",
",O c #39CF3D",
",P c #31D63B",
",Q c #37CF3F",
",R c #4BBF46",
",S c #77C667",
",T c #A7DEAF",
",U c #AFE7AD",
",V c #85CF52",
",W c #52AF42",
",X c #56B543",
",Y c #5EB546",
",Z c #73B74A",
",0 c #9ECE7B",
",1 c #CFE796",
",2 c #BDE796",
",3 c #A7DE8F",
",4 c #6B963B",
",5 c #7B9737",
",6 c #9DB55B",
".........,.-.*.a................",
".......b.c.d.e.f.g..............",
".......h.i.j.k.l.m.n............",
".....o.p.q.r.s.t.u.v.w.x.y......",
".....z.A.B.C.D.E.F.G.H.I.J.K....",
".......L.M.N.O.P.Q.R.S.T.U.V....",
".........W.X.Y.Z.0.1.2.3.4.5....",
"...........6.7.8.9.@.#.;.:.=....",
".........+.%.$.(.).[.],.,,,-....",
"......,*,a,b,c,d,e,f,g,h,i,j....",
"......,k,l,m,n,o,p,q,r,s,t......",
"......,u,v,w,x,y,x,z,A,B,C......",
"......,D,E,F,G,H,G,I,J,K,L......",
"........,M,N,O,P,Q,R,S,T........",
"........,U,V,W,X,Y,Z,0..........",
"........,1,2,3,4,5,6............"}
