/* XPM */
static char *graphic[] = {
"16 16 20 1",
". c None",
", c #D6D6D6",
"- c #C6C6C6",
"* c #858585",
"a c #A5A5A5",
"b c #9E9E9E",
"c c #969696",
"d c #B7B7B7",
"e c #868686",
"f c #B5B5B5",
"g c #AFAFAF",
"h c #D7D7D7",
"i c #878787",
"j c #BFBFBF",
"k c #8E8E8E",
"l c #9F9F9F",
"m c #BDBDBD",
"n c #CECECE",
"o c #8C8C8C",
"p c #959595",
"................",
".....,,.........",
"....-**a........",
"....b***b.......",
"....c****d......",
"....a****e......",
"....f*****g.....",
"....h******.....",
".....i*****,....",
".....j*****f....",
"......k****a....",
"......h****l....",
".......m***f....",
"........nop.....",
"................",
"................"}
