/* XPM */
static char *graphic[] = {
"16 16 47 1",
". c None",
", c #CECECE",
"- c #BFBFFF",
"* c #7373FF",
"a c #1F1F47",
"b c #A5A5A5",
"c c #5656FF",
"d c #8484FF",
"e c #D6D6FF",
"f c #D6D6DF",
"g c #CECEFF",
"h c #3B3B3B",
"i c #7373E7",
"j c #000000",
"k c #A7A7A7",
"l c #DFDFDF",
"m c #7777DF",
"n c #3B3BA7",
"o c #5E5EFF",
"p c #7B7BFF",
"q c #A7A7FF",
"r c #9E9EFF",
"s c #4747FF",
"t c #4747AF",
"u c #AFAFFF",
"v c #4747CE",
"w c #8F8F8F",
"x c #BDBDBD",
"y c #BDBDCE",
"z c #8F8FAF",
"A c #474747",
"B c #DFDFFF",
"C c #7F7FFF",
"D c #E7E7FF",
"E c #E7E7E7",
"F c #B7B7B7",
"G c #9D9D9D",
"H c #CECEDF",
"I c #7777FF",
"J c #0E0E17",
"K c #8484AF",
"L c #D6D6E7",
"M c #39394B",
"N c #737373",
"O c #7373CE",
"P c #7373B7",
"Q c #1F1F1F",
"........,.......",
"......-*a-......",
"...bbcdefdg.....",
"...hh.....ijk...",
"...lm......nl...",
"....o.....gp....",
"....qr....s.....",
".....s..,tu.....",
".....vwxyz......",
".....A,lBCD..EF.",
".Gl.pH...*e...E.",
"...BI....*e.....",
"...qq....gp.....",
"...JKeeeeLME....",
"...NO****PQk....",
"..........,....."}
