/* XPM */
static char *graphic[] = {
"16 16 31 1",
". c #E7E767",
", c #F7F7BD",
"- c None",
"* c #E7E773",
"a c #DFDF4A",
"b c #FFFFE7",
"c c #DFDF3F",
"d c #E7EF85",
"e c #010100",
"f c #F7F7BF",
"g c #4B4A07",
"h c #000000",
"i c #848400",
"j c #EFEF9D",
"k c #EFEFA5",
"l c #DEDF35",
"m c #E7E777",
"n c #F7F7C6",
"o c #DEDF3F",
"p c #E7E76F",
"q c #FFFFDE",
"r c #DFDE52",
"s c #DFDF4B",
"t c #F7F7C7",
"u c #E7EF86",
"v c #BFBF0E",
"w c #101001",
"x c #020200",
"y c #1A1A02",
"z c #EFEF9E",
"A c #D6DE2D",
".,--------------",
"*a--------------",
"bcde------------",
"-fgeh-----------",
"-hhhhh----------",
"--hhi-----------",
"---h-.j---------",
"-----klm--------",
"------nopb------",
"-------qrrb-----",
"--------bpsth---",
"----------uvwh--",
"----------xyihh-",
"-----------hhh--",
"------------h-.z",
"--------------zA"}
