/* XPM */
static char *graphic[] = {
"16 16 11 1",
". c None",
", c #FFD6D6",
"- c #FFBFBF",
"* c #FFA5A5",
"a c #FF5252",
"b c #FFB7B7",
"c c #FF7B7B",
"d c #FF8686",
"e c #FF8C8C",
"f c #FF2929",
"g c #FF7777",
"......,,,,......",
"....-*aaaa*-....",
"...bcd....dcb...",
"..be........eb..",
".-c..........c-.",
".*d...bffb...d*.",
",a...bg..gb...a,",
",a...f....f...a,",
",a...f....f...a,",
",a...bg..gb...a,",
".*d...bffb...d*.",
".-c..........c-.",
"..be........eb..",
"...bcd....dcb...",
"....-*aaaa*-....",
"......,,,,......"}
