/* XPM */
static char *graphic[] = {
"16 16 57 1",
". c None",
", c #A7A5C7",
"- c #9D9FBF",
"* c #D6D7E7",
"a c #A7A7C7",
"b c #ADB5CE",
"c c #8D8EB7",
"d c #969EBF",
"e c #CECFDF",
"f c #B5B5D6",
"g c #BDBFD7",
"h c #9E9CBF",
"i c #5E5B8F",
"j c #B5B7D7",
"k c #A7AFCE",
"l c #A7ADD6",
"m c #5E5F95",
"n c #0000C6",
"o c #C6D6F7",
"p c #2F31CF",
"q c #2325CF",
"r c #9CA5EF",
"s c #9DA5C7",
"t c #A5A5C7",
"u c #2B2FC6",
"v c #1819C6",
"w c #5B5A8C",
"x c #AFB5D7",
"y c #0505C6",
"z c #8D8FC6",
"A c #7B7FAF",
"B c #B5BDE7",
"C c #0303C6",
"D c #9FA5D6",
"E c #3D42D7",
"F c #191BC6",
"G c #CFDFFF",
"H c #969CBF",
"I c #C7CEF7",
"J c #2B2FCE",
"K c #1718C6",
"L c #949FE7",
"M c #A5ADCE",
"N c #B5C7E7",
"O c #7F85B5",
"P c #7B7FAD",
"Q c #9496BD",
"R c #858EB5",
"S c #9DA5C6",
"T c #A5AFCF",
"U c #9DA7CE",
"V c #8585B5",
"W c #969DC6",
"X c #BFCFE7",
"Y c #B7BDE7",
"Z c #777BAD",
"0 c #A5A7D6",
".........,-*....",
".a........bcd*..",
".ea......ff.gchi",
"..eaj..k......lm",
"...nnnnnn.......",
"...nnnnnn.......",
"...nn.....opnqrs",
"..tnnnnnn.unnnvw",
".txnnnnnn.ynzAB.",
".x.nn.....CnD...",
"...nnnnnnkEnnnFG",
"..Hnnnnnn.IJnKLk",
".HMA.....k..NOPI",
".M.QR.ST......UP",
"....VWkX.......w",
"....YZ0........."}
