/* XPM */
static char *graphic[] = {
"16 16 10 1",
". c None",
", c #000042",
"- c #F7FFFF",
"* c #EFF7FF",
"a c #E7F700",
"b c #777B7F",
"c c #FFFFFF",
"d c #E7F7FF",
"e c #737B7F",
"f c #D7EF00",
"................",
"................",
"....,,,....,,,..",
"....,-,....,*,..",
"....,-,....,a,..",
"...,,,,,b.,,,,,.",
"..,,c,,,,,,,,,,,",
"..,,c,,,,,d,,,,,",
"..,,c,,,,,a,,,,,",
"..,,,,,,,,,,,,,,",
"..,d,,,ee..,d,,,",
"..,a,,,....,f,,,",
"..,,,,,....,,,,,",
"................",
"................",
"................"}
