/* XPM */
static char *graphic[] = {
"16 16 8 1",
". c None",
", c #0000FF",
"- c #E7EFFF",
"* c #E7F7FF",
"a c #DEEFFF",
"b c #DFEFFF",
"c c #D7E7FF",
"d c #D7EFFF",
"................",
"................",
"................",
"...........,,,..",
"..........,-**,.",
".........,-*,aa,",
".........,*,,,a,",
"..........,,,**,",
"......,,.,b,**,.",
".....,-*,a,.,,..",
"....,a*,,,......",
"....,*,,,*,.....",
".....*c,**,.....",
".....,cbd,......",
"......,,,.......",
"................"}
