/* XPM */
static char *graphic[] = {
"16 16 35 1",
". c None",
", c #000000",
"- c #FFC600",
"* c #BD8C00",
"a c #FFB500",
"b c #EF6300",
"c c #FFDE9C",
"d c #FFFFDE",
"e c #FFF794",
"f c #EF8C00",
"g c #FFFFEF",
"h c #FFFF94",
"i c #FFFFE7",
"j c #C69400",
"k c #FFFFFF",
"l c #FF9400",
"m c #FFBD00",
"n c #D69C00",
"o c #9C6300",
"p c #FFE79C",
"q c #FFF79C",
"r c #FFFFA5",
"s c #FF9C00",
"t c #FFEFA5",
"u c #FFF7A5",
"v c #FFF7FF",
"w c #FFEF9C",
"x c #EF6B00",
"y c #FFF77B",
"z c #FFFFBD",
"A c #FFEF7B",
"B c #FFFFC6",
"C c #FFEF73",
"D c #FFE773",
"E c #E76300",
".......,,,......",
"......,,,,,,.,..",
".....,....,,,,..",
"...........,,,..",
"..-*a.....,,,,..",
".bcde...........",
"fcghihjkajalmna.",
"ogpgqaqgriririn.",
"stiumkkkkkkkkvkv",
"piusuiuiwgwgpgpx",
".uisiuiugwgpgpko",
".iniriuiwgwgpgo.",
".rmriuiugwgwgvf.",
".sririuiqgwgwx..",
".yzyzyzABCBDko..",
".EoEoEoEoxoxo..."}
