/* XPM */
static char *graphic[] = {
"16 16 34 1",
". c None",
", c #0039A5",
"- c #4273CE",
"* c #ADCEFF",
"a c #4273C6",
"b c #B5D6FF",
"c c #B5DEFF",
"d c #BDDEFF",
"e c #4A7BC6",
"f c #CEE7FF",
"g c #D6E7FF",
"h c #527BC6",
"i c #396BC6",
"j c #E7F7FF",
"k c #EFF7FF",
"l c #FFFFFF",
"m c #5A84CE",
"n c #4273D6",
"o c #F7F7FF",
"p c #5A9CE7",
"q c #1042B5",
"r c #104AB5",
"s c #185AC6",
"t c #105ABD",
"u c #1863D6",
"v c #186BCE",
"w c #1873DE",
"x c #1873D6",
"y c #2173DE",
"z c #106BDE",
"A c #0063CE",
"B c #184AB5",
"C c #5284CE",
"D c #C6DEFF",
"................",
"........,.......",
".......-*a......",
"......abcde.....",
".....-*cfggh....",
"....idcffjklm...",
"...n*cfgjollop..",
"..,qrstuvwxyxzA.",
"................",
"..,qBstuvwxwxzA.",
"...n*cfgjollop..",
"....idcffjklC...",
".....-*cfggh....",
"......abcDe.....",
".......-*a......",
"........,......."}
