/* XPM */
static char *graphic[] = {
"16 16 7 1",
". c None",
", c #000084",
"- c #4242FF",
"* c #5A9CDE",
"a c #B5D6FF",
"b c #D6E7FF",
"c c #0000C6",
"..........,.....",
"..........-,....",
"......----**,...",
"....*-*aaaa**,..",
"...*-*abbaaa*c..",
"...-*bb---**c...",
"..-*bb-...-c....",
"..-ab-....c.....",
"..-bb-..........",
"..-bb-..........",
"..-ab-..........",
"..-*bb-.........",
"...-abb----.....",
"...*-abbbb-.....",
"....*-*abb-.....",
"......-----....."}
