/* XPM */
static char *graphic[] = {
"16 16 46 1",
". c None",
", c #BDBDD6",
"- c #636394",
"* c #C6C6DE",
"a c #6B6B9C",
"b c #BDC6DE",
"c c #7B7BA5",
"d c #B5B5CE",
"e c #8C8CAD",
"f c #7B84AD",
"g c #8484AD",
"h c #7B7BAD",
"i c #7373A5",
"j c #C6C6D6",
"k c #8C8CB5",
"l c #8484B5",
"m c #BDC6D6",
"n c #9C9CBD",
"o c #949CBD",
"p c #B5BDD6",
"q c #9494BD",
"r c #8C94B5",
"s c #A5A5C6",
"t c #D6DEE7",
"u c #D6DEEF",
"v c #D6D6E7",
"w c #C6D6E7",
"x c #848CB5",
"y c #A5ADCE",
"z c #9C9CC6",
"A c #ADADC6",
"B c #9CA5C6",
"C c #8C8CBD",
"D c #8C94BD",
"E c #C6CEE7",
"F c #A5ADD6",
"G c #CED6EF",
"H c #A5B5D6",
"I c #B5C6DE",
"J c #C6CEEF",
"K c #94A5CE",
"L c #737BA5",
"M c #6B6BA5",
"N c #BDCEE7",
"O c #ADB5DE",
"P c #BDCEEF",
"..,-*....a....bc",
".dc-cefghiggggc-",
"..jk..kb...l...g",
"..mn..h....g...h",
"..mn..o....k...h",
"..pq..l....o...g",
"..rstukt...hv.wx",
".yaizAgrqBkkdloa",
"..q,..l....km..C",
"..qp..k....h...D",
"..fE..k....k...F",
"..hG..g....g...H",
"..cIJGq..D.h...K",
"..aLhhhhi-iLhhhM",
"..L.....Na.....O",
"..h.....Pa......"}
