/* XPM */
static char *graphic[] = {
"16 16 18 1",
". c None",
", c #FFFFFF",
"- c #F7FFFF",
"* c #EFF7FF",
"a c #E7F7FF",
"b c #8484C6",
"c c #6B73BD",
"d c #000084",
"e c #6B6BBD",
"f c #18188C",
"g c #BDC6EF",
"h c #F7F7FF",
"i c #D6EFFF",
"j c #DEEFFF",
"k c #D6E7FF",
"l c #CEE7FF",
"m c #CEDEFF",
"n c #DEE7FF",
".,,,,,,,,,,,,-*,",
".,,,,,,--,,,,,,,",
".,,,,,--,,,,,,,,",
".,,,,--,,,,-*,,a",
".,,,--,b,cdeaaaa",
".,-*-,fd*dgdaaaa",
".-*-,,hdacdeaaaa",
".*-,,,*daaaaaaaa",
".-,,,*adaaaaaaai",
".,***aadaaaaaaii",
".*jaaaadaaaaaiik",
".jaaaaaaaaaiiikl",
".ajajajaaaiiikll",
".ajajajaiiiikllm",
".niiiiiiiiikllmm",
".jiiiiiiiimmmmmm"}
