/* XPM */
static char *graphic[] = {
"16 16 22 1",
". c None",
", c #FFFFFF",
"- c #F7FFFF",
"* c #EFF7FF",
"a c #E7F7FF",
"b c #7B84C6",
"c c #000084",
"d c #6B73BD",
"e c #6B6BBD",
"f c #18188C",
"g c #BDC6EF",
"h c #F7F7FF",
"i c #4A4AAD",
"j c #CEDEF7",
"k c #D6EFFF",
"l c #DEE7FF",
"m c #DEEFFF",
"n c #5A5AB5",
"o c #5A63B5",
"p c #D6E7FF",
"q c #CEE7FF",
"r c #CEDEFF",
".,,,,,,,,,,,,-*,",
".,,,,,,--,,,,,,,",
".,,,,,--,,,,,,,,",
".,,,,--,,,,-*,,a",
".,,,-b,,cccadcea",
".,-*fc,,caaacgca",
".-*-hc,*cfiadcea",
".*-,,c*acjcaaaaa",
".-,,,caaaacaaaak",
".,***caaclcaaakk",
".*maacaancoaakkp",
".maaaaaaaaakkkpq",
".amamamaaakkkpqq",
".amamamakkkkpqqr",
".lkkkkkkkkkpqqrr",
".mkkkkkkkkrrrrrr"}
