/* XPM */
static char *graphic[] = {
"16 16 32 1",
". c None",
", c #FFFFFF",
"- c #F7FFFF",
"* c #EFF7FF",
"a c #E7F7FF",
"b c #8484C6",
"c c #5A5AB5",
"d c #000084",
"e c #7B7BBD",
"f c #6B73BD",
"g c #18188C",
"h c #F7F7FF",
"i c #39399C",
"j c #080884",
"k c #D6DEF7",
"l c #000884",
"m c #BDC6EF",
"n c #EFEFFF",
"o c #424AA5",
"p c #A5A5D6",
"q c #DEEFFF",
"r c #DEE7F7",
"s c #949CD6",
"t c #D6EFFF",
"u c #737BC6",
"v c #BDC6E7",
"w c #DEE7FF",
"x c #181894",
"y c #6B6BBD",
"z c #D6E7FF",
"A c #CEE7FF",
"B c #CEDEFF",
".,,,,,,,,,,,,-*,",
".,,,,,,--,,,,,,,",
".,,,,,--,,,,,,,,",
".,,,,--,,,,-*,,a",
".,b,-cde,*edfafd",
".gd*-dhi*ajkladm",
".nd-,,hoa*dadafd",
".*d,,,pqaadadaaa",
".-d,,rsaaadadaat",
".,d**uvaaalwlatt",
".*daaxddaaydyttz",
".qaaaaaaaaatttzA",
".aqaqaqaaatttzAA",
".aqaqaqattttzAAB",
".wtttttttttzAABB",
".qttttttttBBBBBB"}
