/* XPM */
static char *graphic[] = {
"16 16 10 1",
". c #B58CE7",
", c #636394",
"- c None",
"* c #6363E7",
"a c #DEEFFF",
"b c #D6EFFF",
"c c #CEE7FF",
"d c #D6E7FF",
"e c #C6E7FF",
"f c #FFFFFF",
".,.,.,.,.,.-----",
",---------,-----",
".---------.-----",
",---------,-----",
".----,.,.,.,.,.,",
",----*---------*",
".----,---------,",
",---a*---------*",
".----,---------,",
",-a-a*------a-b*",
".----,---------,",
",-b-c*----a-b-d*",
".,.,.,-----b---,",
"-----*--a-b-c-e*",
"-----,---b---cf,",
"-----,.,.,.,.,.*"}
