/* XPM */
static char *graphic[] = {
"16 16 17 1",
". c None",
", c #7B84E7",
"- c #3942DE",
"* c #636BE7",
"a c #A5A5EF",
"b c #9494EF",
"c c #525ADE",
"d c #6B6BE7",
"e c #9CA5EF",
"f c #B5BDF7",
"g c #BDCEF7",
"h c #8494EF",
"i c #737BE7",
"j c #BDBDF7",
"k c #8C94EF",
"l c #ADBDF7",
"m c #848CEF",
"................",
"................",
"................",
"................",
"...,-...-,..*-..",
"...a-..b-c..-*..",
"....-,.,d-..-e..",
"....cd.-f-..-g..",
"....b-.-.*hic...",
"....j-k-.ki*i...",
".....--i.l--l...",
".....i-e..--....",
".....lig..im....",
"................",
"................",
"................"}
