/* XPM */
static char *graphic[] = {
"16 16 10 1",
". c None",
", c #5767F7",
"- c #293BF7",
"* c #7F8CFF",
"a c #424FF7",
"b c #1427F7",
"c c #6B77FF",
"d c #9CA5FF",
"e c #737FFF",
"f c #B7BDFF",
"................",
"................",
"................",
"................",
"................",
"................",
"......,-*.......",
"......abc.......",
"......def.......",
"................",
"................",
"................",
"................",
"................",
"................",
"................"}
