/* XPM */
static char * i56_xpm[] = {
"16 16 38 1",
" 	c None",
".	c #D8AD23",
"+	c #ECCC3A",
"@	c #E4BE48",
"#	c #E8C550",
"$	c #D9A707",
"%	c #F8D930",
"&	c #FCDF22",
"*	c #E0AA06",
"=	c #DEAA06",
"-	c #BB7E04",
";	c #C68E09",
">	c #E1B639",
",	c #F7D562",
"'	c #764D04",
")	c #E2A90C",
"!	c #EEC949",
"~	c #FDED8A",
"{	c #FCF192",
"]	c #F4CA2C",
"^	c #EFB806",
"/	c #A26C04",
"(	c #F4D53B",
"_	c #F3C81E",
":	c #FCE740",
"<	c #FCE52F",
"[	c #FCD60D",
"}	c #A77404",
"|	c #E4B207",
"1	c #FCDF0B",
"2	c #FCDC0A",
"3	c #FCD509",
"4	c #F7BD06",
"5	c #DDA105",
"6	c #CD8E05",
"7	c #F5BD06",
"8	c #BC7E04",
"9	c #AC7004",
"                ",
"                ",
"          .+    ",
"   @#      $    ",
"   %&           ",
"   *=           ",
"                ",
"         -;     ",
"         >,     ",
"      ')!~{]^/  ",
"  (     _:<[}   ",
"        |123    ",
"        45678   ",
"        9       ",
"                ",
"                "};
