/* XPM */
static char *graphic[] = {
"16 16 51 1",
". c None",
", c #D6D6D6",
"- c #BFBFBF",
"* c #DEDEDE",
"a c #E7E7E7",
"b c #C7C7C7",
"c c #C6C6C6",
"d c #CECECE",
"e c #CFCFCF",
"f c #BDBDBD",
"g c #B5B5B5",
"h c #5E5E5E",
"i c #868686",
"j c #8E8E8E",
"k c #B7B7B7",
"l c #9E9E9E",
"m c #5F5F5F",
"n c #5B5B5B",
"o c #6F6F6F",
"p c #8D8D8D",
"q c #A7A7A7",
"r c #A5A5A5",
"s c #ADADAD",
"t c #434343",
"u c #676767",
"v c #4F4F4F",
"w c #9C9C9C",
"x c #AFAFAF",
"y c #4E4E4E",
"z c #272727",
"A c #232323",
"B c #2B2B2B",
"C c #7F7F7F",
"D c #777777",
"E c #3F3F3F",
"F c #0D0D0D",
"G c #060606",
"H c #3B3B3B",
"I c #949494",
"J c #636363",
"K c #3D3D3D",
"L c #525252",
"M c #575757",
"N c #7B7B7B",
"O c #D7D7D7",
"P c #9D9D9D",
"Q c #8F8F8F",
"R c #1D1D1D",
"S c #393939",
"T c #858585",
"U c #474747",
".....,-*aa......",
".....-bcd,......",
"....efghijg,....",
"....klmnopqra...",
"....sotuvngwe...",
"....xuyzABCsb...",
"....sDEFGHvxe...",
"....sIJHKLMw*...",
".....oiiDHJq....",
"......NhHJCc....",
"......OPQgf.....",
"....adq.........",
"....coRS........",
".....uGST.......",
".....cUD-.......",
"................"}
