/* XPM */
static char *graphic[] = {
"16 16 16 1",
". c None",
", c #5B5B5B",
"- c #D7D7D7",
"* c #575757",
"a c #D6D6D6",
"b c #474747",
"c c #BFBFBF",
"d c #424242",
"e c #535353",
"f c #ADADAD",
"g c #292929",
"h c #191919",
"i c #050505",
"j c #2B2B2B",
"k c #2D2D2D",
"l c #313131",
"................",
"................",
"................",
"................",
".....,-.,-......",
".....-*aab......",
"......a*cda.....",
".....,acefd.....",
".....-bdfgha....",
".......adhija...",
".........ajik...",
"..........akl...",
"................",
"................",
"................",
"................"}
