/* XPM */
static char *graphic[] = {
"16 16 36 1",
". c None",
", c #CECECE",
"- c #DFDFFF",
"* c #B7B7B7",
"a c #1F1F1F",
"b c #A7A7A7",
"c c #BDBDFF",
"d c #8F8FFF",
"e c #E7E7E7",
"f c #4B4B4B",
"g c #7B7BFF",
"h c #4343FF",
"i c #4747FF",
"j c #3333FF",
"k c #2525F7",
"l c #3D3DFF",
"m c #2D2DFF",
"n c #7B7B7B",
"o c #5E5EFF",
"p c #777777",
"q c #5A5A5A",
"r c #A7A7FF",
"s c #CECEFF",
"t c #2323FF",
"u c #3737FF",
"v c #9D9D9D",
"w c #DFDFDF",
"x c #D6D6D6",
"y c #737373",
"z c #BFBFBF",
"A c #AFAFAF",
"B c #5656FF",
"C c #171717",
"D c #D6D6FF",
"E c #1919FF",
"F c #63637B",
"..,......-......",
".*ab....cd......",
".efeghiijkilmn..",
"....o...pq.rm...",
"....o...pq.rm...",
"sitiu......rm...",
"..i........rm...",
"..i......vwrmiis",
"..i..xy......i..",
"..i...z....y,i..",
",AiiiB.....CAi..",
".....i.......i..",
"DooooEooooooou..",
"..DB.F..........",
"...o.......bb...",
"...D............"}
