/* XPM */
static char *graphic[] = {
"16 16 44 1",
". c None",
", c #525A8C",
"- c #9C7BD6",
"* c #4A527B",
"a c #9452C6",
"b c #4A4A7B",
"c c #7384F7",
"d c #ADC6E7",
"e c #FFFFFF",
"f c #C6DEFF",
"g c #E7CEFF",
"h c #CEE7FF",
"i c #DEC6FF",
"j c #524A7B",
"k c #5A6394",
"l c #7B8CFF",
"m c #737BEF",
"n c #525284",
"o c #A58CE7",
"p c #FFCEFF",
"q c #B5C6FF",
"r c #944AC6",
"s c #52639C",
"t c #DEEFFF",
"u c #D6EFFF",
"v c #A58CEF",
"w c #F7EFFF",
"x c #5A6BA5",
"y c #F7DEFF",
"z c #BD8C29",
"A c #7B4A00",
"B c #8494FF",
"C c #D6DEF7",
"D c #525A94",
"E c #BD6331",
"F c #FFDE00",
"G c #FFD600",
"H c #844A00",
"I c #636BA5",
"J c #9C8CE7",
"K c #5A639C",
"L c #FFE700",
"M c #FFFF00",
"N c #000000",
"...,-*ab........",
"..,cdef.b.......",
".,g..h..ij......",
"klh.h.h.hmn.....",
"op.....heqr.....",
"s.t...u.he*.....",
"v........ha.....",
"s.......hwn.....",
".xy.....g,zA....",
"..xBC.t.DEFGH...",
"...IJsJKzLMLGA..",
"........HGFMFGH.",
".........AGFMFGA",
"NNNNN.....HGFMFG",
"...........AGLMF",
"............HGLM"}
