/* XPM */
static char *graphic[] = {
"16 16 33 1",
". c None",
", c #FFFFFF",
"- c #F7FFFF",
"* c #E7F7FF",
"a c #F7F711",
"b c #F72513",
"c c #C7E7FF",
"d c #C6E7FF",
"e c #C6DFFF",
"f c #BFDEFF",
"g c #BDDFFF",
"h c #1552EF",
"i c #CFE7FF",
"j c #CEE7FF",
"k c #C7DFFF",
"l c #D6EFFF",
"m c #DEEFFF",
"n c #DFEFFF",
"o c #D7EFFF",
"p c #D7E7FF",
"q c #738796",
"r c #CEDEF7",
"s c #E7EFFF",
"t c #EFF7FF",
"u c #DEE7EF",
"v c #D6DEEF",
"w c #CFDFF7",
"x c #F7F7FF",
"y c #F7F7F7",
"z c #EFF7F7",
"A c #1143C6",
"B c #C6DEF7",
"C c #D6E7FF",
".,,,,,,,,,..--..",
",,******a****...",
",b***cdefg***h..",
"****ijicdkf****.",
"***lllajijcf***.",
"**lmnhoophjdf**.",
"qrns*snmmljicfq.",
"qqtutt**mnoacqq.",
"nqqqnnnnvnwqqqj.",
"nhnqqqqqqqqqnnj.",
"-x--yznnnnAnBjn.",
",,,,a,.-t*mnCmn.",
"*,*,,,.bt*mo*mo.",
"*tat,,,-t*nthnt.",
".....--ttsttst..",
"...*h.*..*..*..."}
