/* XPM */
static char *graphic[] = {
"16 16 11 1",
". c None",
", c #CFCFC7",
"- c #070707",
"* c #E7E7DF",
"a c #CECFC7",
"b c #CFCEC7",
"c c #C6C7C7",
"d c #060707",
"e c #FF0707",
"f c #E70707",
"g c #060607",
"...,--....,--...",
"...-*a-...-**-..",
"...--aba,,,-,--.",
"...-aba,,,,bc--.",
"...------d-dddd.",
"...-.........dd.",
"...-..e...f..dd.",
"...-.e.f.ff..dd.",
"...-...f..f..dd.",
"...d..f...f..dg.",
"...d.fff..f..gg.",
"...d.........gg.",
"...d.........gg.",
"...d.........gg.",
"...gggggggggggg.",
"................"}
