/* XPM */
static char *graphic[] = {
"16 16 20 1",
". c None",
", c #0000FF",
"- c #0C0CFF",
"* c #C6C6FF",
"a c #B5B5FF",
"b c #2929FF",
"c c #1414FF",
"d c #BDBDFF",
"e c #E7E7FF",
"f c #8C8CFF",
"g c #0404FF",
"h c #ADADFF",
"i c #3131FF",
"j c #2121FF",
"k c #DEDEFF",
"l c #5252FF",
"m c #1818FF",
"n c #0808FF",
"o c #CECEFF",
"p c #1C1CFF",
"................",
"................",
"................",
"................",
".,,-*..abcd.abcd",
".,efgh.b*hi.b*hi",
".,..hg.jf...jf..",
".,...,.klm..klm.",
".,..hg...*i...*i",
".,.hnh.boab.boab",
".,,gh..ajp*.ajp*",
"................",
"................",
"................",
"................",
"................"}
