/* XPM */
static char *graphic[] = {
"16 16 30 1",
". c None",
", c #000000",
"- c #DFDFDF",
"* c #B7B7B7",
"a c #F7F7F7",
"b c #FFFFFF",
"c c #A5A5A5",
"d c #777777",
"e c #B5B5B5",
"f c #AFAFAF",
"g c #BDBDBD",
"h c #ADADAD",
"i c #BFBFBF",
"j c #EFEFEF",
"k c #9D9D9D",
"l c #C6C6C6",
"m c #E7E7E7",
"n c #7F7F7F",
"o c #4F4F4F",
"p c #CFCFCF",
"q c #D7D7D7",
"r c #6B6B6B",
"s c #5E5E5E",
"t c #8D8D8D",
"u c #DEDEDE",
"v c #9C9C9C",
"w c #8C8C8C",
"x c #979797",
"y c #969696",
"z c #9F9F9F",
"................",
"................",
"...,,,.,........",
"..,..,.,........",
"..,...,.........",
"..,...,.........",
"..,..,,.,-*ab...",
"...,,,.,,cdeb...",
".........cffgbb.",
".........c*ahib.",
".........c*bjklb",
".........c*.mnop",
".........cfqldgj",
".........crsitub",
".........hvpwlxa",
".........bbayzkb"}
