/* XPM */
static char * twizardnotebook_xpm[] = {
"23 23 17 1",
" 	c None",
".	c #FFFFFF",
"+	c #080808",
"@	c #000000",
"#	c #C5C2C5",
"$	c #FFFAFF",
"%	c #F6F2F6",
"&	c #C5C6C5",
"*	c #838183",
"=	c #F6F6F6",
"-	c #FF0000",
";	c #7B7D7B",
">	c #8B898B",
",	c #737573",
"'	c #838583",
")	c #7B797B",
"!	c #000400",
"                       ",
"                       ",
"                       ",
"                       ",
"   ....+@@@@@@@@       ",
"   .###+###@###@       ",
"   .###+###@###@       ",
"  $.###%............@  ",
"  .###&############*@  ",
"  =#-#####-#-#----#*@  ",
"  .#-#####-######-#*@  ",
"  $#-##-##-#-###-##*@  ",
"  $#-##-##-#-##-###*@  ",
"  .##-#-#-##-#-####*@  ",
"  =###-#-###-#----#*@  ",
"  .################*@  ",
"  .;>,*');;;;;;;;>;>@  ",
"  @@@!@@@@@@@@@@@@@@#  ",
"                       ",
"                       ",
"                       ",
"                       ",
"                       "};
