<?xml version="1.0" encoding="UTF-8" standalone="no"?>
<svg
   xmlns:dc="http://purl.org/dc/elements/1.1/"
   xmlns:cc="http://creativecommons.org/ns#"
   xmlns:rdf="http://www.w3.org/1999/02/22-rdf-syntax-ns#"
   xmlns:svg="http://www.w3.org/2000/svg"
   xmlns="http://www.w3.org/2000/svg"
   xmlns:sodipodi="http://sodipodi.sourceforge.net/DTD/sodipodi-0.dtd"
   xmlns:inkscape="http://www.inkscape.org/namespaces/inkscape"
   viewBox="0 0 22 22"
   version="1.1"
   id="svg6"
   sodipodi:docname="animation-edit-time-units.svg"
   inkscape:version="0.92+devel unknown">
  <metadata
     id="metadata10">
    <rdf:RDF>
      <cc:Work
         rdf:about="">
        <dc:format>image/svg+xml</dc:format>
        <dc:type
           rdf:resource="http://purl.org/dc/dcmitype/StillImage" />
        <dc:title></dc:title>
      </cc:Work>
    </rdf:RDF>
  </metadata>
  <sodipodi:namedview
     pagecolor="#ffffff"
     bordercolor="#666666"
     inkscape:document-rotation="0"
     borderopacity="1"
     objecttolerance="10"
     gridtolerance="10"
     guidetolerance="10"
     inkscape:pageopacity="0"
     inkscape:pageshadow="2"
     inkscape:window-width="1920"
     inkscape:window-height="1016"
     id="namedview8"
     showgrid="true"
     inkscape:zoom="27.255752"
     inkscape:cx="11"
     inkscape:cy="11"
     inkscape:window-x="0"
     inkscape:window-y="0"
     inkscape:window-maximized="1"
     inkscape:current-layer="svg6">
    <inkscape:grid
       type="xygrid"
       id="grid4269" />
  </sodipodi:namedview>
  <defs
     id="defs3051">
    <style
       type="text/css"
       id="current-color-scheme">
      .ColorScheme-Text {
        color:#4d4d4d;
      }
      </style>
  </defs>
  <path
     style="fill:currentColor;fill-opacity:1;stroke:none"
     d="m 11,3 c -4.4319982,0 -8,3.568 -8,8 0,4.092537 3.0443284,7.441581 7,7.931641 V 17.921875 C 6.6006429,17.438059 4,14.537216 4,11 4,10.757625 4.0113433,10.519094 4.0351562,10.283203 4.3923512,6.7448366 7.3643762,4 11,4 c 3.877999,0 7,3.122 7,7 0,0.340784 -0.03151,0.672498 -0.07813,1 h 1.009766 C 18.97229,11.67189 19,11.339463 19,11 19,6.568 15.431998,3 11,3 Z m 0,2 v 6 H 6 v 1 h 6 V 5 Z"
     class="ColorScheme-Text"
     id="path4"
     inkscape:connector-curvature="0"
     sodipodi:nodetypes="ssccssssccssccccccc" />
  <path
     inkscape:connector-curvature="0"
     style="fill:#fdbc4b;fill-opacity:1;stroke:none"
     d="m 17,11.99606 -0.996094,0.994141 -0.0039,-0.0039 -5,4.998047 0.0078,0.0078 -0.0039,1.003912 H 11 v 0.990234 0.0098 h 2 l 0.0059,-0.0059 0.0039,-0.0039 c 0.004,-2e-5 0.0058,0.002 0.0098,0.002 L 13.0137,19.982394 14,18.996094 18,15 l -0.705078,-0.708984 -4.990234,4.986328 -0.59375,-0.591797 4.992187,-4.988281 0.591797,0.59375 L 18,14.994107 l 1,-1 z"
     id="path6" />
</svg>
