<?xml version="1.0" encoding="UTF-8" standalone="no"?>
<svg
   xmlns:dc="http://purl.org/dc/elements/1.1/"
   xmlns:cc="http://creativecommons.org/ns#"
   xmlns:rdf="http://www.w3.org/1999/02/22-rdf-syntax-ns#"
   xmlns:svg="http://www.w3.org/2000/svg"
   xmlns="http://www.w3.org/2000/svg"
   xmlns:sodipodi="http://sodipodi.sourceforge.net/DTD/sodipodi-0.dtd"
   xmlns:inkscape="http://www.inkscape.org/namespaces/inkscape"
   viewBox="0 0 22 22"
   version="1.1"
   id="svg6"
   sodipodi:docname="show-constellations-boundaries.svg"
   inkscape:version="0.92+devel unknown">
  <metadata
     id="metadata10">
    <rdf:RDF>
      <cc:Work
         rdf:about="">
        <dc:format>image/svg+xml</dc:format>
        <dc:type
           rdf:resource="http://purl.org/dc/dcmitype/StillImage" />
      </cc:Work>
    </rdf:RDF>
  </metadata>
  <sodipodi:namedview
     pagecolor="#ffffff"
     bordercolor="#666666"
     inkscape:document-rotation="0"
     borderopacity="1"
     objecttolerance="10"
     gridtolerance="10"
     guidetolerance="10"
     inkscape:pageopacity="0"
     inkscape:pageshadow="2"
     inkscape:window-width="1920"
     inkscape:window-height="1016"
     id="namedview8"
     showgrid="true"
     inkscape:snap-bbox="true"
     inkscape:bbox-nodes="true"
     inkscape:snap-nodes="false"
     inkscape:zoom="27.255752"
     inkscape:cx="11"
     inkscape:cy="11"
     inkscape:window-x="0"
     inkscape:window-y="0"
     inkscape:window-maximized="1"
     inkscape:current-layer="svg6">
    <inkscape:grid
       type="xygrid"
       id="grid4269" />
  </sodipodi:namedview>
  <defs
     id="defs3051">
    <style
       type="text/css"
       id="current-color-scheme">
      .ColorScheme-Text {
        color:#4d4d4d;
      }
      </style>
  </defs>
  <path
     style="fill:#3daee9;fill-opacity:1;stroke:none"
     d="M 8 3 A 5 5 0 0 1 7.9160156 3.8847656 A 5.0000172 5.0000172 0 0 1 7.8046875 4.3691406 A 5.0000172 5.0000172 0 0 1 7.8046875 4.3710938 A 5.0000172 5.0000172 0 0 1 7.6425781 4.8457031 A 5.0000172 5.0000172 0 0 1 7.6425781 4.8476562 A 5 5 0 0 1 5.0449219 7.5546875 A 5.0000172 5.0000172 0 0 1 4.5898438 7.734375 A 5.0000172 5.0000172 0 0 1 4.5800781 7.7382812 A 5 5 0 0 1 4.5683594 7.7421875 A 5.0000172 5.0000172 0 0 1 4.1132812 7.8691406 A 5.0000172 5.0000172 0 0 1 4.0976562 7.8730469 A 5 5 0 0 1 3 8 L 3 9 A 6.0000172 6.0000172 0 0 0 4.4140625 8.8242188 L 5.3652344 11.675781 C 4.599513 11.887324 3.8039853 11.99821 3 12 L 3 12.662109 C 4.6837004 12.662245 6.3324573 12.247824 7.8007812 11.474609 L 8.4707031 12.527344 L 9.0078125 13.369141 L 9.0078125 13.371094 A 12 12 0 0 0 9.8515625 12.835938 L 9.8476562 12.830078 C 11.92152 11.383472 13.540905 9.29091 14.375 6.7714844 L 16.529297 7.3867188 L 17.269531 7.6347656 C 17.744348 6.1595298 17.997494 4.5541806 18 3 L 17 3 C 16.996288 4.11636 16.845447 5.2622536 16.574219 6.359375 L 8.8808594 4.1601562 A 6.0000172 6.0000172 0 0 0 9 3 L 8 3 z M 8.609375 5.1230469 L 13.417969 6.4980469 C 12.653436 8.7774086 11.18735 10.673338 9.3125 11.990234 L 8.6640625 10.970703 L 8.2402344 10.302734 A 9 9 0 0 1 7.5410156 10.753906 C 7.1463651 10.986022 6.7333735 11.178486 6.3105469 11.347656 L 5.3652344 8.5117188 A 6.0000172 6.0000172 0 0 0 8.609375 5.1230469 z M 12.123047 10.789062 A 12 12 0 0 1 11.441406 11.521484 L 12.892578 12.869141 C 10.278577 15.492106 6.7303016 16.996928 3 17 L 3 18 C 7.0072239 17.993541 10.816243 16.368376 13.617188 13.541016 L 15.826172 15.59375 A 18 18 0 0 1 11.189453 19 L 13.208984 19 A 19 19 0 0 0 16.554688 16.271484 L 16.564453 16.279297 A 19 19 0 0 0 17.246094 15.546875 L 17.240234 15.542969 A 19 19 0 0 0 19 13.246094 L 19 11.207031 A 18 18 0 0 1 16.492188 14.847656 L 14.3125 12.822266 L 13.585938 12.148438 L 12.123047 10.789062 z "
     class="ColorScheme-Text"
     id="path4" />
  <circle
     style="fill:#4d4d4d;fill-opacity:1;stroke-width:1.5;stroke-linecap:round;paint-order:stroke fill markers"
     id="path4266"
     cx="14.5"
     cy="4.5"
     r="0.5" />
  <circle
     style="fill:#4d4d4d;fill-opacity:1;stroke-width:1.5;stroke-linecap:round;paint-order:stroke fill markers"
     id="path4266-3"
     cx="11.5"
     cy="7.5"
     r="0.5" />
  <circle
     style="fill:#4d4d4d;fill-opacity:1;stroke-width:1.5;stroke-linecap:round;paint-order:stroke fill markers"
     id="path4266-6"
     cx="8.5"
     cy="8.5"
     r="0.5" />
  <circle
     style="fill:#4d4d4d;fill-opacity:1;stroke-width:1.5;stroke-linecap:round;paint-order:stroke fill markers"
     id="path4266-7"
     cx="3.5"
     cy="15.5"
     r="0.5" />
  <circle
     style="fill:#4d4d4d;fill-opacity:1;stroke-width:1.5;stroke-linecap:round;paint-order:stroke fill markers"
     id="path4266-5"
     cx="6.5"
     cy="13.5"
     r="0.5" />
  <circle
     style="fill:#4d4d4d;fill-opacity:1;stroke-width:1.5;stroke-linecap:round;paint-order:stroke fill markers"
     id="path4266-35"
     cx="11.5"
     cy="17.5"
     r="0.5" />
  <circle
     style="fill:#4d4d4d;fill-opacity:1;stroke-width:1.5;stroke-linecap:round;paint-order:stroke fill markers"
     id="path4266-62"
     cx="16.5"
     cy="13.5"
     r="0.5" />
  <circle
     style="fill:#4d4d4d;fill-opacity:1;stroke-width:1.5;stroke-linecap:round;paint-order:stroke fill markers"
     id="path4266-9"
     cx="18.5"
     cy="7.5"
     r="0.5" />
  <circle
     style="fill:#4d4d4d;fill-opacity:1;stroke-width:1.5;stroke-linecap:round;paint-order:stroke fill markers"
     id="path4266-1"
     cx="15.5"
     cy="9.5"
     r="0.5" />
</svg>
