<?xml version="1.0" encoding="UTF-8" standalone="no"?>
<svg
   xmlns:dc="http://purl.org/dc/elements/1.1/"
   xmlns:cc="http://creativecommons.org/ns#"
   xmlns:rdf="http://www.w3.org/1999/02/22-rdf-syntax-ns#"
   xmlns:svg="http://www.w3.org/2000/svg"
   xmlns="http://www.w3.org/2000/svg"
   xmlns:sodipodi="http://sodipodi.sourceforge.net/DTD/sodipodi-0.dtd"
   xmlns:inkscape="http://www.inkscape.org/namespaces/inkscape"
   viewBox="0 0 22 22"
   version="1.1"
   id="svg6"
   sodipodi:docname="chart-style-parametric.svg"
   inkscape:version="0.92+devel unknown">
  <metadata
     id="metadata10">
    <rdf:RDF>
      <cc:Work
         rdf:about="">
        <dc:format>image/svg+xml</dc:format>
        <dc:type
           rdf:resource="http://purl.org/dc/dcmitype/StillImage" />
        <dc:title></dc:title>
      </cc:Work>
    </rdf:RDF>
  </metadata>
  <sodipodi:namedview
     pagecolor="#ffffff"
     bordercolor="#666666"
     inkscape:document-rotation="0"
     borderopacity="1"
     objecttolerance="10"
     gridtolerance="10"
     guidetolerance="10"
     inkscape:pageopacity="0"
     inkscape:pageshadow="2"
     inkscape:window-width="1920"
     inkscape:window-height="1016"
     id="namedview8"
     showgrid="true"
     inkscape:snap-bbox="true"
     inkscape:bbox-nodes="true"
     inkscape:snap-nodes="false"
     inkscape:zoom="27.255752"
     inkscape:cx="11"
     inkscape:cy="11"
     inkscape:window-x="0"
     inkscape:window-y="0"
     inkscape:window-maximized="1"
     inkscape:current-layer="svg6">
    <inkscape:grid
       type="xygrid"
       id="grid4269" />
  </sodipodi:namedview>
  <defs
     id="defs3051">
    <style
       type="text/css"
       id="current-color-scheme">
      .ColorScheme-Text {
        color:#4d4d4d;
      }
      </style>
  </defs>
  <path
     style="fill:currentColor;fill-opacity:1;stroke:none"
     d="m 11.001953,2 -7.34375,7.3125 -1.40625,1.4375 -0.25,0.25 v 4 h 1 2 1 l 0.25,-0.25 0.375,-0.34375 0.6875,-0.71875 0.375,-0.34375 L 14,7 15,6 Z M 10.408203,4 13,6.59375 8.720703,10.84375 6.158203,8.25 Z m -4.96875,4.96875 2.59375,2.59375 -0.71875,0.71875 -2.59375,-2.59375 0.28125,-0.28125 z m -1.40625,1.40625 2.59375,2.59375 -0.71875,0.71875 -2.59375,-2.59375 z"
     class="ColorScheme-Text"
     id="path4"
     inkscape:connector-curvature="0"
     sodipodi:nodetypes="ccccccccccccccccccccccccccccccc" />
  <path
     inkscape:connector-curvature="0"
     style="fill:currentColor;fill-opacity:1;stroke:none;stroke-width:1"
     d="m 10.995615,11 v 2.247071 h -0.74414 v 0.0074 h 0.74414 V 20 h 9 v -0.75 h -8.25 v -5.995606 h 3.351562 l -2.25,2.25 h -1.095702 v 0.75 h 1.40625 l 3.092285,-3.092284 1.592285,1.592284 0.0044,-0.0029 0.0029,0.0029 2.121094,-2.121093 c 0.0023,0.0038 -0.530273,-0.530274 -0.530273,-0.530274 l -1.59375,1.59375 -1.595216,-1.59375 -0.0015,0.0015 -0.0015,-0.0015 -1.145508,1.144044 H 11.745615 V 11 Z m 4.199707,5.25 -1.5,1.5 H 11.75001 v 0.75 h 2.25 v -0.0058 l 0.0059,0.0058 1.5,-1.5 h 1.193847 l 1.5,1.5 H 20 v -0.75 h -1.489746 l -1.5,-1.5 h -1.060545 z"
     class="ColorScheme-Text"
     id="path4-6" />
</svg>
