<?xml version="1.0" encoding="UTF-8" standalone="no"?>
<svg
   xmlns:dc="http://purl.org/dc/elements/1.1/"
   xmlns:cc="http://creativecommons.org/ns#"
   xmlns:rdf="http://www.w3.org/1999/02/22-rdf-syntax-ns#"
   xmlns:svg="http://www.w3.org/2000/svg"
   xmlns="http://www.w3.org/2000/svg"
   xmlns:sodipodi="http://sodipodi.sourceforge.net/DTD/sodipodi-0.dtd"
   xmlns:inkscape="http://www.inkscape.org/namespaces/inkscape"
   viewBox="0 0 22 22"
   version="1.1"
   id="svg6"
   sodipodi:docname="view-SAMP-setup.svg"
   inkscape:version="0.92+devel unknown">
  <metadata
     id="metadata10">
    <rdf:RDF>
      <cc:Work
         rdf:about="">
        <dc:format>image/svg+xml</dc:format>
        <dc:type
           rdf:resource="http://purl.org/dc/dcmitype/StillImage" />
        <dc:title />
      </cc:Work>
    </rdf:RDF>
  </metadata>
  <sodipodi:namedview
     pagecolor="#ffffff"
     bordercolor="#666666"
     inkscape:document-rotation="0"
     borderopacity="1"
     objecttolerance="10"
     gridtolerance="10"
     guidetolerance="10"
     inkscape:pageopacity="0"
     inkscape:pageshadow="2"
     inkscape:window-width="1920"
     inkscape:window-height="1016"
     id="namedview8"
     showgrid="true"
     inkscape:snap-bbox="true"
     inkscape:snap-bbox-edge-midpoints="false"
     inkscape:bbox-nodes="true"
     inkscape:zoom="27.255752"
     inkscape:cx="11"
     inkscape:cy="11"
     inkscape:window-x="0"
     inkscape:window-y="0"
     inkscape:window-maximized="1"
     inkscape:current-layer="svg6">
    <inkscape:grid
       type="xygrid"
       id="grid4269" />
  </sodipodi:namedview>
  <defs
     id="defs3051">
    <style
       type="text/css"
       id="current-color-scheme">
      .ColorScheme-Text {
        color:#4d4d4d;
      }
      </style>
  </defs>
  <path
     style="fill:currentColor;fill-opacity:1;stroke:none"
     d="m 16,3 c -1.104571,5.5e-6 -2,0.8954344 -2,2 0,1.1045656 0.895429,1.9999945 2,2 1.104571,-5.5e-6 2,-0.8954344 2,-2 C 18,3.8954344 17.104571,3.0000055 16,3 M 11.5,7 C 11.223858,7 11,7.2238576 11,7.5 11,7.7761424 11.223858,8 11.5,8 11.776142,8 12,7.7761424 12,7.5 12,7.2238576 11.776142,7 11.5,7 m -2,1 C 9.2238541,8 8.999995,8.2238591 9,8.5 8.999995,8.7761409 9.2238541,9 9.5,9 9.7761459,9 10.000005,8.7761409 10,8.5 10.000005,8.2238591 9.7761459,8 9.5,8 m 6.5,7 c -1.104571,6e-6 -2,0.895434 -2,2 0,1.104566 0.895429,1.999994 2,2 1.104571,-6e-6 2,-0.895434 2,-2 0,-1.104566 -0.895429,-1.999994 -2,-2"
     class="ColorScheme-Text"
     id="path4"
     inkscape:connector-curvature="0"
     sodipodi:nodetypes="cscsccssscccscccscsc" />
  <circle
     style="fill:#3daee9;fill-opacity:1;stroke:none;stroke-width:0.69999993;stroke-linecap:round;paint-order:stroke fill markers"
     id="path4273"
     cx="6"
     cy="11"
     r="2" />
  <path
     style="fill:currentColor;fill-opacity:1;stroke:none"
     d="m 13,9.996094 -0.996094,0.994141 h -0.0039 l -5,4.998047 0.0078,0.0098 -0.0039,1.003906 H 7 v 0.990235 0.0098 h 2 l 0.0059,-0.0098 H 9.0098 9.0196 L 9.0137,17.982423 10,16.996094 14,13 13.294922,12.291016 8.304688,17.277344 7.710938,16.685547 12.703125,11.697266 13.294922,12.291016 14,12.994141 l 1,-1 z"
     class="ColorScheme-Text"
     id="path4-3"
     inkscape:connector-curvature="0"
     sodipodi:nodetypes="cccccccccccccccccccccccc" />
</svg>
