/* XPM */
static char *a1[] = {
/* columns rows colors chars-per-pixel */
"8 16 32 1",
"  c #BABA5D5D3939",
". c #FFFF3A3A0505",
"X c #FFFF39390B0B",
"o c #FFFF38381111",
"O c #D7D753533939",
"+ c #E2E240400000",
"@ c #FFFF41411515",
"# c #FFFF42421D1D",
"$ c #FFFF4C4C2929",
"% c #FFFF51512F2F",
"& c #FFFF55553333",
"* c #F5F565653939",
"= c #F6F66F6F3939",
"- c #FFFF72723A3A",
"; c #FFFF6C6C5050",
": c #FFFF70704545",
"> c #FFFFA3A39191",
", c #FFFFA5A59393",
"< c #FFFFBCBCAFAF",
"1 c #FFFFBEBEB1B1",
"2 c #FFFFC6C6BBBB",
"3 c #FFFFCACABFBF",
"4 c #FFFFD3D3C7C7",
"5 c #FFFFD5D5CDCD",
"6 c #FFFFE1E1DBDB",
"7 c #FFFFE4E4DFDF",
"8 c #F5F5E8E8E3E3",
"9 c #F9F9E7E7E3E3",
"0 c #FFFFEEEEEBEB",
"q c #FFFFFCFCFBFB",
"w c gray100",
"e c None",
/* pixels */
"eeeeeeee",
"eeeeeeee",
"eO9eeeee",
"eo;eeeee",
"e&e:8eee",
"e&q4-eee",
"e%065=8e",
"e$753,*e",
"e#521>*e",
"e@31<*8e",
"eX1>*eee",
"e.<*8eee",
"e+*eeeee",
"e 8eeeee",
"eeeeeeee",
"eeeeeeee"
};
