/* XPM */
static char *graphic[] = {
"16 16 16 1",
". c None",
", c #B594EF",
"- c #6B6B9C",
"* c #B58CE7",
"a c #6B6BA5",
"b c #635A94",
"c c #5A5A94",
"d c #A57BD6",
"e c #D6DEFF",
"f c #FFDEFF",
"g c #A57BDE",
"h c #DEEFFF",
"i c #FFFFFF",
"j c #5A5A8C",
"k c #D6EFFF",
"l c #D6E7FF",
"..,-,-,-*a*b....",
"..-.......-.c...",
"..,.......*..b..",
"..-.......a...c.",
"..,.......dbdcd.",
"..-...........c.",
"..,..........ed.",
"..-...........c.",
"..*..........fg.",
"..a.......h.hij.",
"..*..........eg.",
"..a.....h.h.k.j.",
"..*........kifg.",
"..a.....k.k.l.j.",
"..*......k...eg.",
"..a,-,-,-*a-*aj."}
