/* XPM */
static char *graphic[] = {
"16 16 95 2",
".. c None",
"., c #E71008",
".- c #B54231",
".* c #F73973",
".a c #B53929",
".b c #F73929",
".c c #AD3121",
".d c #F7316B",
".e c #F73121",
".f c #AD2921",
".g c #A51008",
".h c #DEB594",
".i c #FF7352",
".j c #CE7B52",
".k c #FF7B5A",
".l c #CE7B5A",
".m c #FF845A",
".n c #CE845A",
".o c #FF8C63",
".p c #CE8C63",
".q c #FFA5BD",
".r c #A52118",
".s c #FFB594",
".t c #FF4218",
".u c #FF5231",
".v c #FF7B31",
".w c #BD5A39",
".x c #FF847B",
".y c #FF9473",
".z c #FFB5BD",
".A c #C66B42",
".B c #FF948C",
".C c #FF734A",
".D c #FF9C94",
".E c #FFC6BD",
".F c #BD5229",
".G c #FF6339",
".H c #C66B4A",
".I c #FFF7FF",
".J c #FFFFFF",
".K c #F7D6C6",
".L c #FF8463",
".M c #C67B52",
".N c #D6946B",
".O c #EF2918",
".P c #FF7B52",
".Q c #FFA58C",
".R c #FFD6DE",
".S c #FFADAD",
".T c #FFB5AD",
".U c #AD2110",
".V c #AD3929",
".W c #BD5A31",
".X c #FFCEDE",
".Y c #E7B59C",
".Z c #F7CEBD",
".0 c #EF2110",
".1 c #FF9C9C",
".2 c #FF9494",
".3 c #FFA59C",
".4 c #FFBDB5",
".5 c #D69473",
".6 c #DE9C7B",
".7 c #C6734A",
".8 c #FFF7E7",
".9 c #FFE7F7",
".@ c #FFA584",
".# c #D69C73",
".; c #FFBDC6",
".: c #FFADA5",
".= c #FFCEB5",
".+ c #FFAD94",
".% c #A51808",
".$ c #FFF7EF",
".( c #FF9CBD",
".) c #D69C7B",
".[ c #E71808",
".] c #CE8C5A",
",. c #FFE7FF",
",, c #D69C84",
",- c #FFC6C6",
",* c #FF8C6B",
",a c #DEA584",
",b c #FFCECE",
",c c #A51800",
",d c #A51000",
",e c #FFCEBD",
",f c #CE946B",
",g c #DEAD8C",
",h c #FFEFF7",
",i c #AD2918",
",j c #FF946B",
",k c #FF9C73",
",l c #FFA57B",
",m c #A52110",
".....,.-.*.a.b.c.d.c.e.f.d.g....",
"...b.h.i.j.k.l.m.n.m.n.o.p.q.r..",
".,.s.t.u.v.w.x.y.z.A.B.C.D.j.E.g",
".a.k.F.G.H.I.J.J.J.J.K.L.M.m.N.O",
".*.P.v.H.J.J.J.Q.R.I.J.J.S.m.T.U",
".V.k.W.I.J.X.A.I.J.P.Y.J.Z.o.N.0",
".b.l.1.J.J.H.2.I.J.j.3.I.J.p.4.U",
".c.m.5.J.6.C.7.J.8.m.n.9.J.@.#.0",
".d.m.z.J.;.i.D.I.J.m.:.=.J.+.E.%",
".c.m.n.J.J.P.M.J.$.L.p.J.J.(.).[",
".e.].B.I.J.@.3,..I.p.9.J.J,,,-.%",
".f.o.7,*.J.J.J.R.Y.J.J.J,a.@,a.[",
".d.o.D.j.S.J.J.J.J.J.J.@,-.+,b,c",
",d,e.M.m.n.o,f.R.Y.(.).@,g,h.M.,",
"..,i.E,j.T.N.4,k.E,l,-.@.R.j.,..",
"....,d.O,m.0,m.0.%.[.%.[,d.,...."}
