/* XPM */
static char *graphic[] = {
"16 16 42 1",
". c None",
", c #9484CE",
"- c #6B6B9C",
"* c #947BC6",
"a c #6B6BA5",
"b c #5A5A94",
"c c #000000",
"d c #7B7B84",
"e c #63317B",
"f c #AD94AD",
"g c #846BB5",
"h c #635A94",
"i c #C69CC6",
"j c #9C9C9C",
"k c #BD8CBD",
"l c #8C8C8C",
"m c #B58CB5",
"n c #525252",
"o c #7B7B7B",
"p c #FFF7FF",
"q c #FFEFFF",
"r c #FFFFFF",
"s c #636363",
"t c #42424A",
"u c #FFDEFF",
"v c #212121",
"w c #848484",
"x c #E7E7E7",
"y c #9C6B9C",
"z c #4A424A",
"A c #393939",
"B c #4A4A52",
"C c #313131",
"D c #D6DEFF",
"E c #C6C6C6",
"F c #424242",
"G c #DEEFFF",
"H c #F7DEFF",
"I c #211829",
"J c #393942",
"K c #D6EFFF",
"L c #D6E7FF",
"....,-,-*a*a*b..",
"....-.......a.b.",
"....,.......*..b",
"....-.......-..*",
"cccdedfd....gbgh",
"cijklmlln.......",
"copqmjrrst.....u",
"cvwrxxryzAB.....",
"ccCrpprvccv....D",
"ccEpFsrrcv..G.Gp",
"cccCCccFc......H",
"ccccIJJJ..G.G.Kp",
"....*......K...D",
"....a...G.G.K...",
"....*........L.H",
"....a-,-*a*a**a*"}
