/* XPM */
static char *graphic[] = {
"16 16 18 1",
". c None",
", c #5252B5",
"- c #525284",
"* c #52528C",
"a c #5252AD",
"b c #7B52AD",
"c c #5A528C",
"d c #DEDEFF",
"e c #DEEFFF",
"f c #7B52B5",
"g c #D6EFFF",
"h c #D6DEFF",
"i c #CEE7FF",
"j c #FFEFFF",
"k c #5A52B5",
"l c #D6E7FF",
"m c #CED6FF",
"n c #FFDEFF",
"................",
".,---,--*a--*a--",
".-......b......c",
".-......-.....da",
".-......b......c",
".,......*.....d-",
".-......b......c",
".-......-...e.da",
".*......f......-",
".a......-.e.g.hc",
".-......b....ij-",
".-......-.g.i.hk",
".*......f..i...-",
".a....e.-.l.i.mc",
".-.n....bh...m.-",
".-cac-ca-c-k-c-k"}
