/* XPM */
static char *graphic[] = {
"16 16 7 1",
". c None",
", c #000084",
"- c #4242FF",
"* c #5A9CDE",
"a c #B5D6FF",
"b c #0000C6",
"c c #D6E7FF",
".....,..........",
"....,-..........",
"...,**----......",
"..,**aaaa*-*....",
"..b*aaacca*-*...",
"...b**---cc*-...",
"....b-...-cc*-..",
".....b....-ca-..",
"..........-cc-..",
"..........-cc-..",
"..........-ca-..",
".........-cc*-..",
".....----cca-...",
".....-cccca-*...",
".....-cca*-*....",
".....-----......"}
