/* XPM */
static char *graphic[] = {
"16 16 20 1",
". c None",
", c #FFFFFF",
"- c #F7FFFF",
"* c #EFF7FF",
"a c #E7F7FF",
"b c #F7F7FF",
"c c #8484C6",
"d c #7373BD",
"e c #000084",
"f c #18188C",
"g c #080884",
"h c #D6E7F7",
"i c #000884",
"j c #D6EFFF",
"k c #DEE7FF",
"l c #DEEFFF",
"m c #6B6BBD",
"n c #D6E7FF",
"o c #CEE7FF",
"p c #CEDEFF",
".,,,,,,,,,,,,-*,",
".,,,,,,--,,,,,,,",
".,,,,,--,,,,,,,,",
".,,,,--,,,,-*,,a",
".,,,-bc,,dedaeaa",
".,-*-fe,*ghiaeaa",
".-*-,be*aeaeaaaa",
".*-,,,eaaeaeaaaa",
".-,,,*eaaeaeaaaj",
".,***aeaaikiaajj",
".*laaaeaamemajjn",
".laaaaaaaaajjjno",
".alalalaaajjjnoo",
".alalalajjjjnoop",
".kjjjjjjjjjnoopp",
".ljjjjjjjjpppppp"}
