/* XPM */
static char *graphic[] = {
"16 16 3 1",
". c None",
", c #000000",
"- c #5A6BFF",
"................",
"................",
"..,,,,,,,,,,,,..",
"..,,,,,,,,,,,-..",
"..,,,,,,,,,,--..",
"..,,,,,,,,,---..",
"..,,,,,,,,----..",
"..,,,,,,,-----..",
"..,,,,,,------..",
"..,,,,,-------..",
"..,,,,--------..",
"..,,,---------..",
"..,,----------..",
"..,-----------..",
"................",
"................"}
