/* XPM */
static char *graphic[] = {
"16 16 102 2",
".. c #525284",
"., c #CE6B73",
".- c #BD3939",
".* c #94314A",
".a c #6394BD",
".b c #42A5D6",
".c c #5294C6",
".d c #C6D6D6",
".e c #A5C69C",
".f c #7B9C84",
".g c #CED6DE",
".h c #E7EFF7",
".i c None",
".j c #F7B5AD",
".k c #EF635A",
".l c #AD1829",
".m c #84C6E7",
".n c #5AADDE",
".o c #316BA5",
".p c #63848C",
".q c #C6DEBD",
".r c #528C52",
".s c #294242",
".t c #424252",
".u c #EF6B5A",
".v c #D63129",
".w c #9C1829",
".x c #4AA5D6",
".y c #3194D6",
".z c #29427B",
".A c #73848C",
".B c #8CBD7B",
".C c #398442",
".D c #394A4A",
".E c #312931",
".F c #6363CE",
".G c #E73929",
".H c #BD2121",
".I c #BD637B",
".J c #6BB5DE",
".K c #298CC6",
".L c #424A84",
".M c #848C84",
".N c #5AA54A",
".O c #316B39",
".P c #52525A",
".Q c #423142",
".R c #DE3929",
".S c #B51821",
".T c #D6BDC6",
".U c #8CC6E7",
".V c #3173AD",
".W c #636394",
".X c #7B8C7B",
".Y c #528C4A",
".Z c #315A42",
".0 c #6B5A6B",
".1 c #393139",
".2 c #DE636B",
".3 c #BD3942",
".4 c #E7D6DE",
".5 c #CED6E7",
".6 c #526B9C",
".7 c #A594AD",
".8 c #A58CA5",
".9 c #526363",
".@ c #7B637B",
".# c #DE6B73",
".; c #D67373",
".: c #EFEFEF",
".= c #DED6E7",
".+ c #A59CBD",
".% c #C6B5C6",
".$ c #AD9CB5",
".( c #947B94",
".) c #847384",
".[ c #7B6B7B",
".] c #DE5252",
",. c #E7ADB5",
",, c #EFE7EF",
",- c #DED6DE",
",* c #CEBDCE",
",a c #B5A5B5",
",b c #A594A5",
",c c #8C7B8C",
",d c #312939",
",e c #844A52",
",f c #A58C94",
",g c #BDA5BD",
",h c #9C8C9C",
",i c #635263",
",j c #524A52",
",k c #211821",
",l c #6B4A52",
",m c #846B7B",
",n c #948494",
",o c #84738C",
",p c #736373",
",q c #5A4A5A",
",r c #524252",
",s c #8C94A5",
",t c #0000C6",
"................................",
".,.-.*.a.b.c.d.e.f.g.h.i.i...i..",
".j.k.l.m.n.o.p.q.r.s.t.i.i......",
".u.v.w.x.y.z.A.B.C.D.E.i.i...F..",
".G.H.I.J.K.L.M.N.O.P.Q.i.i...F..",
".R.S.T.U.V.W.X.Y.Z.0.1.i.i...F..",
".2.3.4.5.6.7.8.9.0.@.1.i.i...F..",
".#.;.:.=.+.%.$.(.).[.1.i.i...F..",
".],.,,,-,*.%,a,b,c.[,d.....F.F..",
",e,f,g.%,a,h,c.[,i,j,k.F.F.F.F..",
",l,m,c,n,o.[,p,i,q,r,s.i.i,t.F..",
"...F,t.:.F.F.i.i.i.i.i.i.i,t.F..",
"...F,t.:.F.F.i.i.i.i.i.i.i,t.F..",
"...F,t.:.F.F.i.i.i.i.i.i.i,t.F..",
"...F,t.:.F.F.i.i.i.i.i.i.i,t.F..",
".i.............................i"}
