/* XPM */
static char *graphic[] = {
"16 16 9 1",
". c None",
", c #3942DE",
"- c #BDC6F7",
"* c #525ADE",
"a c #7B84E7",
"b c #C6CEF7",
"c c #737BE7",
"d c #ADBDF7",
"e c #B5C6F7",
"................",
"................",
"................",
".....,,,,,,-....",
".....,*aaaab....",
".....,a.........",
".....,*aaac.....",
".....,,,,,,.....",
".....,a.........",
".....,c.........",
".....,,,,,,d....",
".....cccccce....",
"................",
"................",
"................",
"................"}
