/* XPM */
static char *graphic[] = {
"16 16 10 1",
". c None",
", c #3942DE",
"- c #525ADE",
"* c #7B84E7",
"a c #737BE7",
"b c #9CA5EF",
"c c #8C94EF",
"d c #636BE7",
"e c #848CEF",
"f c #6B7BE7",
"................",
"................",
"................",
"................",
".....,-...*,....",
".....,,*..*,....",
".....,,,..a,....",
".....,*--.a,....",
".....,*.,ba,....",
".....,a.c,d,....",
".....,a..-,,....",
".....,a..b,,....",
".....ab...ef....",
"................",
"................",
"................"}
