/* XPM */
static char *graphic[] = {
"16 16 4 1",
". c None",
", c #0063CE",
"- c #0052BD",
"* c #0042AD",
"..........,,,...",
".........,..,...",
"........,...,...",
".......,....-...",
"......,.....*...",
".....,......*...",
"....,.......*...",
"...,........*...",
"...,........*...",
"....,.......*...",
".....-......*...",
"......*.....*...",
".......*....*...",
"........*...*...",
".........*..*...",
"..........***..."}
