/* XPM */
static char *graphic[] = {
"16 16 6 1",
". c None",
", c #B57B00",
"- c #AD7300",
"* c #A56B00",
"a c #00319C",
"b c #313163",
"................",
"................",
"................",
"...,-*.a..bbbb..",
"................",
"................",
"...,-*.a..bbbb..",
"................",
"................",
"...,-*.a..bbbb..",
"................",
"................",
"...,-*.a..bbbb..",
"................",
"................",
"................"}
