/* XPM */
static char *graphic[] = {
"16 16 128 2",
".. c #52524F",
"., c None",
".- c #33332D",
".* c #FFFFFF",
".a c #2B2B25",
".b c #393933",
".c c #7F7F7B",
".d c #FF8D37",
".e c #E72900",
".f c #E7BD6F",
".g c #5B5B57",
".h c #D6D6D7",
".i c #393733",
".j c #E75300",
".k c #E77B00",
".l c #E76700",
".m c #000000",
".n c #1E1E18",
".o c #272721",
".p c #13120D",
".q c #E7951B",
".r c #E74600",
".s c #E79725",
".t c #6F6F67",
".u c #B78D4F",
".v c #B7873B",
".w c #D7D6CE",
".x c #E7EFCE",
".y c #CFDFFF",
".z c #D79C1D",
".A c #D7941D",
".B c #7F6731",
".C c #F7E7C7",
".D c #7B7B7B",
".E c #A76B1D",
".F c #8F5B1D",
".G c #C7841D",
".H c #2B2B1D",
".I c #945F27",
".J c #E7D6AD",
".K c #D7D7D6",
".L c #272521",
".M c #A7A7A7",
".N c #0A0904",
".O c #959596",
".P c #BD7F1D",
".Q c #AD6F1D",
".R c #BF7B1D",
".S c #A79D1D",
".T c #CFAF23",
".U c #955E1D",
".V c #86521F",
".W c #D6B57B",
".X c #BD8635",
".Y c #E7C784",
".Z c #D7BF94",
".0 c #CF8E1D",
".1 c #BF7F1D",
".2 c #9F5F1D",
".3 c #6B6B1D",
".4 c #CFD627",
".5 c #F7D62B",
".6 c #A56F1E",
".7 c #7F4B1D",
".8 c #A77723",
".9 c #975B1D",
".@ c #D6B567",
".# c #B57F21",
".; c #676721",
".: c #C77F1D",
".= c #CF951D",
".+ c #DEBF27",
".% c #FFDE35",
".$ c #BD8721",
".( c #7F4A1D",
".) c #73421D",
".[ c #292723",
".] c #A5A59E",
",. c #D7E7E7",
",, c #191915",
",- c #96968F",
",* c #CED76F",
",a c #CFCE3B",
",b c #B77F2B",
",c c #B7731D",
",d c #5A8C1D",
",e c #B7B721",
",f c #E7DF33",
",g c #D6A525",
",h c #7F4E1D",
",i c #BFBFBD",
",j c #B7B5AF",
",k c #C6C6C7",
",l c #CFDFA7",
",m c #CFD63F",
",n c #BF8D2F",
",o c #8E5E1D",
",p c #737F1D",
",q c #AD9C1E",
",r c #E7CF2B",
",s c #D6941D",
",t c #E7EFAD",
",u c #C78623",
",v c #C6462F",
",w c #875F1E",
",x c #8F6F1D",
",y c #AF6F1D",
",z c #E7CE97",
",A c #874F1D",
",B c #A5631D",
",C c #D64729",
",D c #856725",
",E c #7B4B1D",
",F c #C69F5E",
",G c #D7D6A7",
",H c #8F521D",
",I c #8E531D",
",J c #A7671D",
",K c #D7675B",
",L c #BD426B",
",M c #C79C73",
",N c #AF854A",
",O c #94531D",
",P c #874A1D",
",Q c #B57727",
",R c #D7D79C",
",S c #D7AF85",
",T c #DEEF84",
"...,.,.-.*.,.-.,.,.,.a.,.,.,.,.,",
".,.,.,.,.,.,.,.b.,.,.c.,.,.,.,.,",
".,.,.d.e.f.,.,.g.,.,.h.,.,.,.,.,",
".i.,.j.k.l.,.-.m.n.o.p.,.,.,.,.,",
".*.,.q.r.s.,.,.t.u.v.w.,.,.,.,.,",
".,.,.,.,.,.,.x.y.z.A.B.C.,.,.,.,",
".D.,.,.-.,.,.,.E.F.G.H.I.J.,.,.,",
".K.L.M.N.O.,.P.Q.R.S.T.U.V.W.X.Y",
".,.,.,.p.,.Z.0.1.2.3.4.5.6.7.8.9",
".,.,.,.o.,.,.@.#.;.:.=.+.%.$.(.)",
".[.],.,,.,,-.,,*,a,b,c,d,e,f,g,h",
".,.,,i,j,k.,.,.,,l,m,n,o,p,q,r,s",
".,.,.,.,.,.,.,.,.,,t,u,v,w,x,y.A",
".,.,.,.,.,.,.,.,.,,z,A,B,C,D,E,F",
".,.,.,.,.,.,.,.,.,,G,H,I,J,K,L,M",
".,.,.,.,.,.,.,.,.,,N,O,P,Q,R,S,T"}
