/* XPM */
static char *graphic[] = {
"16 16 37 1",
". c None",
", c #B7BDFF",
"- c #8E97FF",
"* c #7B84FF",
"a c #8D96FF",
"b c #BDBFFF",
"c c #6F7BF7",
"d c #3142F7",
"e c #2133F7",
"f c #3746F7",
"g c #7784FF",
"h c #C7C7FF",
"i c #979FFF",
"j c #394AF7",
"k c #0C21F7",
"l c #071BF7",
"m c #0E23F7",
"n c #4253F7",
"o c #A7AFFF",
"p c #8D95FF",
"q c #2D3DF7",
"r c #081CF7",
"s c #091DF7",
"t c #3547F7",
"u c #9EA7FF",
"v c #A5ADFF",
"w c #4657F7",
"x c #1427F7",
"y c #0B1FF7",
"z c #1629F7",
"A c #535FF7",
"B c #ADB7FF",
"C c #8795FF",
"D c #4F5FF7",
"E c #3D4EF7",
"F c #5663F7",
"G c #949CFF",
"................",
"................",
"................",
"................",
".....,-*ab......",
"....bcdefgh.....",
"....ijklmno.....",
"....pqrlstu.....",
"....vwxyzAB.....",
".....CDEFG......",
"................",
"................",
"................",
"................",
"................",
"................"}
