/* XPM */
static char *graphic[] = {
"16 16 13 1",
". c None",
", c #FF5684",
"- c #FF1F56",
"* c #FF0F4A",
"a c #FF2157",
"b c #FF4F7B",
"c c #FF7F9F",
"d c #FF0F4B",
"e c #FF0442",
"f c #FF7394",
"g c #FF426F",
"h c #FF134F",
"i c #FF255B",
"................",
"................",
"................",
"................",
"................",
"................",
".....,-*ab......",
"....cdeeeef.....",
".....g-hib......",
"................",
"................",
"................",
"................",
"................",
"................",
"................"}
