/* XPM */
static char *graphic[] = {
"16 16 10 1",
". c None",
", c #FF778C",
"- c #FF6B84",
"* c #FF6B85",
"a c #FF96A7",
"b c #FF022B",
"c c #FF7B8E",
"d c #FF8D9D",
"e c #FF7B8F",
"f c #FF6F84",
"................",
"................",
"................",
"................",
"................",
"................",
"......,-*.......",
".....abbbc......",
"......def.......",
"................",
"................",
"................",
"................",
"................",
"................",
"................"}
