/* XPM */
static char *graphic[] = {
"16 16 35 1",
". c None",
", c #BDBDBD",
"- c #777777",
"* c #131313",
"a c #ADADAD",
"b c #678F8E",
"c c #001C1F",
"d c #476F73",
"e c #676767",
"f c #6B8D94",
"g c #021E21",
"h c #4B6F77",
"i c #D6CFDE",
"j c #E7E7E7",
"k c #858585",
"l c #8C8E9F",
"m c #AFAFBD",
"n c #BFBFBF",
"o c #050505",
"p c #121212",
"q c #CFCFCF",
"r c #5A5A5A",
"s c #21212B",
"t c #000001",
"u c #7F7F85",
"v c #08080C",
"w c #000000",
"x c #56565E",
"y c #A5A5AD",
"z c #63636B",
"A c #DFDFE7",
"B c #858584",
"C c #161619",
"D c #949496",
"E c #292929",
"................",
"....,...........",
"...-*a.......bcd",
"....e........fgh",
".ij.....-k......",
".lm....nopq.....",
"........re......",
"................",
"................",
"................",
"................",
".........stu....",
".........vwx....",
".........yzA....",
"............BCa.",
"............DE,."}
