/* XPM */
static char *graphic[] = {
"16 16 24 1",
". c #737373",
", c #FFFFFF",
"- c #7F7F7F",
"* c None",
"a c #777777",
"b c #DEDEDE",
"c c #AFAFAF",
"d c #A5A5A5",
"e c #B5B5B5",
"f c #DFDFDF",
"g c #848484",
"h c #868686",
"i c #8E8E8E",
"j c #D6D6D6",
"k c #9D9D9D",
"l c #E7E7E7",
"m c #7B7B7B",
"n c #C7C7C7",
"o c #CECECE",
"p c #858585",
"q c #ADADAD",
"r c #BFBFBF",
"s c #949494",
"t c #BDBDBD",
"..,....-********",
"...,...ab*******",
"...,....c*******",
"d...,...e*******",
"f...,....b******",
"*g...,h..i******",
"*j....,k..l*****",
"**m...,-..******",
"**b...a,..mn****",
"***o...p,...o***",
"****b...,q...q**",
"*****r..s,qm..**",
"******...,tfdj**",
"******j...,io***",
"******j....,at**",
"******o....,..hn"}
