/* XPM */
static char *graphic[] = {
"16 16 66 1",
". c None",
", c #A7A5C7",
"- c #9D9FBF",
"* c #D6D7E7",
"a c #A7A7C7",
"b c #D7DEEF",
"c c #ADB5CE",
"d c #8D8EB7",
"e c #969EBF",
"f c #CECFDF",
"g c #B5B5D6",
"h c #BDBFD7",
"i c #9E9CBF",
"j c #5E5B8F",
"k c #B5B7D7",
"l c #A7AFCE",
"m c #D7E7F7",
"n c #A7ADD6",
"o c #5E5F95",
"p c #0000C6",
"q c #7F84E7",
"r c #1D1ECE",
"s c #6F77E7",
"t c #8C94E7",
"u c #7F8CE7",
"v c #AFAFCF",
"w c #2F33CF",
"x c #777FE7",
"y c #1A1CC7",
"z c #0404C7",
"A c #959CC7",
"B c #A5A5C7",
"C c #7B84C6",
"D c #777BAF",
"E c #AFB5D7",
"F c #2D31CF",
"G c #1C1EC7",
"H c #1D21C6",
"I c #3335CF",
"J c #676BCF",
"K c #6B73E7",
"L c #848CE7",
"M c #0E0FC6",
"N c #1E21CE",
"O c #0F10C7",
"P c #969CBF",
"Q c #A5ADCE",
"R c #7B7FAF",
"S c #C7D7EF",
"T c #B5C7E7",
"U c #7F85B5",
"V c #7373AF",
"W c #4E4FD6",
"X c #9496BD",
"Y c #858EB5",
"Z c #9DA5C6",
"0 c #A5AFCF",
"1 c #9DA7CE",
"2 c #7B7FAD",
"3 c #8585B5",
"4 c #969DC6",
"5 c #BFCFE7",
"6 c #5B5A8C",
"7 c #B7BDE7",
"8 c #777BAD",
"9 c #A5A7D6",
".........,-*....",
".a.......bcde*..",
".fa......gg.hdij",
"..fak..l.....mno",
"..pppppp..qrprs.",
"..pppppp.tpppppu",
"..ppv.l..wpx.qpy",
"..pppppp.zp..App",
".Bpppppp.zp.CDpz",
".Epp.....FpxGHpI",
"..pppppp.JpppppK",
"..pppppp..LypMNO",
".PQRS....l..TUVW",
".Q.XY.Z0......12",
"....34l5.......6",
"....789........."}
