/* XPM */
static char *graphic[] = {
"16 16 73 1",
". c None",
", c #A7A5C7",
"- c #9D9FBF",
"* c #D6D7E7",
"a c #A7A7C7",
"b c #D7DEEF",
"c c #ADB5CE",
"d c #8D8EB7",
"e c #969EBF",
"f c #CECFDF",
"g c #B5B5D6",
"h c #BDBFD7",
"i c #9E9CBF",
"j c #5E5B8F",
"k c #B5B7D7",
"l c #E7E7F7",
"m c #A7AFCE",
"n c #D7E7F7",
"o c #A7ADD6",
"p c #5E5F95",
"q c #191AC6",
"r c #0000C6",
"s c #2527CE",
"t c #A7AFEF",
"u c #A5AFEF",
"v c #A5A5C7",
"w c #3335C6",
"x c #393BC7",
"y c #4A4ED6",
"z c #5B5EDE",
"A c #6F6FAD",
"B c #191AC7",
"C c #9EA7CE",
"D c #191BC7",
"E c #0404C7",
"F c #CED6F7",
"G c #4346C6",
"H c #3333A7",
"I c #AFB5D7",
"J c #5E63D7",
"K c #777FE7",
"L c #7B85E7",
"M c #6B73DE",
"N c #565AC7",
"O c #5256D7",
"P c #1213C7",
"Q c #1113C7",
"R c #858CE7",
"S c #535BD7",
"T c #8F97E7",
"U c #979FEF",
"V c #1E1FC6",
"W c #ADBDF7",
"X c #2F31CF",
"Y c #969CBF",
"Z c #A5ADCE",
"0 c #7B7FAF",
"1 c #B5C7E7",
"2 c #7F85B5",
"3 c #7B7FAD",
"4 c #C7CEF7",
"5 c #9496BD",
"6 c #858EB5",
"7 c #9DA5C6",
"8 c #A5AFCF",
"9 c #9DA7CE",
"@ c #8585B5",
"# c #969DC6",
"; c #BFCFE7",
": c #5B5A8C",
"= c #B7BDE7",
"+ c #777BAD",
"% c #A5A7D6",
".........,-*....",
".a.......bcde*..",
".fa......gg.hdij",
"..fakl.m.....nop",
"...faqrs...rrrrr",
"....trrru..rrrrr",
"...vwrxry.....zr",
"..vArBCDEFm..GrH",
".vIJrKmLrMm.NrO.",
".I.PrrrrrQCRrS..",
"..TrrrrrrrUrrrrr",
"..VrW...urXrrrrr",
".YZ0.....m..1234",
".Z.56.78......93",
"....@#m;.......:",
"....=+%........."}
