/* XPM */
static char *graphic[] = {
"16 16 71 1",
". c None",
", c #A7A5C7",
"- c #9D9FBF",
"* c #D6D7E7",
"a c #A7A7C7",
"b c #D7DEEF",
"c c #ADB5CE",
"d c #8D8EB7",
"e c #969EBF",
"f c #CECFDF",
"g c #B5B5D6",
"h c #BDBFD7",
"i c #9E9CBF",
"j c #5E5B8F",
"k c #B5B7D7",
"l c #E7E7F7",
"m c #A7AFCE",
"n c #A7ADD6",
"o c #5E5F95",
"p c #7F85D7",
"q c #2123CF",
"r c #0000C6",
"s c #0708C6",
"t c #4B4FD7",
"u c #9F9FE7",
"v c #575BDE",
"w c #A5A5C7",
"x c #2325C7",
"y c #5356C7",
"z c #9EA7EF",
"A c #191BC7",
"B c #565BDE",
"C c #CFD7FF",
"D c #9DA5C7",
"E c #7F7FAF",
"F c #0303C7",
"G c #9EA7CE",
"H c #9FA5CF",
"I c #5B5A8C",
"J c #AFB5D7",
"K c #CED6E7",
"L c #0404C7",
"M c #B5BDE7",
"N c #2F31CF",
"O c #777FE7",
"P c #B7C7F7",
"Q c #CFDFFF",
"R c #979FEF",
"S c #1D1ECE",
"T c #969CBF",
"U c #BFC6DF",
"V c #7F84E7",
"W c #0E0FC6",
"X c #5B5FDF",
"Y c #C7CEF7",
"Z c #A5ADCE",
"0 c #7B7FAF",
"1 c #B5C7E7",
"2 c #7F85B5",
"3 c #7B7FAD",
"4 c #9496BD",
"5 c #858EB5",
"6 c #9DA5C6",
"7 c #A5AFCF",
"8 c #9DA7CE",
"9 c #8585B5",
"@ c #969DC6",
"# c #BFCFE7",
"; c #B7BDE7",
": c #777BAD",
"= c #A5A7D6",
".........,-*....",
".a.......bcde*..",
".fa......gg.hdij",
"..fakl.m......no",
"...fapqrst..rr..",
"....urrrrrv.rr..",
"...wxry.zAB.rrCD",
"..wEFrG...m.rrHI",
".wJKLrG.rrr.rrM.",
".J..NrO.Prr.rrQ.",
"....RrrrrrS.rrmQ",
"..TU.VSrWX..rrYm",
".TZ0.....m..123Y",
".Z.45.67......83",
"....9@m#.......I",
"....;:=........."}
