/* XPM */
static char *graphic[] = {
"16 16 22 1",
". c None",
", c #000000",
"- c #CFCFC6",
"* c #CECFC6",
"a c #7F7F7F",
"b c #7B7F7F",
"c c #BDC6C6",
"d c #737B7F",
"e c #777B7F",
"f c #E7F7FF",
"g c #6B777F",
"h c #7B7B7F",
"i c #6B6F7F",
"j c #AF0000",
"k c #9E0000",
"l c #00AD00",
"m c #0000BF",
"n c #9D0000",
"o c #9C0000",
"p c #00A700",
"q c #CEE700",
"r c #CFDF00",
"................",
".......,,,......",
"..,,..,--*,..,,.",
"..,,,,,,,,,,,,,.",
".,aaba,,,-cdddd,",
".,eaa,aaa,cdddd,",
".,aa,aa-fd,cddd,",
".,ab,aacdd,cddd,",
".,aa,adddd,cddg,",
".,had,did,cjdgg,",
".,dedd,,,dkjkgl,",
"..,,,,,,mnoknllp",
".......mmmknlllp",
"......mmmmmoqlpp",
".......mmm.qqrp.",
"........m.rrrrr."}
