/* XPM */
static char *graphic[] = {
"16 16 12 1",
". c None",
", c #0000FF",
"- c #00FFFF",
"* c #E7EFFF",
"a c #CFE7FF",
"b c #C7E7FF",
"c c #D7EFFF",
"d c #E7F7FF",
"e c #D6EFFF",
"f c #CEE7FF",
"g c #B7D7F7",
"h c #D6E7FF",
"................",
"......,,,,......",
".....,-...,.....",
"....,......,....",
"....,...-.-,....",
"....,......,....",
"....,......,....",
".....,..*.,.....",
"...,..,,,,.....a",
"..,,,.........ab",
".,......a,.,.,c,",
"..,....b,d,e,c,f",
"......gdddecchff",
".......,,,,,,,,,",
"................",
"................"}
