/* XPM */
static char *graphic[] = {
"16 16 31 1",
". c None",
", c #393939",
"- c #5E5E5E",
"* c #848484",
"a c #474747",
"b c #AFAFAF",
"c c #0E0E0E",
"d c #6F6F6F",
"e c #ADADAD",
"f c #000000",
"g c #4B4B4B",
"h c #979797",
"i c #575757",
"j c #8D8D8D",
"k c #3F3F3F",
"l c #858585",
"m c #737373",
"n c #565656",
"o c #57566B",
"p c #39375E",
"q c #7777B7",
"r c #423F4F",
"s c #333335",
"t c #1B1A23",
"u c #4E4A7B",
"v c #CFCFDE",
"w c #676767",
"x c #9C96D6",
"y c #252531",
"z c #969696",
"A c #121212",
"................",
"................",
"........,-......",
".......,*ab.....",
"........cd......",
".....,eefgehi...",
".....-jjfkjl*...",
"........fm......",
"........fm......",
"...n....fm...o..",
"...jp...fm..qr..",
"....stuvfwxytz..",
".....jiAff,-....",
"........fk......",
"................",
"................"}
