/* XPM */
static char * i85_xpm[] = {
"16 16 15 1",
" 	c None",
".	c #39A5CE",
"+	c #424242",
"@	c #D6EFFF",
"#	c #F69C06",
"$	c #F19C0C",
"%	c #47A4BE",
"&	c #EB9C11",
"*	c #7BA084",
"=	c #E89C16",
"-	c #FD9C00",
";	c #FFFFA5",
">	c #F99C03",
",	c #D5AA32",
"'	c #FF9C00",
"                ",
"       ...      ",
"     ..+.+..    ",
"    .@+.+.@@.   ",
"   .@@.+.@@@@.  ",
"   .@.+.+@@@@.  ",
"  .@@+.+@@@@@@. ",
"  .@@.+.@@@@@@. ",
"  .@.@.@.@.@.@. ",
"  #.#.#.$%&*=.= ",
"   -;;;;;-@-@>  ",
"   ,;;;;;;'@',  ",
"   ';;;;;'@'@'  ",
"   ,;;;;'@'@',  ",
"   ',',',',','  ",
"                "};
