/* XPM */
static char *graphic[] = {
"16 16 56 1",
". c None",
", c #4A4A4A",
"- c #8C428C",
"* c #000000",
"a c #424242",
"b c #FFFFFF",
"c c #CECECE",
"d c #FFDEFF",
"e c #006300",
"f c #9C4A9C",
"g c #E7BDE7",
"h c #B5B5B5",
"i c #008C00",
"j c #5A525A",
"k c #F7F7F7",
"l c #ADADAD",
"m c #5A5A5A",
"n c #D6FFD6",
"o c #183131",
"p c #636363",
"q c #FFE7FF",
"r c #FFF7FF",
"s c #EF8C00",
"t c #9C6300",
"u c #39B539",
"v c #423942",
"w c #63636B",
"x c #DEDEDE",
"y c #EF6300",
"z c #E7CE4A",
"A c #FFDE29",
"B c #9CE79C",
"C c #009C00",
"D c #FFEFFF",
"E c #EFC6EF",
"F c #848484",
"G c #AD84AD",
"H c #FFFFC6",
"I c #FFCE52",
"J c #E78C00",
"K c #A5EFA5",
"L c #B5F7B5",
"M c #00BD00",
"N c #31636B",
"O c #393939",
"P c #F7D6F7",
"Q c #EFEFEF",
"R c #292929",
"S c #DEB529",
"T c #E76300",
"U c #FFCE4A",
"V c #6BF76B",
"W c #EFCE52",
"X c #ADF7AD",
"Y c #006B00",
"Z c #EF6B00",
".......,-*......",
"......abcd*ee...",
"....f*gh**i.i...",
"...jkdlm.eneoee.",
"...pqrsti.ioiui.",
".vwdxyzAe.BeuCe.",
"vDEFGtHIJKLuMNi.",
"OPQmR.tHSTuCee..",
"..*a..iBHUAt....",
".....eKVtHWAt...",
"....iBXu.tHUAt..",
"...eKVue..tHWAt.",
"...eXui....tHUs.",
"....Ye......tZ..",
"................",
"................"}
