<?xml version="1.0" encoding="UTF-8" standalone="no"?>
<svg
   xmlns:dc="http://purl.org/dc/elements/1.1/"
   xmlns:cc="http://creativecommons.org/ns#"
   xmlns:rdf="http://www.w3.org/1999/02/22-rdf-syntax-ns#"
   xmlns:svg="http://www.w3.org/2000/svg"
   xmlns="http://www.w3.org/2000/svg"
   xmlns:sodipodi="http://sodipodi.sourceforge.net/DTD/sodipodi-0.dtd"
   xmlns:inkscape="http://www.inkscape.org/namespaces/inkscape"
   viewBox="0 0 16 16"
   version="1.1"
   id="svg6"
   sodipodi:docname="rotate-reset.svg"
   inkscape:export-filename="/mnt/partizione/icone/originali/replace/i114.png"
   inkscape:export-xdpi="96"
   inkscape:export-ydpi="96"
   inkscape:version="0.92+devel unknown">
  <metadata
     id="metadata10">
    <rdf:RDF>
      <cc:Work
         rdf:about="">
        <dc:format>image/svg+xml</dc:format>
        <dc:type
           rdf:resource="http://purl.org/dc/dcmitype/StillImage" />
        <dc:title></dc:title>
      </cc:Work>
    </rdf:RDF>
  </metadata>
  <sodipodi:namedview
     pagecolor="#ffffff"
     bordercolor="#666666"
     inkscape:document-rotation="0"
     borderopacity="1"
     objecttolerance="10"
     gridtolerance="10"
     guidetolerance="10"
     inkscape:pageopacity="0"
     inkscape:pageshadow="2"
     inkscape:window-width="1920"
     inkscape:window-height="1016"
     id="namedview8"
     showgrid="true"
     inkscape:snap-bbox="true"
     inkscape:bbox-nodes="true"
     inkscape:zoom="37.476659"
     inkscape:cx="8"
     inkscape:cy="8"
     inkscape:window-x="0"
     inkscape:window-y="0"
     inkscape:window-maximized="1"
     inkscape:current-layer="svg6">
    <inkscape:grid
       type="xygrid"
       id="grid4269" />
  </sodipodi:namedview>
  <defs
     id="defs3051">
    <style
       type="text/css"
       id="current-color-scheme">
      .ColorScheme-Text {
        color:#4d4d4d;
      }
      </style>
  </defs>
  <path
     style="fill:currentColor;fill-opacity:1;stroke:none"
     d="M 8.171875,1.671875 7.4648438,2.3789062 8.4140625,3.328125 9.0859375,4 H 5 V 5 H 9.0859375 L 8.4140625,5.671875 7.4648438,6.6210938 8.171875,7.328125 9.1210938,6.3789062 11,4.5 9.1210938,2.6210938 Z M 3.5,5 C 3.22386,5 3,5.22386 3,5.5 3,5.77614 3.22386,6 3.5,6 3.77614,6 4,5.77614 4,5.5 4,5.22386 3.77614,5 3.5,5 Z m -1,3 C 2.22386,8 2,8.22386 2,8.5 2,8.77614 2.22386,9 2.5,9 2.77614,9 3,8.77614 3,8.5 3,8.22386 2.77614,8 2.5,8 Z m 1,3 C 3.22386,11 3,11.22386 3,11.5 3,11.77614 3.22386,12 3.5,12 3.77614,12 4,11.77614 4,11.5 4,11.22386 3.77614,11 3.5,11 Z m 3,1 C 6.22386,12 6,12.22386 6,12.5 6,12.77614 6.22386,13 6.5,13 6.77614,13 7,12.77614 7,12.5 7,12.22386 6.77614,12 6.5,12 Z"
     class="ColorScheme-Text"
     id="path4"
     inkscape:connector-curvature="0"
     sodipodi:nodetypes="ccccccccccccccssssssssssssssssssss" />
  <path
     style="fill:#da4453;fill-opacity:1;stroke:none"
     class="ColorScheme-NegativeText"
     d="M 9.707,9 9,9.707 10.793,11.5 9,13.293 9.707,14 11.5,12.207 13.293,14 14,13.293 12.207,11.5 14,9.707 13.293,9 11.5,10.793 Z"
     id="path4-3"
     inkscape:connector-curvature="0"
     sodipodi:nodetypes="ccccccccccccc" />
</svg>
