/* XPM */
static char *graphic[] = {
"16 16 41 1",
". c None",
", c #D69C00",
"- c #FFC600",
"* c #FF9C00",
"a c #FFFFFF",
"b c #00BD00",
"c c #009C00",
"d c #636394",
"e c #6363DE",
"f c #FFFFEF",
"g c #FFDEA5",
"h c #CEFFCE",
"i c #AD8CDE",
"j c #A56B00",
"k c #FFF7AD",
"l c #FFCE63",
"m c #E7FFAD",
"n c #9CFF63",
"o c #FFF763",
"p c #63CE31",
"q c #63EF31",
"r c #ADEF31",
"s c #EF6B00",
"t c #EF8C00",
"u c #FFEFFF",
"v c #525284",
"w c #DEEFFF",
"x c #CECEFF",
"y c #5252CE",
"z c #FFF7FF",
"A c #FFE7FF",
"B c #C6DEFF",
"C c #FFDEFF",
"D c #D6E7FF",
"E c #B5D6FF",
"F c #CEDEFF",
"G c #EFF7FF",
"H c #CEE7FF",
"I c #F7F7FF",
"J c #ADD6FF",
"K c #9C52CE",
".......,-*-,-abc",
"dedede,aafgfg*h.",
"iaaaa,fjfgklklmn",
"daaa,fjojolo,*pq",
"iaa,fjkjkj-,-jrp",
"da,fjajojojsjsjs",
"iatjauajkjuv....",
"dadewedejaxy....",
"izauaAaBaCuv....",
"dadeDededzxv....",
"iuaAaaaCaEuv....",
"dadeFededGxy....",
"iuaHaCaEIJuv....",
"duxuxuxuxuxv....",
"KvKvKvKvKvKv....",
"................"}
