/* XPM */
static char *graphic[] = {
"16 16 25 1",
". c None",
", c #0039A5",
"- c #00395A",
"* c #000000",
"a c #2984C6",
"b c #0052D6",
"c c #00528C",
"d c #0042AD",
"e c #6BADFF",
"f c #0073D6",
"g c #73A5FF",
"h c #004273",
"i c #529CFF",
"j c #2984FF",
"k c #4294CE",
"l c #00426B",
"m c #4294FF",
"n c #ADCEFF",
"o c #005294",
"p c #8CDEFF",
"q c #005A9C",
"r c #00399C",
"s c #0052CE",
"t c #003963",
"u c #6BCEFF",
"....,-,-,-*.....",
"...-ab***bc**...",
"..def*...-gcf*..",
"..hi*.....-jc*..",
"..,af*....dkf*..",
"...-cb*...lmc*..",
"....***..-no*...",
"........-pq*....",
"......ras*......",
"......tjo*......",
".......**.......",
"................",
".......-r.......",
"......tuo*......",
".......**.......",
"................"}
