/* XPM */
static char *graphic[] = {
"16 16 36 1",
". c None",
", c #0063DE",
"- c #0063CE",
"* c #5A9CDE",
"a c #106BDE",
"b c #5A84D6",
"c c #F7F7FF",
"d c #1873D6",
"e c #1873DE",
"f c #5A84CE",
"g c #5273C6",
"h c #FFFFFF",
"i c #2173DE",
"j c #527BD6",
"k c #D6E7FF",
"l c #4A7BC6",
"m c #4273C6",
"n c #C6DEFF",
"o c #CEE7FF",
"p c #E7F7FF",
"q c #BDDEFF",
"r c #0839A5",
"s c #ADCEFF",
"t c #B5DEFF",
"u c #186BCE",
"v c #186BD6",
"w c #0039A5",
"x c #B5D6FF",
"y c #1863D6",
"z c #4273D6",
"A c #185ACE",
"B c #185AC6",
"C c #396BC6",
"D c #4273CE",
"E c #184AB5",
"F c #1042B5",
"................",
"................",
".......,.-......",
"......*a.a*.....",
".....bcd.ecf....",
"....ghhe.ihhg...",
"...jkche.dhckl..",
"..mnoppe.eppoqm.",
".rstokpu.vpootsw",
"..mxtooy.yootxm.",
"...zstoA.Botsm..",
"....CqtB.BtqC...",
".....DsE.Esm....",
"......mF.Fm.....",
".......r.w......",
"................"}
