/* XPM */
static char *graphic[] = {
"16 16 40 1",
". c None",
", c #D61800",
"- c #CE1800",
"* c #DE735A",
"a c #DE2910",
"b c #D6735A",
"c c #FFF7F7",
"d c #D63918",
"e c #DE3918",
"f c #CE735A",
"g c #C66B4A",
"h c #FFFFFF",
"i c #DE3921",
"j c #CE6B52",
"k c #FFD6D6",
"l c #FFEFF7",
"m c #C66342",
"n c #FFC6BD",
"o c #FFD6CE",
"p c #FFE7E7",
"q c #FFEFE7",
"r c #DE3118",
"s c #A53108",
"t c #FFADAD",
"u c #FFBDB5",
"v c #FFCECE",
"w c #CE3118",
"x c #D63118",
"y c #A53100",
"z c #BD6342",
"A c #CE3918",
"B c #CE6342",
"C c #FFB5AD",
"D c #C63918",
"E c #BD3918",
"F c #BD5A39",
"G c #FFBDBD",
"H c #C65A42",
"I c #B53918",
"J c #B53910",
"................",
"................",
".......,.-......",
"......*a.a*.....",
".....bcd.ecf....",
"....ghhe.ihhg...",
"...jklhe.dhlkg..",
"..mnopqr.rqponm.",
".stuvkpw.xpovuty",
"..zuuvoA.Aovuuz.",
"...BCuvD.EvuCm..",
"....FGuD.DuGF...",
".....HCI.ICF....",
"......zJ.Jz.....",
".......s.y......",
"................"}
