/* XPM */
static char *graphic[] = {
"16 16 74 1",
". c None",
", c #9CADE7",
"- c #1873E7",
"* c #B5CEEF",
"a c #1042B5",
"b c #9CB5E7",
"c c #6B8CDE",
"d c #1852CE",
"e c #187BEF",
"f c #1894FF",
"g c #295ABD",
"h c #4A6BC6",
"i c #7BEFFF",
"j c #2163C6",
"k c #6B8CD6",
"l c #1884FF",
"m c #189CFF",
"n c #187BF7",
"o c #1863DE",
"p c #187BE7",
"q c #215AC6",
"r c #5273C6",
"s c #21C6FF",
"t c #316BBD",
"u c #3984D6",
"v c #1094FF",
"w c #1884F7",
"x c #639CE7",
"y c #84B5EF",
"z c #1073DE",
"A c #107BE7",
"B c #08BDFF",
"C c #2963BD",
"D c #6384CE",
"E c #108CFF",
"F c #108CF7",
"G c #5A8CD6",
"H c #6BA5E7",
"I c #1073EF",
"J c #7394DE",
"K c #089CFF",
"L c #086BD6",
"M c #1073E7",
"N c #5A7BD6",
"O c #7BADEF",
"P c #6B94D6",
"Q c #088CFF",
"R c #088CF7",
"S c #087BE7",
"T c #3963BD",
"U c #396BC6",
"V c #849CD6",
"W c #087BEF",
"X c #086BDE",
"Y c #0873DE",
"Z c #0863CE",
"0 c #085ACE",
"1 c #105ACE",
"2 c #104ABD",
"3 c #C6CEEF",
"4 c #0852C6",
"5 c #6384C6",
"6 c #2173D6",
"7 c #2973D6",
"8 c #297BD6",
"9 c #3184D6",
"@ c #085AC6",
"# c #3163C6",
"; c #94A5DE",
": c #3963C6",
"= c #085AD6",
"+ c #8C9CDE",
"% c #6B84C6",
"$ c #1052B5",
"................",
".........,-,....",
".*ab...cdef-g...",
".hij..klmno-pq..",
".rst.uvwx..yzA,.",
".rBCDEFG....HIJ.",
".hKLEMN.....OMP.",
".hQRST......UAV.",
".hWXYZ012..3X43.",
".5677789T.3@Yg..",
"..........#X4;..",
".........:S=+...",
"........%ZLr....",
".........$%.....",
"................",
"................"}
