/* XPM */
static char *graphic[] = {
"16 16 31 1",
". c None",
", c #525284",
"- c #52528C",
"* c #5A528C",
"a c #B58CFF",
"b c #FFFFFF",
"c c #DEEFFF",
"d c #D6EFFF",
"e c #CEE7FF",
"f c #AD8CFF",
"g c #C6DEFF",
"h c #FFDEFF",
"i c #5252D6",
"j c #C6E7FF",
"k c #BDDEFF",
"l c #B5DEFF",
"m c #6363D6",
"n c #6363FF",
"o c #6B6BFF",
"p c #0000FF",
"q c #CECECE",
"r c #FFC6FF",
"s c #FFE7FF",
"t c #6B6BD6",
"u c #D6D6D6",
"v c #FFF7FF",
"w c #CEC6CE",
"x c #C6BDC6",
"y c #FFCEFF",
"z c #C6C6C6",
"A c #FFEFFF",
"................",
".,,,,,,,--,,-*,,",
".,a,.........*b*",
".,a,....c.d.e,-*",
".,a,.......eb*f*",
".,a,..c.d.e.g*f,",
".,a,.....e.hb*f*",
".,fid.e.jbkbl,f,",
".-fm--,,,,,,,,f,",
".,fnnnnnnnnnnof*",
".,fp.....q.rspf,",
".,fp.nt.uvw.xpf,",
".-fp.nf..y.z.pf,",
".,fp.nt.u.wAxpf*",
".,fp.mf..q.r.*f,",
"..***,**,*,,,*,."}
