/* XPM */
static char *graphic[] = {
"16 16 66 1",
". c None",
", c #9CADE7",
"- c #0863D6",
"* c #184AB5",
"a c #0084F7",
"b c #006BD6",
"c c #0039B5",
"d c #5273C6",
"e c #849CCE",
"f c #0031A5",
"g c #A5BDDE",
"h c #184ABD",
"i c #086BDE",
"j c #0863DE",
"k c #0052C6",
"l c #006BDE",
"m c #008CF7",
"n c #006BE7",
"o c #5273BD",
"p c #1052AD",
"q c #6BDEFF",
"r c #395AB5",
"s c #9CADDE",
"t c #73A5DE",
"u c #4A8CD6",
"v c #007BE7",
"w c #296BBD",
"x c #215AAD",
"y c #10B5FF",
"z c #4263B5",
"A c #7394D6",
"B c #086BE7",
"C c #6394DE",
"D c #4A73BD",
"E c #0073DE",
"F c #007BEF",
"G c #1852AD",
"H c #00ADFF",
"I c #6394D6",
"J c #4A6BBD",
"K c #0063CE",
"L c #005AC6",
"M c #7B9CD6",
"N c #0873E7",
"O c #3163BD",
"P c #2952AD",
"Q c #BDC6EF",
"R c #084ABD",
"S c #0063D6",
"T c #BDC6E7",
"U c #0039AD",
"V c #004ABD",
"W c #0052BD",
"X c #295AB5",
"Y c #2173C6",
"Z c #216BC6",
"0 c #186BC6",
"1 c #5A7BBD",
"2 c #8C9CD6",
"3 c #295ABD",
"4 c #8494D6",
"5 c #0052CE",
"6 c #0073D6",
"7 c #315AB5",
"8 c #637BBD",
"9 c #104AAD",
"................",
"....,-,.........",
"...*-abcd...efg.",
"..hijklmno..pqr.",
".si-t..ulvw.xyz.",
".ABC....DEFoGHz.",
".Iit.....JKvLmz.",
".MNO......PbvFz.",
".QRST..UVVWKKEz.",
"..XbVT.PYZZZZ01.",
"..2VS3..........",
"...4567.........",
"....JKL8........",
".....89.........",
"................",
"................"}
