/* XPM */
static char *graphic[] = {
"16 16 38 1",
". c None",
", c #A5A5C6",
"- c #9C9CBD",
"* c #D6D6E7",
"a c #D6DEEF",
"b c #ADB5CE",
"c c #8C8CB5",
"d c #949CBD",
"e c #CECEDE",
"f c #29297B",
"g c #B5B5D6",
"h c #BDBDD6",
"i c #5A5A8C",
"j c #A5ADCE",
"k c #A5ADD6",
"l c #5A5A94",
"m c #CECEE7",
"n c #ADADCE",
"o c #CED6FF",
"p c #9CA5C6",
"q c #7B7BAD",
"r c #CED6E7",
"s c #9CA5CE",
"t c #ADB5D6",
"u c #B5BDE7",
"v c #BDC6DE",
"w c #8C94BD",
"x c #949CC6",
"y c #C6D6EF",
"z c #B5C6E7",
"A c #7B84B5",
"B c #C6CEF7",
"C c #9494BD",
"D c #848CB5",
"E c #8484B5",
"F c #BDCEE7",
"G c #737BAD",
"H c #A5A5D6",
".........,-*....",
".,.......abcd*..",
".e,.....fgg.hc-i",
"..e,g..jff....kl",
"...e,mfffff.....",
".....ff.ff......",
"...,nf..f..f..op",
"..,qrf.....f.psi",
".,tr.f.....fpqu.",
".t...f..f..fk...",
".......ff.ff....",
"..dv..fffff.wx..",
".djqy..ffj..zAqB",
".j.CD.pjf.....sq",
"....ExjF.......i",
"....uGH........."}
