/* XPM */
static char *graphic[] = {
"16 16 41 1",
". c None",
", c #CECEDE",
"- c #7B7BA5",
"* c #6B6B9C",
"a c #B5B5CE",
"b c #7B73A5",
"c c #6B639C",
"d c #8484AD",
"e c #7B7BAD",
"f c #7373A5",
"g c #636394",
"h c #9494BD",
"i c #9C9CBD",
"j c #000084",
"k c #7B7BBD",
"l c #080884",
"m c #000884",
"n c #9C9CC6",
"o c #8C8CB5",
"p c #848CB5",
"q c #A5ADCE",
"r c #9494B5",
"s c #08088C",
"t c #8C94BD",
"u c #A5ADD6",
"v c #8C94B5",
"w c #8C94CE",
"x c #10108C",
"y c #A5ADDE",
"z c #7B84AD",
"A c #18188C",
"B c #A5B5D6",
"C c #C6D6EF",
"D c #737BA5",
"E c #94A5CE",
"F c #8484B5",
"G c #9CA5C6",
"H c #6B73A5",
"I c #BDCEEF",
"J c #BDCEE7",
"K c #ADB5DE",
"...,-....*....-.",
"..abcdddefddd-g-",
"....h.........d.",
"....ijj..kjk..d.",
"....ij...l.m..e.",
"....nj...j.j..d.",
"...oajj..j.j..pq",
".qd*rj...j.j.q*f",
"...h.j...s.l..tu",
"...v.jjj.wxy..tu",
"...z.......A..ut",
"...e..........Bt",
"..CD.....t....EF",
"..GgfeeefgfeeeH*",
"..ID....J*....Ke",
"..Ie....I*.....e"}
