/* XPM */
static char *graphic[] = {
"16 16 21 1",
". c None",
", c #FFFFFF",
"- c #F7FFFF",
"* c #EFF7FF",
"a c #E7F7FF",
"b c #000084",
"c c #7373BD",
"d c #6B6BBD",
"e c #BDC6EF",
"f c #18188C",
"g c #4A4AAD",
"h c #6B73BD",
"i c #D6DEF7",
"j c #D6EFFF",
"k c #DEE7FF",
"l c #DEEFFF",
"m c #5A5AB5",
"n c #5A63B5",
"o c #D6E7FF",
"p c #CEE7FF",
"q c #CEDEFF",
".,,,,,,,,,,,,-*,",
".,,,,,,--,,,,,,,",
".,,,,,--,,,,,,,,",
".,,,,--,,,,-*,,a",
".,,,--bbb*cbdaaa",
".,-*-,b,*abebaaa",
".-*-,,bfg*hbdaaa",
".*-,,,bibaaaaaaa",
".-,,,*aabaaaaaaj",
".,***abkbaaaaajj",
".*laaambnaaaajjo",
".laaaaaaaaajjjop",
".alalalaaajjjopp",
".alalalajjjjoppq",
".kjjjjjjjjjoppqq",
".ljjjjjjjjqqqqqq"}
