/* XPM */
static char *graphic[] = {
"16 16 46 1",
". c None",
", c #1894FF",
"- c #189CFF",
"* c #188CE7",
"a c #1084FF",
"b c #107BC6",
"c c #0873FF",
"d c #106BA5",
"e c #0863DE",
"f c #085A8C",
"g c #FFFFFF",
"h c #FFF7FF",
"i c #FFEFFF",
"j c #D6E7FF",
"k c #004AB5",
"l c #316BFF",
"m c #3163FF",
"n c #CEE7FF",
"o c #004A63",
"p c #004A6B",
"q c #21BDFF",
"r c #2931FF",
"s c #3131FF",
"t c #D6EFFF",
"u c #A56B00",
"v c #E78C00",
"w c #F7FFFF",
"x c #0031FF",
"y c #0031D6",
"z c #A56300",
"A c #E76300",
"B c #D69C00",
"C c #FF9C00",
"D c #FFBD00",
"E c #CE9C00",
"F c #EF8C00",
"G c #FFFFE7",
"H c #FFFFA5",
"I c #FFF7A5",
"J c #FFE79C",
"K c #FFFFEF",
"L c #FFDE9C",
"M c #9C6300",
"N c #EF6B00",
"O c #00FF00",
"P c #FFEFA5",
"................",
"......,-*abcdef.",
".....-ggghgigjk.",
"....,ggllmlgnop.",
"....qggggigjgp..",
"...,ggrssrjgpo..",
"...aggghgtggkuvu",
"..bgwxyxygnozABC",
".CDBDCDBDCDEFCFE",
"BGHGHGIGJKLKMNBC",
"DBDCDBDCDEDCFEFM",
"BGHGHGIGOOLKMNEN",
"DHGHGIGPKJKLFCDM",
"uAuAuAuAMNMNMCM.",
".BGHGIGPKJKMDM..",
"..uAuAuAMNMNM..."}
