/* XPM */
static char *graphic[] = {
"16 16 9 1",
". c None",
", c #FF6331",
"- c #848484",
"* c #9C5252",
"a c #AD5A5A",
"b c #B57373",
"c c #DEB5B5",
"d c #E7CECE",
"e c #FFFFFF",
".,,,............",
",,,,,...........",
",,,,,...........",
",,,,,....-......",
".,,,....-.......",
".......-........",
"......-.........",
".....-....*a*...",
"....-....a*a*a..",
"...-....abcdcba.",
"..-....**ceeec**",
".......aadeeedaa",
".......**ceeec**",
"........abcdcba.",
".........a*a*a..",
"..........*a*..."}
