/* XPM */
static char *graphic[] = {
"16 16 12 1",
". c None",
", c #BDBDF7",
"- c #636BE7",
"* c #3942DE",
"a c #BDC6F7",
"b c #7B84E7",
"c c #525ADE",
"d c #A5ADEF",
"e c #737BE7",
"f c #ADBDF7",
"g c #9CA5EF",
"h c #8C94EF",
"................",
"................",
"................",
".....,-**-a.....",
".....**bb**.....",
".....*a..ab.....",
".....cc.........",
"......db-*-.....",
".....a....*e....",
".....*e..f*e....",
".....c*****.....",
"......geeh......",
"................",
"................",
"................",
"................"}
