/* XPM */
static char *graphic[] = {
"16 16 9 1",
". c None",
", c #0063CE",
"- c #0052BD",
"* c #004AB5",
"a c #0039A5",
"b c #005AC6",
"c c #004ABD",
"d c #0042AD",
"e c #0039AD",
"....,,..........",
"....,.-.........",
"....,..*........",
"....,...a.......",
"....,....a......",
"....,.....a.....",
"....,......a....",
"....b.......a...",
"....b.......a...",
"....-......a....",
"....c.....a.....",
"....*....a......",
"....d...a.......",
"....e..a........",
"....a.a.........",
"....aa.........."}
