/* XPM */
static char *graphic[] = {
"16 16 142 2",
".. c None",
"., c #94BDD6",
".- c #84C6DE",
".* c #7BB5CE",
".a c #5AA5C6",
".b c #4A9CC6",
".c c #52A5C6",
".d c #73ADC6",
".e c #ADC6CE",
".f c #73B5D6",
".g c #8CCEE7",
".h c #ADE7F7",
".i c #B5E7F7",
".j c #94DEF7",
".k c #6BC6E7",
".l c #4AB5DE",
".m c #39A5CE",
".n c #3994BD",
".o c #73A5B5",
".p c #D6F7FF",
".q c #8CD6EF",
".r c #73C6DE",
".s c #5AADCE",
".t c #52ADCE",
".u c #4AADD6",
".v c #42ADD6",
".w c #39A5D6",
".x c #298CBD",
".y c #6B94AD",
".z c #7BB5D6",
".A c #9CDEEF",
".B c #E7F7FF",
".C c #9CD6E7",
".D c #84ADB5",
".E c #8C9C9C",
".F c #4A5252",
".G c #8C8C8C",
".H c #94ADB5",
".I c #63ADC6",
".J c #31A5D6",
".K c #2184B5",
".L c #94ADBD",
".M c #5AADD6",
".N c #ADDEEF",
".O c #84A5AD",
".P c #9C9C9C",
".Q c #BDBDBD",
".R c #C6C6C6",
".S c #DEDEDE",
".T c #BDCECE",
".U c #6BADCE",
".V c #319CCE",
".W c #2194C6",
".X c #4284A5",
".Y c #7BCEE7",
".Z c #A5DEF7",
".0 c #84B5C6",
".1 c #94949C",
".2 c #CECECE",
".3 c #E7E7E7",
".4 c #F7F7F7",
".5 c #FFFFFF",
".6 c #B5D6DE",
".7 c #42A5CE",
".8 c #2194CE",
".9 c #2984AD",
".@ c #ADBDC6",
".# c #84D6EF",
".; c #7B9CA5",
".: c #ADB5B5",
".= c #7B7B7B",
".+ c #E7EFF7",
".% c #52A5CE",
".$ c #218CBD",
".( c #217BAD",
".) c #5A735A",
".[ c #9C8C42",
".] c #73CEEF",
",. c #73C6E7",
",, c #29424A",
",- c #101010",
",* c #000000",
",a c #636363",
",b c #217394",
",c c #1884B5",
",d c #2184AD",
",e c #7B94A5",
",f c #DED6AD",
",g c #5ABDE7",
",h c #5ABDDE",
",i c #7B9CAD",
",j c #5A5A5A",
",k c #313131",
",l c #848484",
",m c #4AA5CE",
",n c #4294B5",
",o c #6B846B",
",p c #9C944A",
",q c #42A5D6",
",r c #63A5C6",
",s c #BDC6C6",
",t c #B5B5B5",
",u c #B5D6E7",
",v c #318CBD",
",w c #318CB5",
",x c #5294B5",
",y c #949C94",
",z c #BDB59C",
",A c #298CB5",
",B c #39ADD6",
",C c #84ADC6",
",D c #D6D6D6",
",E c #C6D6DE",
",F c #529CBD",
",G c #187BA5",
",H c #52849C",
",I c #73A5BD",
",J c #2994C6",
",K c #399CCE",
",L c #4A5A63",
",M c #B5C6CE",
",N c #94C6DE",
",O c #1884AD",
",P c #3994C6",
",Q c #4A8CAD",
",R c #A5B5BD",
",S c #2994BD",
",T c #299CCE",
",U c #3194BD",
",V c #849CAD",
",W c #6B9CB5",
",X c #217BA5",
",Y c #4294BD",
",Z c #528CAD",
",0 c #8CADB5",
",1 c #9CBDC6",
",2 c #6394AD",
",3 c #317394",
",4 c #216B8C",
",5 c #5A8CA5",
",6 c #8CA5B5",
",7 c #BDCED6",
"................................",
".......,.-.*.a.b.c.d.e..........",
".....f.g.h.i.j.k.l.m.n.o........",
"...f.i.p.q.r.s.t.u.v.w.x.y......",
".z.A.B.C.D.E.F.G.H.I.m.J.K.L....",
".M.i.N.O.P.Q.R.S.S.T.U.V.W.X....",
".Y.Z.0.1.2.3.4.5.5.4.6.7.8.9.@..",
".#.q.;.:.3.4.=.S.3.3.+.%.$.(.).[",
".],.,,.P.4.P,-,*.4.S,a,b,c,d,e,f",
",g,h,i.2.4.3,j,k,l.5.B,m,d,n,o,p",
",q.l,r,s.4.3,j,t,l.2,u,v,w,x,y,z",
",A,B.7,C.3.5,j,D.4,E,F,G.b,H....",
",I,J.J,K.U,u,L,M,N.n,O,P,Q,R....",
"..,x,S,T,J.$.$,c.K.K,U,x,V......",
"....,W,X.$.$.x,U.n,Y,Z,0........",
"......,1,2,3,4,3,5,6,7.........."}
