/* XPM */
static char *graphic[] = {
"16 16 18 1",
". c None",
", c #5252D6",
"- c #525284",
"* c #52528C",
"a c #5252CE",
"b c #5A528C",
"c c #DEDEFF",
"d c #DEEFFF",
"e c #9C52CE",
"f c #9C52D6",
"g c #D6EFFF",
"h c #FFFFFF",
"i c #D6DEFF",
"j c #CEE7FF",
"k c #5A52D6",
"l c #D6E7FF",
"m c #CED6FF",
"n c #FFDEFF",
"................",
".,---,--*a--*a--",
".-.............b",
".-............ca",
".-.............b",
".,............c-",
".-.............b",
".-..........d.ca",
".*e-e*e-f-e-f-e-",
".a......d.d.ghib",
".-...........jh-",
".-......d...j.ik",
".*.........j...-",
".a....d.g.l.j.mb",
".-.......ihnhmh-",
".-bab-ba-b-k-b-k"}
