/* XPM */
static char *graphic[] = {
"16 16 75 1",
". c None",
", c #B5B5B7",
"- c #272721",
"* c #A7A7A7",
"a c #191915",
"b c #E7E7E7",
"c c #979794",
"d c #25231E",
"e c #CECECF",
"f c #46433F",
"g c #CECECE",
"h c #B5B5B5",
"i c #63635E",
"j c #3F3F3B",
"k c #1E1E19",
"l c #DEDED7",
"m c #6B6B67",
"n c #ADADAD",
"o c #D6D6D6",
"p c #2D2B27",
"q c #6F6F6B",
"r c #000000",
"s c #5F5F5A",
"t c #393933",
"u c #A7A7A5",
"v c #2D2D27",
"w c #52524F",
"x c #33332D",
"y c #2B2B25",
"z c #BFBFB7",
"A c #23231D",
"B c #7F7F7B",
"C c #ADA7A7",
"D c #9C9C95",
"E c #FF8D37",
"F c #E72900",
"G c #E7BD6F",
"H c #5B5B57",
"I c #D6D6D7",
"J c #949695",
"K c #292923",
"L c #33312D",
"M c #1D1B16",
"N c #13120D",
"O c #393733",
"P c #E75300",
"Q c #E77B00",
"R c #E76700",
"S c #1E1E18",
"T c #E7951B",
"U c #E74600",
"V c #E79725",
"W c #6F6F67",
"X c #D7D6D6",
"Y c #272521",
"Z c #D7D7D6",
"0 c #7B7B7B",
"1 c #0A0904",
"2 c #959596",
"3 c #23211D",
"4 c #CFDED7",
"5 c #42423B",
"6 c #CEDED7",
"7 c #464642",
"8 c #CFCFCF",
"9 c #B5AFAF",
"@ c #676763",
"# c #BFBFBD",
"; c #292723",
": c #A5A59E",
"= c #D7E7E7",
"+ c #96968F",
"% c #CED7CF",
"$ c #B7B5AF",
"( c #C6C6C7",
"....,-*.abcde...",
"...fg...-...hi..",
"..j.....k....lm.",
".no...pqrst...ul",
".v...w..x..x...y",
".z..A.......t..B",
"C...D..EFG..H..I",
"JKLMNO.PQR.xrS-N",
"C...u..TUV..W..X",
".z..Y.......p..B",
".v..Z0..x..w...y",
".no..ZY*123...u4",
"..5.....N....6m.",
"...78...-...9@..",
"....#;:=a=+-%...",
".......#$(......"}
