/* XPM */
static char *graphic[] = {
"16 16 90 2",
".. c None",
"., c #675E53",
".- c #675F52",
".* c #4A473B",
".a c #2F2B27",
".b c #675E52",
".c c #B5AD97",
".d c #C6BDA7",
".e c #B7AF96",
".f c #C7BDAD",
".g c #A59D8D",
".h c #4F4B42",
".i c #6F675B",
".j c #BDB59D",
".k c #958D7B",
".l c #2B2923",
".m c #332F29",
".n c #857B67",
".o c #A79C85",
".p c #8F8777",
".q c #39372F",
".r c #39352D",
".s c #B5AD95",
".t c #7F7767",
".u c #6F634E",
".v c #EFD7AD",
".w c #F7DEAD",
".x c #C6B794",
".y c #ADA58D",
".z c #575247",
".A c #776F63",
".B c #AFA794",
".C c #29251E",
".D c #DEBF9F",
".E c #FFDFAF",
".F c #FFDEAF",
".G c #FFDFB5",
".H c #E7CEA5",
".I c #A59C8C",
".J c #6B6356",
".K c #857F6F",
".L c #9F9684",
".M c #F7D6B5",
".N c #FFDEBF",
".O c #FFDFB7",
".P c #FFE7B5",
".Q c #DFC69D",
".R c #ADA58F",
".S c #6B675A",
".T c #1C1A17",
".U c #958777",
".V c #E7C7B5",
".W c #F7D7BD",
".X c #FFD7BD",
".Y c #FFDFBD",
".Z c #95866B",
".0 c #A59C8E",
".1 c #635F53",
".2 c #8C7F6F",
".3 c #DEBDAF",
".4 c #EFCFBF",
".5 c #FFDEB7",
".6 c #F7D6A7",
".7 c #393329",
".8 c #635E52",
".9 c #B7AD9C",
".@ c #35332B",
".# c #77675F",
".; c #CFB7A7",
".: c #EFCEB7",
".= c #E7C7AD",
".+ c #635746",
".% c #524E42",
".$ c #C6BFA7",
".( c #7F776B",
".) c #3B352F",
".[ c #8E7F6F",
".] c #B7AD9D",
",. c #8E8673",
",, c #736B5E",
",- c #A59C8D",
",* c #CFBFAF",
",a c #968D7B",
",b c #35312B",
",c c #8C8573",
",d c #9D9585",
",e c #ADA795",
",f c #776F5E",
",g c #27251F",
",h c #211E1A",
"................................",
"................................",
".....,.-.*.a....................",
"...b.c.d.e.f.g.h................",
"...i.j.k.l.m.n.o.p.q............",
"...r.s.t...u.v.w.x.y.z..........",
".....A.B.C.D.E.F.G.H.I.J........",
".......K.L.M.N.O.E.P.Q.R.S......",
".......T.U.V.W.X.Y.F.P.Z.0.1....",
"...........2.3.4.X.5.6.7.8.9.@..",
".............#.;.:.=.+...%.$.(..",
"...............).[.],.,,,-,*,a..",
"..................,b,c,d.s,e,f..",
"........................,g,h....",
"................................",
"................................"}
