/* XPM */
static char *graphic[] = {
"16 16 26 1",
". c #737373",
", c #7F7F7F",
"- c None",
"* c #777777",
"a c #DEDEDE",
"b c #AFAFAF",
"c c #A5A5A5",
"d c #B5B5B5",
"e c #DFDFDF",
"f c #848484",
"g c #868686",
"h c #8E8E8E",
"i c #D6D6D6",
"j c #BFBFBF",
"k c #9D9D9D",
"l c #E7E7E7",
"m c #7B7B7B",
"n c #A7A7A7",
"o c #C7C7C7",
"p c #CECECE",
"q c #858585",
"r c #878787",
"s c #C6C6C6",
"t c #ADADAD",
"u c #949494",
"v c #BDBDBD",
".......,--------",
".......*a-------",
"........b-------",
"c.......d-------",
"e........a------",
"-f....g..h------",
"-i....jk..l-----",
"--m...n,..------",
"--a...*c..mo----",
"---p...qr...p---",
"----a...st...t--",
"-----j..uotm..--",
"------....veci--",
"------i....hp---",
"------i.....*v--",
"------p.......go"}
