/* XPM */
static char *graphic[] = {
"16 16 42 1",
". c None",
", c #525A8C",
"- c #9C7BD6",
"* c #4A527B",
"a c #9452C6",
"b c #4A4A7B",
"c c #7384F7",
"d c #ADC6E7",
"e c #FFFFFF",
"f c #C6DEFF",
"g c #E7CEFF",
"h c #CEE7FF",
"i c #DEC6FF",
"j c #524A7B",
"k c #5A6394",
"l c #7B8CFF",
"m c #737BEF",
"n c #525284",
"o c #A58CE7",
"p c #FFCEFF",
"q c #B5C6FF",
"r c #944AC6",
"s c #52639C",
"t c #DEEFFF",
"u c #D6EFFF",
"v c #A58CEF",
"w c #F7EFFF",
"x c #5A6BA5",
"y c #BD8C29",
"z c #7B4A00",
"A c #8494FF",
"B c #D6DEF7",
"C c #525A94",
"D c #BD6331",
"E c #FFDE00",
"F c #FFD600",
"G c #844A00",
"H c #636BA5",
"I c #9C8CE7",
"J c #5A639C",
"K c #FFE700",
"L c #FFFF00",
"...,-*ab........",
"..,cdef.b.......",
".,g..h..ij......",
"klh.h.h.hmn.....",
"op.......qr.....",
"s.t...u.h.*.....",
"v........ha.....",
"s.......hwn.....",
".x......g,yz....",
"..xAB.t.CDEFG...",
"...HIsIJyKLKFz..",
"........GFELEFG.",
".........zFELEFz",
"..........GFELEF",
"...........zFKLE",
"............GFKL"}
