/* XPM */
static char *i84[] = {
/* width height num_colors chars_per_pixel */
"    16    16       16            1",
/* colors */
"` c #b58ce7",
". c #636394",
"# c None",
"a c #6363e7",
"b c #deefff",
"c c #d6efff",
"d c #cee7ff",
"e c #d6e7ff",
"f c #c6e7ff",
"g c #ffffff",
"h c #000000",
"i c #000000",
"j c #000000",
"k c #000000",
"l c #000000",
"m c #000000",
/* pixels */
"################",
"################",
"###.`.`.`.`.`.##",
"###a#########a##",
"###.#########.##",
"###a#########a##",
"###a######b#ca##",
"###.#########.##",
"###a####b#c#ea##",
"###.#####c###.##",
"###a##b#c#d#fa##",
"###.###c###dg.##",
"###.`.`.`.`.`a##",
"################",
"################",
"################"
};
