/* XPM */
static char * i86_xpm[] = {
"16 16 4 1",
" 	c None",
".	c #D0E601",
"+	c #010101",
"@	c #FFFF01",
"       .        ",
"       .        ",
"  .  .....  .   ",
"   .........    ",
"   ...+++...    ",
"  ...+ . +...   ",
"  ..+ . . +..   ",
"....+. @ .+.... ",
"  ..+ .@. +..   ",
"  ...+ @ +...   ",
"   ...+ +...    ",
"   ...+.+...    ",
"  .  .+++.  .   ",
"      + +       ",
"      +++       ",
"       +        "};
