/* XPM */
static char *icon[] = {
/* columns rows colors chars-per-pixel */
"23 23 20 1",
"  c red",
". c #FF0707",
"X c #FF0C0C",
"o c #FF2020",
"O c #FF2929",
"+ c #FF2B2B",
"@ c #FF2D2D",
"# c #FF3D3D",
"$ c #FF4242",
"% c #FF4D4D",
"& c #FF7373",
"* c #FF8383",
"= c #FF8E8E",
"- c #FF9090",
"; c #FFAAAA",
": c #FFB9B9",
"> c #FFC8C8",
", c #FFE8E8",
"< c gray100",
"1 c None",
/* pixels */
"11111111111111111111111",
"11111111111111111111111",
"111111111     111111111",
"1111111         1111111",
"11111      +*     11111",
"1111     #-><      1111",
"1111    %=<<<      1111",
"111     +#><<       111",
"111       ;<<       111",
"11        ;<<        11",
"11        ;<<        11",
"11        ;<<        11",
"11        ;<<        11",
"11        ;<<        11",
"111       ;<<       111",
"111       :<<.      111",
"1111    Xo,<<$X    1111",
"1111    @&<<<<@    1111",
"11111             11111",
"1111111         1111111",
"111111111     111111111",
"11111111111111111111111",
"11111111111111111111111"
};
