<?xml version="1.0" encoding="UTF-8" standalone="no"?>
<svg
   xmlns:dc="http://purl.org/dc/elements/1.1/"
   xmlns:cc="http://creativecommons.org/ns#"
   xmlns:rdf="http://www.w3.org/1999/02/22-rdf-syntax-ns#"
   xmlns:svg="http://www.w3.org/2000/svg"
   xmlns="http://www.w3.org/2000/svg"
   xmlns:sodipodi="http://sodipodi.sourceforge.net/DTD/sodipodi-0.dtd"
   xmlns:inkscape="http://www.inkscape.org/namespaces/inkscape"
   viewBox="0 0 16 16"
   version="1.1"
   id="svg6"
   sodipodi:docname="chart-style-photo.svg"
   inkscape:export-filename="/mnt/partizione/icone/originali_dark/replace/i118.png"
   inkscape:export-xdpi="96"
   inkscape:export-ydpi="96"
   inkscape:version="0.92+devel unknown">
  <metadata
     id="metadata10">
    <rdf:RDF>
      <cc:Work
         rdf:about="">
        <dc:format>image/svg+xml</dc:format>
        <dc:type
           rdf:resource="http://purl.org/dc/dcmitype/StillImage" />
        <dc:title></dc:title>
      </cc:Work>
    </rdf:RDF>
  </metadata>
  <sodipodi:namedview
     pagecolor="#ffffff"
     bordercolor="#666666"
     inkscape:document-rotation="0"
     borderopacity="1"
     objecttolerance="10"
     gridtolerance="10"
     guidetolerance="10"
     inkscape:pageopacity="0"
     inkscape:pageshadow="2"
     inkscape:window-width="1920"
     inkscape:window-height="1016"
     id="namedview8"
     showgrid="true"
     inkscape:snap-bbox="true"
     inkscape:bbox-nodes="true"
     inkscape:snap-nodes="false"
     inkscape:zoom="36.195028"
     inkscape:cx="8"
     inkscape:cy="8"
     inkscape:window-x="0"
     inkscape:window-y="0"
     inkscape:window-maximized="1"
     inkscape:current-layer="svg6">
    <inkscape:grid
       type="xygrid"
       id="grid4269" />
  </sodipodi:namedview>
  <defs
     id="defs3051">
    <style
       type="text/css"
       id="current-color-scheme">
      .ColorScheme-Text {
        color:#4d4d4d;
      }
      </style>
  </defs>
  <path
     style="fill:#f2f2f2;fill-opacity:1;stroke:none"
     d="m 8.1601562,1 -7.15625,7.125 V 11 c 1.075,0.019 2.84375,0 2.84375,0 L 11.003906,3.84375 Z m -0.71875,2.15625 1.40625,1.40625 -2.8457031,2.875 -1.4375,-1.4394531 z m -3.59375,3.5625 1.4375,1.40625 -0.71875,0.71875 -1.40625,-1.40625 z"
     class="ColorScheme-Text"
     id="path4"
     inkscape:connector-curvature="0"
     sodipodi:nodetypes="cccccccccccccccc" />
  <path
     inkscape:connector-curvature="0"
     style="fill:#f2f2f2;fill-opacity:1;stroke:none;stroke-width:1"
     d="M 12.714286,8.7142861 V 9.2857147 H 6.9999999 V 15 H 15 V 9.2857147 H 14.428571 V 8.7142861 Z M 7.5714285,9.8571432 H 14.428571 V 14.428571 H 7.5714285 Z M 9.8571426,10.428572 A 1.7142856,1.7142856 0 0 0 8.142857,12.142857 1.7142856,1.7142856 0 0 0 9.8571426,13.857143 1.7142856,1.7142856 0 0 0 11.571429,12.142857 1.7142856,1.7142856 0 0 0 9.8571426,10.428572 Z m 0,0.571428 A 1.1428571,1.1428571 0 0 1 11,12.142857 1.1428571,1.1428571 0 0 1 9.8571426,13.285714 1.1428571,1.1428571 0 0 1 8.7142856,12.142857 1.1428571,1.1428571 0 0 1 9.8571426,11 Z"
     class="ColorScheme-Text"
     id="path4-3" />
</svg>
