<?xml version="1.0" encoding="UTF-8" standalone="no"?>
<svg
   xmlns:dc="http://purl.org/dc/elements/1.1/"
   xmlns:cc="http://creativecommons.org/ns#"
   xmlns:rdf="http://www.w3.org/1999/02/22-rdf-syntax-ns#"
   xmlns:svg="http://www.w3.org/2000/svg"
   xmlns="http://www.w3.org/2000/svg"
   xmlns:sodipodi="http://sodipodi.sourceforge.net/DTD/sodipodi-0.dtd"
   xmlns:inkscape="http://www.inkscape.org/namespaces/inkscape"
   viewBox="0 0 16 16"
   version="1.1"
   id="svg6"
   sodipodi:docname="rotate-180.svg"
   inkscape:version="0.92+devel unknown">
  <metadata
     id="metadata10">
    <rdf:RDF>
      <cc:Work
         rdf:about="">
        <dc:format>image/svg+xml</dc:format>
        <dc:type
           rdf:resource="http://purl.org/dc/dcmitype/StillImage" />
        <dc:title></dc:title>
      </cc:Work>
    </rdf:RDF>
  </metadata>
  <sodipodi:namedview
     pagecolor="#ffffff"
     bordercolor="#666666"
     inkscape:document-rotation="0"
     borderopacity="1"
     objecttolerance="10"
     gridtolerance="10"
     guidetolerance="10"
     inkscape:pageopacity="0"
     inkscape:pageshadow="2"
     inkscape:window-width="1920"
     inkscape:window-height="1016"
     id="namedview8"
     showgrid="true"
     showguides="true"
     inkscape:guide-bbox="true"
     inkscape:zoom="37.476659"
     inkscape:cx="8"
     inkscape:cy="8"
     inkscape:window-x="0"
     inkscape:window-y="0"
     inkscape:window-maximized="1"
     inkscape:current-layer="svg6">
    <inkscape:grid
       type="xygrid"
       id="grid4269" />
    <sodipodi:guide
       position="2,11"
       orientation="1,0"
       id="guide4271"
       inkscape:locked="false" />
    <sodipodi:guide
       position="14,10.459844"
       orientation="1,0"
       id="guide4273"
       inkscape:locked="false" />
    <sodipodi:guide
       position="11,14"
       orientation="0,1"
       id="guide4275"
       inkscape:locked="false" />
    <sodipodi:guide
       position="11,2"
       orientation="0,1"
       id="guide4277"
       inkscape:locked="false" />
  </sodipodi:namedview>
  <defs
     id="defs3051">
    <style
       type="text/css"
       id="current-color-scheme">
      .ColorScheme-Text {
        color:#4d4d4d;
      }
      </style>
  </defs>
  <path
     style="fill:#f2f2f2;fill-opacity:1;stroke:none"
     d="M 7.828125,0.671875 6.8789062,1.6210938 5,3.5 6.8789062,5.3789062 7.828125,6.328125 8.5351562,5.6210938 7.5859375,4.671875 6.9140625,4 H 11 V 3 H 6.9140625 L 7.5859375,2.328125 8.5351562,1.3789062 Z M 12.5,4 C 12.22386,4 12,4.22386 12,4.5 12,4.77614 12.22386,5 12.5,5 12.77614,5 13,4.77614 13,4.5 13,4.22386 12.77614,4 12.5,4 Z m 1,3 C 13.22386,7 13,7.22386 13,7.5 13,7.77614 13.22386,8 13.5,8 13.77614,8 14,7.77614 14,7.5 14,7.22386 13.77614,7 13.5,7 Z m -1,3 C 12.22386,10 12,10.22386 12,10.5 12,10.77614 12.22386,11 12.5,11 12.77614,11 13,10.77614 13,10.5 13,10.22386 12.77614,10 12.5,10 Z"
     class="ColorScheme-Text"
     id="path4"
     inkscape:connector-curvature="0"
     sodipodi:nodetypes="ccccccccccccccsssssssssssssss" />
  <path
     style="fill:#f2f2f2;fill-opacity:1;stroke:none"
     d="M 8.171875,15.328125 9.1210938,14.378906 11.000001,12.5 9.1210938,10.621094 8.171875,9.671875 7.4648438,10.378906 8.4140625,11.328125 9.0859375,12 H 5 v 1 h 4.0859375 l -0.671875,0.671875 -0.9492187,0.949219 z M 3.5,12 C 3.77614,12 4,11.77614 4,11.5 4,11.22386 3.77614,11 3.5,11 3.22386,11 3,11.22386 3,11.5 3,11.77614 3.22386,12 3.5,12 Z M 2.5,9 C 2.77614,9 3,8.77614 3,8.5 3,8.22386 2.77614,8 2.5,8 2.22386,8 2,8.22386 2,8.5 2,8.77614 2.22386,9 2.5,9 Z m 1,-3 C 3.77614,6 4,5.77614 4,5.5 4,5.22386 3.77614,5 3.5,5 3.22386,5 3,5.22386 3,5.5 3,5.77614 3.22386,6 3.5,6 Z"
     class="ColorScheme-Text"
     id="path4-3"
     inkscape:connector-curvature="0"
     sodipodi:nodetypes="ccccccccccccccsssssssssssssss" />
</svg>
