<?xml version="1.0" encoding="UTF-8" standalone="no"?>
<svg
   xmlns:dc="http://purl.org/dc/elements/1.1/"
   xmlns:cc="http://creativecommons.org/ns#"
   xmlns:rdf="http://www.w3.org/1999/02/22-rdf-syntax-ns#"
   xmlns:svg="http://www.w3.org/2000/svg"
   xmlns="http://www.w3.org/2000/svg"
   xmlns:sodipodi="http://sodipodi.sourceforge.net/DTD/sodipodi-0.dtd"
   xmlns:inkscape="http://www.inkscape.org/namespaces/inkscape"
   viewBox="0 0 16 16"
   version="1.1"
   id="svg6"
   sodipodi:docname="chart_ec_coords.svg"
   width="16"
   height="16"
   inkscape:export-filename="/mnt/partizione/icone/originali_dark/replace/i73.png"
   inkscape:export-xdpi="96"
   inkscape:export-ydpi="96"
   inkscape:version="0.92+devel unknown">
  <metadata
     id="metadata10">
    <rdf:RDF>
      <cc:Work
         rdf:about="">
        <dc:format>image/svg+xml</dc:format>
        <dc:type
           rdf:resource="http://purl.org/dc/dcmitype/StillImage" />
        <dc:title></dc:title>
      </cc:Work>
    </rdf:RDF>
  </metadata>
  <sodipodi:namedview
     pagecolor="#ffffff"
     bordercolor="#666666"
     inkscape:document-rotation="0"
     borderopacity="1"
     objecttolerance="10"
     gridtolerance="10"
     guidetolerance="10"
     inkscape:pageopacity="0"
     inkscape:pageshadow="2"
     inkscape:window-width="1920"
     inkscape:window-height="1016"
     id="namedview8"
     showgrid="true"
     inkscape:snap-bbox="true"
     inkscape:bbox-nodes="true"
     inkscape:snap-nodes="false"
     inkscape:snap-others="false"
     inkscape:zoom="38.545455"
     inkscape:cx="9.2437109"
     inkscape:cy="8.8284298"
     inkscape:window-x="0"
     inkscape:window-y="0"
     inkscape:window-maximized="1"
     inkscape:current-layer="svg6">
    <inkscape:grid
       type="xygrid"
       id="grid4269" />
  </sodipodi:namedview>
  <defs
     id="defs3051">
    <style
       type="text/css"
       id="current-color-scheme">
      .ColorScheme-Text {
        color:#4d4d4d;
      }
      </style>
  </defs>
  <path
     style="fill:#f2f2f2;fill-opacity:1;stroke:none;stroke-width:0.875"
     d="M 4.0839844 1 L 6.625 2.1191406 C 6.2031168 2.9321423 5.6673212 3.673914 5.0488281 4.3378906 L 1.7167969 1.0175781 L 1.0097656 1.0175781 L 1.0097656 1.8476562 L 4.2675781 5.0898438 C 3.6368507 5.6357292 2.9430113 6.1073241 2.1894531 6.484375 L 1.4980469 4.921875 L 1.4980469 4.9179688 L 1.0253906 3.8203125 L 1.0136719 6.4648438 L 1.2109375 6.9082031 C 1.1396582 6.9348109 1.0720374 6.9691104 1 6.9941406 L 1 8.140625 C 1.221755 8.07164 1.4328307 7.9787125 1.6484375 7.8964844 L 3.3417969 11.714844 C 2.5879014 12.011473 1.807026 12.256987 1 12.431641 L 1 13.542969 C 1.9617797 13.348898 2.8886166 13.060019 3.78125 12.705078 L 3.9960938 13.191406 L 3.9960938 10.5625 L 2.6269531 7.4707031 C 3.5017193 7.0365133 4.3068188 6.4899808 5.0332031 5.8515625 L 6.6523438 7.4648438 L 8.1855469 7.4648438 L 5.8125 5.0996094 C 6.5238363 4.3409515 7.132613 3.4867053 7.6113281 2.5527344 L 11.453125 4.2460938 C 10.878392 5.4142924 10.150825 6.48946 9.3085938 7.4648438 L 10.697266 7.4648438 C 11.364923 6.5985205 11.956404 5.6716773 12.441406 4.6796875 L 14.943359 5.78125 L 14.947266 4.6035156 L 12.875 3.7070312 C 13.229616 2.8425015 13.521431 1.9466801 13.724609 1.015625 L 12.615234 1.015625 C 12.432679 1.7957842 12.185947 2.5484482 11.888672 3.2773438 L 8.0332031 1.609375 C 8.1126007 1.4107837 8.2053293 1.2196276 8.2734375 1.015625 L 7.1210938 1.015625 C 7.0996438 1.073066 7.0712911 1.126658 7.0488281 1.1835938 L 6.6269531 1 L 4.0839844 1 z "
     id="path4" />
  <text
     xml:space="preserve"
     style="font-style:normal;font-weight:normal;font-size:40px;line-height:125%;font-family:sans-serif;letter-spacing:0px;word-spacing:0px;fill:#f2f2f2;fill-opacity:1;stroke:none;stroke-width:1px;stroke-linecap:butt;stroke-linejoin:miter;stroke-opacity:1;"
     x="3.7115877"
     y="14.867839"
     id="text4273"><tspan
       sodipodi:role="line"
       id="tspan4271"
       x="3.7115877"
       y="14.867839"
       style="font-style:normal;font-variant:normal;font-weight:bold;font-stretch:normal;font-size:9.33333397px;font-family:sans-serif;-inkscape-font-specification:'sans-serif Bold';fill:#f2f2f2;fill-opacity:1;">Ec</tspan></text>
</svg>
