<?xml version="1.0" encoding="UTF-8" standalone="no"?>
<svg
   xmlns:dc="http://purl.org/dc/elements/1.1/"
   xmlns:cc="http://creativecommons.org/ns#"
   xmlns:rdf="http://www.w3.org/1999/02/22-rdf-syntax-ns#"
   xmlns:svg="http://www.w3.org/2000/svg"
   xmlns="http://www.w3.org/2000/svg"
   xmlns:sodipodi="http://sodipodi.sourceforge.net/DTD/sodipodi-0.dtd"
   xmlns:inkscape="http://www.inkscape.org/namespaces/inkscape"
   viewBox="0 0 16 16"
   version="1.1"
   id="svg6"
   sodipodi:docname="document-print-preview.svg"
   inkscape:export-filename="/mnt/partizione/icone/originali_dark/replace/i9.png"
   inkscape:export-xdpi="96"
   inkscape:export-ydpi="96"
   inkscape:version="0.92+devel unknown">
  <metadata
     id="metadata10">
    <rdf:RDF>
      <cc:Work
         rdf:about="">
        <dc:format>image/svg+xml</dc:format>
        <dc:type
           rdf:resource="http://purl.org/dc/dcmitype/StillImage" />
        <dc:title></dc:title>
      </cc:Work>
    </rdf:RDF>
  </metadata>
  <sodipodi:namedview
     pagecolor="#ffffff"
     bordercolor="#666666"
     inkscape:document-rotation="0"
     borderopacity="1"
     objecttolerance="10"
     gridtolerance="10"
     guidetolerance="10"
     inkscape:pageopacity="0"
     inkscape:pageshadow="2"
     inkscape:window-width="1920"
     inkscape:window-height="1016"
     id="namedview8"
     showgrid="true"
     inkscape:zoom="37.476659"
     inkscape:cx="8"
     inkscape:cy="8"
     inkscape:window-x="0"
     inkscape:window-y="0"
     inkscape:window-maximized="1"
     inkscape:current-layer="svg6">
    <inkscape:grid
       type="xygrid"
       id="grid4269" />
  </sodipodi:namedview>
  <defs
     id="defs3051">
    <style
       type="text/css"
       id="current-color-scheme">
      .ColorScheme-Text {
        color:#4d4d4d;
      }
      </style>
  </defs>
  <path
     style="fill:#f2f2f2;fill-opacity:1;stroke:none"
     d="M 3 2 L 3 3 L 3 13 L 3 14 L 8 14 L 9 14 L 10 14 L 10 13 L 9 13 L 8 13 L 4 13 L 4 3 L 6 3 L 7 3 L 9 3 L 11 3 L 12 3 L 12 9 L 13 9 L 13 2 L 12 2 L 9 2 L 7 2 L 6 2 L 3 2 z M 8 5 C 6.338 5 5 6.338 5 8 C 5 9.662 6.338 11 8 11 C 8.64939 11 9.26003 10.7855 9.75 10.4375 L 12.28125 13 L 13 12.28125 L 10.4375 9.75 C 10.78555 9.2601 11 8.6494 11 8 C 11 6.338 9.662 5 8 5 z M 8 6 C 9.108 6 10 6.892 10 8 C 10 9.108 9.108 10 8 10 C 6.892 10 6 9.108 6 8 C 6 6.892 6.892 6 8 6 z "
     class="ColorScheme-Text"
     id="path4" />
</svg>
