<?xml version="1.0" encoding="UTF-8" standalone="no"?>
<svg
   viewBox="0 0 16 16"
   version="1.1"
   id="svg6"
   sodipodi:docname="lock-magnitude.svg"
   inkscape:version="1.1.1 (3bf5ae0d25, 2021-09-20)"
   xmlns:inkscape="http://www.inkscape.org/namespaces/inkscape"
   xmlns:sodipodi="http://sodipodi.sourceforge.net/DTD/sodipodi-0.dtd"
   xmlns="http://www.w3.org/2000/svg"
   xmlns:svg="http://www.w3.org/2000/svg">
  <sodipodi:namedview
     id="namedview8"
     pagecolor="#ffffff"
     bordercolor="#666666"
     borderopacity="1.0"
     inkscape:pageshadow="2"
     inkscape:pageopacity="0.0"
     inkscape:pagecheckerboard="0"
     showgrid="false"
     inkscape:zoom="39.375"
     inkscape:cx="7.9873016"
     inkscape:cy="7.9873016"
     inkscape:window-width="1876"
     inkscape:window-height="1171"
     inkscape:window-x="44"
     inkscape:window-y="0"
     inkscape:window-maximized="1"
     inkscape:current-layer="svg6" />
  <defs
     id="defs3051">
    <style
       type="text/css"
       id="current-color-scheme">
      .ColorScheme-Text {
        color:#eff0f1;
      }
      </style>
  </defs>
  <path
     style="fill:currentColor;fill-opacity:1;stroke:none"
     d="M 8 2 C 4.6862928 2 2 4.6862997 2 8 C 2 11.3137 4.6862928 14 8 14 C 11.313707 14 14 11.3137 14 8 C 14 4.6862997 11.313707 2 8 2 z M 8 3 C 10.761424 3 13 5.2385763 13 8 C 13 9.199635 12.548037 10.263384 11.84375 11.125 L 4.875 4.15625 C 5.7366165 3.4519627 6.8003651 3 8 3 z M 4.15625 4.875 L 11.125 11.84375 C 10.263384 12.548037 9.199635 13 8 13 C 5.2385763 13 3 10.761424 3 8 C 3 6.8003651 3.4519627 5.7366165 4.15625 4.875 z "
     class="ColorScheme-Text"
     id="path4" />
  <path
     sodipodi:type="star"
     style="fill:#f2f2f2;fill-opacity:1;stroke:none;stroke-width:0.198751;stroke-linecap:round;stroke-linejoin:round;paint-order:stroke fill markers"
     id="path4269-6"
     sodipodi:sides="4"
     sodipodi:cx="0.79311746"
     sodipodi:cy="293.55978"
     sodipodi:r1="0.52981567"
     sodipodi:r2="0.22735855"
     sodipodi:arg1="0.0078822309"
     sodipodi:arg2="0.76850291"
     inkscape:flatsided="false"
     inkscape:rounded="0"
     inkscape:randomized="0"
     transform="matrix(7.5499794,0,0,7.550058,2.052265,-2208.2173)"
     d="m 1.3229167,293.56396 -0.36633934,0.15385 -0.16763598,0.37177 -0.15385168,-0.36634 -0.37177145,-0.16763 0.36633932,-0.15385 0.16763598,-0.37178 0.15385167,0.36634 z" />
</svg>
