<?xml version="1.0" encoding="UTF-8" standalone="no"?>
<svg
   xmlns:dc="http://purl.org/dc/elements/1.1/"
   xmlns:cc="http://creativecommons.org/ns#"
   xmlns:rdf="http://www.w3.org/1999/02/22-rdf-syntax-ns#"
   xmlns:svg="http://www.w3.org/2000/svg"
   xmlns="http://www.w3.org/2000/svg"
   xmlns:sodipodi="http://sodipodi.sourceforge.net/DTD/sodipodi-0.dtd"
   xmlns:inkscape="http://www.inkscape.org/namespaces/inkscape"
   viewBox="0 0 16 16"
   version="1.1"
   id="svg6"
   sodipodi:docname="show-dso.svg"
   width="16"
   height="16"
   inkscape:export-filename="/mnt/partizione/icone/originali_dark/replace/i57.png"
   inkscape:export-xdpi="96"
   inkscape:export-ydpi="96"
   inkscape:version="0.92+devel unknown">
  <metadata
     id="metadata10">
    <rdf:RDF>
      <cc:Work
         rdf:about="">
        <dc:format>image/svg+xml</dc:format>
        <dc:type
           rdf:resource="http://purl.org/dc/dcmitype/StillImage" />
        <dc:title></dc:title>
      </cc:Work>
    </rdf:RDF>
  </metadata>
  <sodipodi:namedview
     pagecolor="#ffffff"
     bordercolor="#666666"
     inkscape:document-rotation="0"
     borderopacity="1"
     objecttolerance="10"
     gridtolerance="10"
     guidetolerance="10"
     inkscape:pageopacity="0"
     inkscape:pageshadow="2"
     inkscape:window-width="1920"
     inkscape:window-height="1016"
     id="namedview8"
     showgrid="true"
     inkscape:snap-nodes="false"
     inkscape:snap-others="false"
     inkscape:snap-bbox="true"
     inkscape:bbox-nodes="true"
     inkscape:zoom="38.545455"
     inkscape:cx="9.1580189"
     inkscape:cy="6.5972597"
     inkscape:window-x="0"
     inkscape:window-y="0"
     inkscape:window-maximized="1"
     inkscape:current-layer="svg6">
    <inkscape:grid
       type="xygrid"
       id="grid4269" />
  </sodipodi:namedview>
  <defs
     id="defs3051">
    <style
       type="text/css"
       id="current-color-scheme">
      .ColorScheme-Text {
        color:#4d4d4d;
      }
      </style>
  </defs>
  <path
     style="fill:#f2f2f2;fill-opacity:1;stroke:none;stroke-width:0.8736921"
     d="M 10.517749,2.878326 C 8.2575814,0.5223235 4.7482106,0.36066237 2.6786509,2.5179745 0.60902871,4.6753521 0.31532555,7.5825092 2.5754935,9.9385116 0.69200951,7.975165 1.6355944,5.026407 3.3603363,3.2285644 5.0850484,1.4306906 8.0104268,1.56527 9.8939105,3.5286164 10.745178,4.415979 11.21796,5.5256931 11.343209,6.6408666 A 4.2310253,3.5329595 51.72713 0 0 10.461346,5.3747899 4.2310253,3.5329595 51.72713 0 0 5.0844397,4.8855135 l -0.00614,0.0064 A 4.2310253,3.5329595 51.72713 0 0 4.8915562,5.1103811 C 2.9812965,7.3368127 3.1522365,10.87123 5.3396157,13.151358 c 2.2601669,2.356002 5.8095753,2.47593 7.9271693,0.268545 2.117659,-2.207449 2.433051,-5.1372131 0.172881,-7.4932166 1.883484,1.9633461 0.911357,4.9418586 -0.853343,6.7813526 C 10.821655,14.547563 7.8640611,14.446562 5.9805796,12.483216 5.0027834,11.46396 4.5112324,10.143129 4.5071012,8.851029 a 4.2310253,3.5329595 51.72713 0 0 1.0479366,1.638104 4.2310253,3.5329595 51.72713 0 0 5.3038382,0.555921 l 0.0046,0.0048 c 0.01189,-0.0124 0.02139,-0.02685 0.03322,-0.03933 a 4.2310253,3.5329595 51.72713 0 0 0.03406,-0.03081 4.2310253,3.5329595 51.72713 0 0 0.232487,-0.28044 C 12.906497,8.5132359 12.660489,5.1119202 10.517749,2.878326 Z"
     class="ColorScheme-Text"
     id="path4"
     inkscape:connector-curvature="0" />
</svg>
