<?xml version="1.0" encoding="UTF-8" standalone="no"?>
<svg
   xmlns:dc="http://purl.org/dc/elements/1.1/"
   xmlns:cc="http://creativecommons.org/ns#"
   xmlns:rdf="http://www.w3.org/1999/02/22-rdf-syntax-ns#"
   xmlns:svg="http://www.w3.org/2000/svg"
   xmlns="http://www.w3.org/2000/svg"
   xmlns:sodipodi="http://sodipodi.sourceforge.net/DTD/sodipodi-0.dtd"
   xmlns:inkscape="http://www.inkscape.org/namespaces/inkscape"
   viewBox="0 0 16 16"
   version="1.1"
   id="svg6"
   sodipodi:docname="show-milkyway.svg"
   width="16"
   height="16"
   inkscape:version="0.92+devel unknown"
   inkscape:export-filename="/mnt/partizione/icone/originali_dark/replace/i63.png"
   inkscape:export-xdpi="96"
   inkscape:export-ydpi="96">
  <metadata
     id="metadata10">
    <rdf:RDF>
      <cc:Work
         rdf:about="">
        <dc:format>image/svg+xml</dc:format>
        <dc:type
           rdf:resource="http://purl.org/dc/dcmitype/StillImage" />
        <dc:title></dc:title>
      </cc:Work>
    </rdf:RDF>
  </metadata>
  <sodipodi:namedview
     pagecolor="#ffffff"
     bordercolor="#666666"
     inkscape:document-rotation="0"
     borderopacity="1"
     objecttolerance="10"
     gridtolerance="10"
     guidetolerance="10"
     inkscape:pageopacity="0"
     inkscape:pageshadow="2"
     inkscape:window-width="1920"
     inkscape:window-height="1016"
     id="namedview8"
     showgrid="true"
     inkscape:snap-bbox="true"
     inkscape:bbox-nodes="true"
     inkscape:zoom="38.545455"
     inkscape:cx="11"
     inkscape:cy="8.9245283"
     inkscape:window-x="0"
     inkscape:window-y="0"
     inkscape:window-maximized="1"
     inkscape:current-layer="svg6">
    <inkscape:grid
       type="xygrid"
       id="grid4269" />
  </sodipodi:namedview>
  <defs
     id="defs3051">
    <style
       type="text/css"
       id="current-color-scheme">
      .ColorScheme-Text {
        color:#4d4d4d;
      }
      </style>
  </defs>
  <path
     style="fill:#f2f2f2;fill-opacity:1;stroke:none;stroke-width:0.875"
     d="M 10.565186,1 C 9.6069236,1.023625 8.7294342,0.96355885 7.7402345,1.220459 V 1.21875 C 6.0764175,1.9156875 5.1058337,3.4593243 4.6691895,5.1323242 4.6343114,5.2710992 4.4418946,5.8228332 4.4418946,6.5012207 V 9.0100099 C 4.391016,10.372298 3.4232638,11.205549 2.4167481,11.956298 1.9479828,12.287573 1.4593056,12.575936 1,12.916749 L 1.0034179,15 C 3.6012063,14.9912 4.7488168,14.98196 6.4926759,14.98632 7.8964246,12.831721 8.8287502,11.31845 8.8493652,9.0783619 V 6.5029297 C 8.9104227,5.9566672 9.1149198,5.3814039 9.5585939,5.3305665 10.33497,5.2885662 10.97282,5.5097363 11.390625,5.7766113 11.623106,5.9267614 12.135379,6.255127 12.940673,6.255127 H 14.136963 15 V 1.869873 H 14.001953 C 13.29731,1.926748 12.744967,1.4524215 12.099854,1.220459 11.778246,1.1408339 11.227174,1 10.565186,1 Z"
     class="ColorScheme-Text"
     id="path4"
     inkscape:connector-curvature="0" />
</svg>
