<?xml version="1.0" encoding="UTF-8" standalone="no"?>
<svg
   xmlns:dc="http://purl.org/dc/elements/1.1/"
   xmlns:cc="http://creativecommons.org/ns#"
   xmlns:rdf="http://www.w3.org/1999/02/22-rdf-syntax-ns#"
   xmlns:svg="http://www.w3.org/2000/svg"
   xmlns="http://www.w3.org/2000/svg"
   xmlns:sodipodi="http://sodipodi.sourceforge.net/DTD/sodipodi-0.dtd"
   xmlns:inkscape="http://www.inkscape.org/namespaces/inkscape"
   viewBox="0 0 22 22"
   version="1.1"
   id="svg6"
   sodipodi:docname="chart-style-photo.svg"
   inkscape:version="0.92+devel unknown">
  <metadata
     id="metadata10">
    <rdf:RDF>
      <cc:Work
         rdf:about="">
        <dc:format>image/svg+xml</dc:format>
        <dc:type
           rdf:resource="http://purl.org/dc/dcmitype/StillImage" />
        <dc:title></dc:title>
      </cc:Work>
    </rdf:RDF>
  </metadata>
  <sodipodi:namedview
     pagecolor="#ffffff"
     bordercolor="#666666"
     inkscape:document-rotation="0"
     borderopacity="1"
     objecttolerance="10"
     gridtolerance="10"
     guidetolerance="10"
     inkscape:pageopacity="0"
     inkscape:pageshadow="2"
     inkscape:window-width="1920"
     inkscape:window-height="1016"
     id="namedview8"
     showgrid="true"
     inkscape:snap-bbox="true"
     inkscape:bbox-nodes="true"
     inkscape:snap-nodes="false"
     inkscape:zoom="27.255752"
     inkscape:cx="11"
     inkscape:cy="11"
     inkscape:window-x="0"
     inkscape:window-y="0"
     inkscape:window-maximized="1"
     inkscape:current-layer="svg6">
    <inkscape:grid
       type="xygrid"
       id="grid4269" />
  </sodipodi:namedview>
  <defs
     id="defs3051">
    <style
       type="text/css"
       id="current-color-scheme">
      .ColorScheme-Text {
        color:#f2f2f2;
      }
      </style>
  </defs>
  <path
     style="fill:currentColor;fill-opacity:1;stroke:none"
     d="m 11.001953,2 -7.34375,7.3125 -1.40625,1.4375 -0.25,0.25 v 4 h 1 2 1 l 0.25,-0.25 0.375,-0.34375 0.6875,-0.71875 0.375,-0.34375 L 14,7 15,6 Z M 10.408203,4 13,6.59375 8.720703,10.84375 6.158203,8.25 Z m -4.96875,4.96875 2.59375,2.59375 -0.71875,0.71875 -2.59375,-2.59375 0.28125,-0.28125 z m -1.40625,1.40625 2.59375,2.59375 -0.71875,0.71875 -2.59375,-2.59375 z"
     class="ColorScheme-Text"
     id="path4"
     inkscape:connector-curvature="0"
     sodipodi:nodetypes="ccccccccccccccccccccccccccccccc" />
  <path
     inkscape:connector-curvature="0"
     style="fill:currentColor;fill-opacity:1;stroke:none;stroke-width:1"
     d="m 17.142857,12.142857 v 0.714286 H 10 V 20 h 10 v -7.142857 h -0.714286 v -0.714286 z m -6.428571,1.428572 h 8.571428 v 5.714285 h -8.571428 z m 2.857143,0.714285 a 2.1428571,2.1428571 0 0 0 -2.142858,2.142857 2.1428571,2.1428571 0 0 0 2.142858,2.142857 2.1428571,2.1428571 0 0 0 2.142857,-2.142857 2.1428571,2.1428571 0 0 0 -2.142857,-2.142857 z m 0,0.714286 A 1.4285714,1.4285714 0 0 1 15,16.428571 1.4285714,1.4285714 0 0 1 13.571429,17.857143 1.4285714,1.4285714 0 0 1 12.142857,16.428571 1.4285714,1.4285714 0 0 1 13.571429,15 Z"
     class="ColorScheme-Text"
     id="path4-3" />
</svg>
