<?xml version="1.0" encoding="UTF-8" standalone="no"?>
<svg
   xmlns:dc="http://purl.org/dc/elements/1.1/"
   xmlns:cc="http://creativecommons.org/ns#"
   xmlns:rdf="http://www.w3.org/1999/02/22-rdf-syntax-ns#"
   xmlns:svg="http://www.w3.org/2000/svg"
   xmlns="http://www.w3.org/2000/svg"
   xmlns:sodipodi="http://sodipodi.sourceforge.net/DTD/sodipodi-0.dtd"
   xmlns:inkscape="http://www.inkscape.org/namespaces/inkscape"
   viewBox="0 0 22 22"
   version="1.1"
   id="svg6"
   sodipodi:docname="show-dso-less.svg"
   inkscape:version="0.92+devel unknown">
  <metadata
     id="metadata10">
    <rdf:RDF>
      <cc:Work
         rdf:about="">
        <dc:format>image/svg+xml</dc:format>
        <dc:type
           rdf:resource="http://purl.org/dc/dcmitype/StillImage" />
        <dc:title></dc:title>
      </cc:Work>
    </rdf:RDF>
  </metadata>
  <sodipodi:namedview
     pagecolor="#ffffff"
     bordercolor="#666666"
     inkscape:document-rotation="0"
     borderopacity="1"
     objecttolerance="10"
     gridtolerance="10"
     guidetolerance="10"
     inkscape:pageopacity="0"
     inkscape:pageshadow="2"
     inkscape:window-width="1920"
     inkscape:window-height="1016"
     id="namedview8"
     showgrid="true"
     inkscape:snap-bbox="true"
     inkscape:bbox-nodes="true"
     inkscape:snap-nodes="false"
     inkscape:zoom="27.255752"
     inkscape:cx="8.3950453"
     inkscape:cy="11"
     inkscape:window-x="0"
     inkscape:window-y="0"
     inkscape:window-maximized="1"
     inkscape:current-layer="svg6">
    <inkscape:grid
       type="xygrid"
       id="grid4269" />
  </sodipodi:namedview>
  <defs
     id="defs3051">
    <style
       type="text/css"
       id="current-color-scheme">
      .ColorScheme-Text {
        color:#f2f2f2;
      }
      </style>
  </defs>
  <path
     style="fill:currentColor;fill-opacity:1;stroke:none;stroke-width:0.99999988"
     d="M 12.333128,8.1519083 C 11.00759,6.7715049 9.0148442,6.6086538 7.8818254,7.7885688 6.7487724,8.9685193 6.636647,10.609235 7.9621858,11.989639 6.8575639,10.839295 7.3373763,9.1882166 8.2816189,8.2049099 9.2258438,7.2215846 10.886973,7.3572339 11.991595,8.5075765 c 0.499251,0.5199138 0.78807,1.1580849 0.879948,1.7922895 A 2.4783556,1.9346843 49.806966 0 0 12.34786,9.5648179 2.4783556,1.9346843 49.806966 0 0 9.2901432,9.1784645 l -0.00334,0.00349 a 2.4783556,1.9346843 49.806966 0 0 -0.1017945,0.11995 c -1.0414205,1.2223165 -0.8783684,3.2277645 0.4044814,4.5637125 1.3255379,1.380402 3.3402019,1.520429 4.4995199,0.313127 1.15935,-1.207337 1.283348,-2.860418 -0.04219,-4.2408211 1.10462,1.1503431 0.609182,2.8176951 -0.356936,3.8237831 -0.9661,1.006105 -2.644866,0.88882 -3.749487,-0.261521 C 9.3669354,12.902991 9.0635243,12.144857 9.0370051,11.412898 a 2.4783556,1.9346843 49.806966 0 0 0.6248031,0.949146 2.4783556,1.9346843 49.806966 0 0 3.0175368,0.422618 l 0.0026,0.0027 c 0.0065,-0.0068 0.01163,-0.01477 0.01809,-0.02162 a 2.4783556,1.9346843 49.806966 0 0 0.01875,-0.01674 2.4783556,1.9346843 49.806966 0 0 0.126568,-0.154123 C 13.792863,11.39212 13.589739,9.4605379 12.33307,8.1518547 Z"
     class="ColorScheme-Text"
     id="path4"
     inkscape:connector-curvature="0" />
</svg>
