<?xml version="1.0" encoding="UTF-8" standalone="no"?>
<svg
   xmlns:dc="http://purl.org/dc/elements/1.1/"
   xmlns:cc="http://creativecommons.org/ns#"
   xmlns:rdf="http://www.w3.org/1999/02/22-rdf-syntax-ns#"
   xmlns:svg="http://www.w3.org/2000/svg"
   xmlns="http://www.w3.org/2000/svg"
   xmlns:sodipodi="http://sodipodi.sourceforge.net/DTD/sodipodi-0.dtd"
   xmlns:inkscape="http://www.inkscape.org/namespaces/inkscape"
   viewBox="0 0 22 22"
   version="1.1"
   id="svg6"
   sodipodi:docname="show-galactic-equator.svg"
   inkscape:version="0.92+devel unknown">
  <metadata
     id="metadata10">
    <rdf:RDF>
      <cc:Work
         rdf:about="">
        <dc:format>image/svg+xml</dc:format>
        <dc:type
           rdf:resource="http://purl.org/dc/dcmitype/StillImage" />
        <dc:title></dc:title>
      </cc:Work>
    </rdf:RDF>
  </metadata>
  <sodipodi:namedview
     pagecolor="#ffffff"
     bordercolor="#666666"
     inkscape:document-rotation="0"
     borderopacity="1"
     objecttolerance="10"
     gridtolerance="10"
     guidetolerance="10"
     inkscape:pageopacity="0"
     inkscape:pageshadow="2"
     inkscape:window-width="1920"
     inkscape:window-height="1016"
     id="namedview8"
     showgrid="true"
     inkscape:snap-bbox="true"
     inkscape:bbox-nodes="true"
     inkscape:snap-nodes="false"
     inkscape:zoom="27.255752"
     inkscape:cx="11"
     inkscape:cy="11"
     inkscape:window-x="0"
     inkscape:window-y="0"
     inkscape:window-maximized="1"
     inkscape:current-layer="svg6">
    <inkscape:grid
       type="xygrid"
       id="grid4269" />
  </sodipodi:namedview>
  <defs
     id="defs3051">
    <style
       type="text/css"
       id="current-color-scheme">
      .ColorScheme-Text {
        color:#f2f2f2;
      }
      </style>
    <inkscape:path-effect
       effect="bspline"
       id="path-effect4268"
       is_visible="true"
       weight="33.333333"
       steps="2"
       helper_size="0"
       apply_no_weight="true"
       apply_with_weight="true"
       only_selected="false" />
  </defs>
  <path
     style="fill:currentColor;fill-opacity:1;stroke:none"
     d="M 13.931641 3 C 12.836484 3.027 11.833639 2.9583531 10.703125 3.2519531 L 10.703125 3.25 C 8.80162 4.0465 7.6923813 5.8106563 7.1933594 7.7226562 C 7.1534984 7.8812562 6.9335938 8.5118094 6.9335938 9.2871094 L 6.9335938 12.154297 C 6.8754468 13.711197 5.7694444 14.663484 4.6191406 15.521484 C 4.0834089 15.900084 3.5249206 16.229641 3 16.619141 L 3.0039062 19 C 5.9728071 18.99 7.2843621 18.979375 9.2773438 18.984375 C 10.881628 16.521975 11.947143 14.792522 11.970703 12.232422 L 11.970703 9.2890625 C 12.040483 8.6647625 12.274194 8.0073187 12.78125 7.9492188 C 13.668538 7.9012187 14.397508 8.1539844 14.875 8.4589844 C 15.140692 8.6305844 15.726147 9.0058594 16.646484 9.0058594 L 18.013672 9.0058594 L 19 9.0058594 L 19 3.9941406 L 17.859375 3.9941406 C 17.054069 4.0591406 16.422819 3.5170531 15.685547 3.2519531 C 15.317995 3.1609531 14.688199 3 13.931641 3 z "
     class="ColorScheme-Text"
     id="path4" />
  <path
     style="fill:none;fill-opacity:1;fill-rule:evenodd;stroke:#3daee9;stroke-width:1.5;stroke-linecap:butt;stroke-linejoin:miter;stroke-miterlimit:1;stroke-dasharray:none;stroke-opacity:1;paint-order:normal"
     d="M 2.5304084,19.469748 C 8.1780127,13.822039 13.824407,8.17554 19.469591,2.5302515"
     id="path4266"
     inkscape:connector-curvature="0"
     inkscape:original-d="M 2.5304084,19.469748 C 8.1780126,13.822039 13.824408,8.1755408 19.469591,2.5302515"
     inkscape:path-effect="#path-effect4268" />
</svg>
