<?xml version="1.0" encoding="UTF-8" standalone="no"?>
<svg
   xmlns:dc="http://purl.org/dc/elements/1.1/"
   xmlns:cc="http://creativecommons.org/ns#"
   xmlns:rdf="http://www.w3.org/1999/02/22-rdf-syntax-ns#"
   xmlns:svg="http://www.w3.org/2000/svg"
   xmlns="http://www.w3.org/2000/svg"
   xmlns:sodipodi="http://sodipodi.sourceforge.net/DTD/sodipodi-0.dtd"
   xmlns:inkscape="http://www.inkscape.org/namespaces/inkscape"
   viewBox="0 0 22 22"
   version="1.1"
   id="svg5"
   sodipodi:docname="show-fits-image-flashing.svg"
   inkscape:version="0.92+devel unknown">
  <metadata
     id="metadata9">
    <rdf:RDF>
      <cc:Work
         rdf:about="">
        <dc:format>image/svg+xml</dc:format>
        <dc:type
           rdf:resource="http://purl.org/dc/dcmitype/StillImage" />
        <dc:title></dc:title>
      </cc:Work>
    </rdf:RDF>
  </metadata>
  <sodipodi:namedview
     pagecolor="#ffffff"
     bordercolor="#666666"
     inkscape:document-rotation="0"
     borderopacity="1"
     objecttolerance="10"
     gridtolerance="10"
     guidetolerance="10"
     inkscape:pageopacity="0"
     inkscape:pageshadow="2"
     inkscape:window-width="1920"
     inkscape:window-height="1016"
     id="namedview7"
     showgrid="true"
     inkscape:zoom="27.255752"
     inkscape:cx="11"
     inkscape:cy="11"
     inkscape:window-x="0"
     inkscape:window-y="0"
     inkscape:window-maximized="1"
     inkscape:current-layer="svg5">
    <inkscape:grid
       type="xygrid"
       id="grid4268" />
  </sodipodi:namedview>
  <defs
     id="defs3051">
    <style
       type="text/css"
       id="current-color-scheme">
      .ColorScheme-Text {
        color:#f2f2f2;
      }
      </style>
  </defs>
  <path
     style="fill:#f2f2f2;fill-opacity:1;stroke:none"
     d="M 16 4 L 16 5 L 2 5 L 2 18 L 15 18 L 15 17 L 3 17 L 3 6 L 19 6 L 19 8 L 20 8 L 20 5 L 19 5 L 19 4 L 16 4 z M 8.5 7 A 4.5 4.5 0 0 0 4 11.5 A 4.5 4.5 0 0 0 8.5 16 A 4.5 4.5 0 0 0 13 11.5 A 4.5 4.5 0 0 0 8.5 7 z M 8.5 8 A 3.5 3.5 0 0 1 12 11.5 A 3.5 3.5 0 0 1 8.5 15 A 3.5 3.5 0 0 1 5 11.5 A 3.5 3.5 0 0 1 8.5 8 z "
     id="rect4211" />
  <path
     style="fill:#fdbc4b;fill-opacity:1;stroke:none"
     d="m 18,7 -4,7 h 2 v 5 l 4,-7 h -2 z"
     class="ColorScheme-Text"
     id="path4"
     inkscape:connector-curvature="0"
     sodipodi:nodetypes="ccccccc" />
</svg>
