<?xml version="1.0" encoding="UTF-8" standalone="no"?>
<svg
   xmlns:dc="http://purl.org/dc/elements/1.1/"
   xmlns:cc="http://creativecommons.org/ns#"
   xmlns:rdf="http://www.w3.org/1999/02/22-rdf-syntax-ns#"
   xmlns:svg="http://www.w3.org/2000/svg"
   xmlns="http://www.w3.org/2000/svg"
   xmlns:sodipodi="http://sodipodi.sourceforge.net/DTD/sodipodi-0.dtd"
   xmlns:inkscape="http://www.inkscape.org/namespaces/inkscape"
   viewBox="0 0 16 16"
   version="1.1"
   id="svg6"
   sodipodi:docname="night-vision.svg"
   width="16"
   height="16"
   inkscape:version="0.92+devel unknown"
   inkscape:export-filename="/mnt/partizione/icone/originali_dark/replace/i82.png"
   inkscape:export-xdpi="96"
   inkscape:export-ydpi="96">
  <metadata
     id="metadata10">
    <rdf:RDF>
      <cc:Work
         rdf:about="">
        <dc:format>image/svg+xml</dc:format>
        <dc:type
           rdf:resource="http://purl.org/dc/dcmitype/StillImage" />
        <dc:title />
      </cc:Work>
    </rdf:RDF>
  </metadata>
  <sodipodi:namedview
     pagecolor="#ffffff"
     bordercolor="#666666"
     inkscape:document-rotation="0"
     borderopacity="1"
     objecttolerance="10"
     gridtolerance="10"
     guidetolerance="10"
     inkscape:pageopacity="0"
     inkscape:pageshadow="2"
     inkscape:window-width="1920"
     inkscape:window-height="1016"
     id="namedview8"
     showgrid="true"
     inkscape:snap-bbox="true"
     inkscape:bbox-nodes="true"
     inkscape:zoom="38.545455"
     inkscape:cx="11"
     inkscape:cy="6.8490566"
     inkscape:window-x="0"
     inkscape:window-y="0"
     inkscape:window-maximized="1"
     inkscape:current-layer="svg6">
    <inkscape:grid
       type="xygrid"
       id="grid4269" />
  </sodipodi:namedview>
  <defs
     id="defs3051">
    <style
       type="text/css"
       id="current-color-scheme">
      .ColorScheme-Text {
        color:#4d4d4d;
      }
      </style>
  </defs>
  <path
     style="fill:#f2f2f2;fill-opacity:1;stroke:none;stroke-width:0.81649655"
     d="M 7.9999996,2 V 2.00147 C 5.3337243,2.0014625 4,3.4911031 4,5.3002906 4,7.2498156 6.5902775,11 6.5902775,11 L 9.4097221,10.9971 C 9.4097221,10.997075 12,7.2498178 12,5.3002974 12,3.4911234 10.667057,2 7.9999996,2 Z m 0,0.7514649 c 2.0743814,0 3.1111114,1.2418165 3.1111114,2.7495117 0,1.6246502 -2.0138893,4.7475584 -2.0138893,4.7475584 l -2.1944442,0.0029 c 0,0 -2.0138887,-3.1258382 -2.0138887,-4.7504884 0,-1.5077174 1.037351,-2.7480467 3.1111108,-2.7480468 z"
     class="ColorScheme-Text"
     id="path4"
     inkscape:connector-curvature="0"
     sodipodi:nodetypes="ccsccsccsccscc" />
  <path
     style="fill:#f2f2f2;fill-opacity:1;stroke:none;stroke-width:0.81009263"
     d="m 6.5188679,11.375 v 1.3125 c 0,0.727125 0.5017504,1.3125 1.1249999,1.3125 H 8.393868 c 0.6232504,0 1.1249999,-0.585375 1.1249999,-1.3125 V 11.375 H 8.393868 7.6438678 Z"
     class="ColorScheme-Text"
     id="path4-3"
     inkscape:connector-curvature="0"
     sodipodi:nodetypes="csssscccc" />
</svg>
