<?xml version="1.0" encoding="UTF-8" standalone="no"?>
<svg
   xmlns:dc="http://purl.org/dc/elements/1.1/"
   xmlns:cc="http://creativecommons.org/ns#"
   xmlns:rdf="http://www.w3.org/1999/02/22-rdf-syntax-ns#"
   xmlns:svg="http://www.w3.org/2000/svg"
   xmlns="http://www.w3.org/2000/svg"
   xmlns:sodipodi="http://sodipodi.sourceforge.net/DTD/sodipodi-0.dtd"
   xmlns:inkscape="http://www.inkscape.org/namespaces/inkscape"
   viewBox="0 0 16 16"
   version="1.1"
   id="svg6"
   sodipodi:docname="telescope-stop-move.svg"
   width="16"
   height="16"
   inkscape:export-filename="/mnt/partizione/icone/originali_dark/replace/i95.png"
   inkscape:export-xdpi="96"
   inkscape:export-ydpi="96"
   inkscape:version="0.92+devel unknown">
  <metadata
     id="metadata10">
    <rdf:RDF>
      <cc:Work
         rdf:about="">
        <dc:format>image/svg+xml</dc:format>
        <dc:type
           rdf:resource="http://purl.org/dc/dcmitype/StillImage" />
        <dc:title></dc:title>
      </cc:Work>
    </rdf:RDF>
  </metadata>
  <sodipodi:namedview
     pagecolor="#ffffff"
     bordercolor="#666666"
     inkscape:document-rotation="0"
     borderopacity="1"
     objecttolerance="10"
     gridtolerance="10"
     guidetolerance="10"
     inkscape:pageopacity="0"
     inkscape:pageshadow="2"
     inkscape:window-width="1920"
     inkscape:window-height="1016"
     id="namedview8"
     showgrid="true"
     inkscape:snap-bbox="false"
     inkscape:bbox-nodes="true"
     inkscape:zoom="38.545455"
     inkscape:cx="6.5475995"
     inkscape:cy="6.8490566"
     inkscape:window-x="0"
     inkscape:window-y="0"
     inkscape:window-maximized="1"
     inkscape:current-layer="svg6"
     inkscape:snap-object-midpoints="true"
     inkscape:snap-center="true"
     inkscape:snap-text-baseline="true"
     inkscape:snap-smooth-nodes="true"
     inkscape:snap-intersection-paths="true"
     inkscape:object-paths="true"
     inkscape:snap-nodes="true"
     inkscape:snap-others="false">
    <inkscape:grid
       type="xygrid"
       id="grid4269" />
  </sodipodi:namedview>
  <defs
     id="defs3051">
    <style
       type="text/css"
       id="current-color-scheme">
      .ColorScheme-Text {
        color:#4d4d4d;
      }
      </style>
  </defs>
  <path
     style="fill:#f2f2f2;fill-opacity:1;stroke:none;stroke-width:0.86602539"
     d="M 7 1 A 6 5.2500075 0 0 0 6.2109375 1.0507812 A 6 5.2500075 0 0 0 6.0722656 1.0664062 C 6.0710456 1.0674162 6.0695794 1.0692925 6.0683594 1.0703125 A 6 5.2500075 0 0 0 1 6.25 L 1 13.25 A 6 1.7499924 0 0 0 6.4589844 14.992188 L 6.4589844 14.121094 A 5.1428571 0.875 0 0 1 1.8574219 13.25 L 1.8574219 7.5957031 A 6 2.625 0 0 0 6.4589844 8.859375 L 6.4589844 7.9902344 A 5.1428571 1.75 0 0 1 1.8574219 6.25 A 5.1428571 4.375 0 0 1 5.0722656 2.1972656 C 4.1948382 3.4973995 3.735647 5.1948425 3.6074219 6.6875 A 5.1428571 1.75 0 0 0 7 7.125 C 7.2559223 4.9416221 8.0218329 3.4107008 8.8125 2.1601562 A 5.1428571 4.375 0 0 1 12.142578 6.25 A 5.1428571 1.75 0 0 1 12.09375 6.4785156 L 13 6.4785156 L 13 6.25 A 6 5.2500075 0 0 0 9.3007812 1.40625 C 9.3014563 1.4052613 9.3020344 1.4033337 9.3027344 1.4023438 A 6 5.2500075 0 0 0 9.2558594 1.3886719 A 6 5.2500075 0 0 0 8.9199219 1.2832031 A 6 5.2500075 0 0 0 8.6796875 1.2128906 A 6 5.2500075 0 0 0 8.3535156 1.1425781 A 6 5.2500075 0 0 0 8.09375 1.0898438 A 6 5.2500075 0 0 0 7.7753906 1.0507812 A 6 5.2500075 0 0 0 7.4941406 1.0214844 A 6 5.2500075 0 0 0 7 1 z "
     id="path4" />
  <ellipse
     style="fill:none;fill-opacity:1;stroke:#da4453;stroke-width:0.99620587;stroke-linejoin:round;stroke-opacity:1;paint-order:markers fill stroke"
     id="path4289"
     cx="11"
     cy="11"
     rx="3.5018971"
     ry="3.5018973" />
  <path
     style="fill:none;fill-rule:evenodd;stroke:#da4453;stroke-width:1px;stroke-linecap:butt;stroke-linejoin:miter;stroke-opacity:1"
     d="M 9,14 13,8"
     id="path4291"
     inkscape:connector-curvature="0"
     sodipodi:nodetypes="cc" />
</svg>
