/* XPM */
static char * compass_xpm[] = {
"80 80 348 2",
"  	c #000000",
". 	c #611313",
"+ 	c #020000",
"@ 	c #BA2525",
"# 	c #160404",
"$ 	c #D52B2B",
"% 	c #390B0B",
"& 	c #130404",
"* 	c #DD2C2C",
"= 	c #5A1212",
"- 	c #0A0A0A",
"; 	c #1D1D1D",
"> 	c #2D2D2D",
", 	c #333333",
"' 	c #522929",
") 	c #E72E2E",
"! 	c #9F2E2E",
"~ 	c #313131",
"{ 	c #212121",
"] 	c #0F0F0F",
"^ 	c #030303",
"/ 	c #1C1C1C",
"( 	c #383838",
"_ 	c #3F3F3F",
": 	c #404040",
"< 	c #3B3B3B",
"[ 	c #2B2B2B",
"} 	c #1E1E1E",
"| 	c #171717",
"1 	c #4A1313",
"2 	c #E82E2E",
"3 	c #D85454",
"4 	c #8E8E8E",
"5 	c #8D8D8D",
"6 	c #8B8B8B",
"7 	c #888888",
"8 	c #7F7F7F",
"9 	c #686868",
"0 	c #494949",
"a 	c #262626",
"b 	c #050505",
"c 	c #010101",
"d 	c #232323",
"e 	c #3E3E3E",
"f 	c #222222",
"g 	c #040404",
"h 	c #2A2A2A",
"i 	c #732C2C",
"j 	c #EF4040",
"k 	c #898989",
"l 	c #8F8F8F",
"m 	c #919191",
"n 	c #858585",
"o 	c #626262",
"p 	c #080808",
"q 	c #636363",
"r 	c #181818",
"s 	c #3C3C3C",
"t 	c #505050",
"u 	c #5A5A5A",
"v 	c #5D5D5D",
"w 	c #525252",
"x 	c #4A4A4A",
"y 	c #474747",
"z 	c #8C2F2F",
"A 	c #F43434",
"B 	c #444444",
"C 	c #484848",
"D 	c #666666",
"E 	c #747474",
"F 	c #848484",
"G 	c #8C8C8C",
"H 	c #909090",
"I 	c #7E7E7E",
"J 	c #1A1A1A",
"K 	c #070707",
"L 	c #414141",
"M 	c #808080",
"N 	c #838383",
"O 	c #585858",
"P 	c #545454",
"Q 	c #454545",
"R 	c #575757",
"S 	c #5C5C5C",
"T 	c #A53030",
"U 	c #FC3333",
"V 	c #685B5B",
"W 	c #595959",
"X 	c #424242",
"Y 	c #4F4F4F",
"Z 	c #606060",
"` 	c #7A7A7A",
" .	c #757575",
"..	c #020202",
"+.	c #303030",
"@.	c #191919",
"#.	c #797979",
"$.	c #565656",
"%.	c #434343",
"&.	c #555555",
"*.	c #515151",
"=.	c #1B1B1B",
"-.	c #121212",
";.	c #A62222",
">.	c #FF3333",
",.	c #3A1313",
"'.	c #363636",
").	c #4E4E4E",
"!.	c #353535",
"~.	c #0B0B0B",
"{.	c #0E0E0E",
"].	c #727272",
"^.	c #2C2C2C",
"/.	c #060101",
"(.	c #551111",
"_.	c #202020",
":.	c #4D4D4D",
"<.	c #323232",
"[.	c #242424",
"}.	c #7D7D7D",
"|.	c #535353",
"1.	c #1C0606",
"2.	c #791818",
"3.	c #464646",
"4.	c #393939",
"5.	c #380B0B",
"6.	c #9E2020",
"7.	c #4B4B4B",
"8.	c #090909",
"9.	c #521010",
"0.	c #BD2626",
"a.	c #2E2E2E",
"b.	c #5B5B5B",
"c.	c #616161",
"d.	c #691515",
"e.	c #E12D2D",
"f.	c #1F1F1F",
"g.	c #343434",
"h.	c #3D3D3D",
"i.	c #5F5F5F",
"j.	c #6C6C6C",
"k.	c #841A1A",
"l.	c #070101",
"m.	c #4C4C4C",
"n.	c #9A1F1F",
"o.	c #2B0909",
"p.	c #787878",
"q.	c #151515",
"r.	c #0D0D0D",
"s.	c #5E5E5E",
"t.	c #040101",
"u.	c #B12323",
"v.	c #4F1010",
"w.	c #110303",
"x.	c #721717",
"y.	c #131313",
"z.	c #2C0909",
"A.	c #941E1E",
"B.	c #272727",
"C.	c #420D0D",
"D.	c #B92525",
"E.	c #7C7C7C",
"F.	c #818181",
"G.	c #111111",
"H.	c #5D1212",
"I.	c #252525",
"J.	c #771818",
"K.	c #F93232",
"L.	c #080202",
"M.	c #646464",
"N.	c #282828",
"O.	c #921D1D",
"P.	c #270808",
"Q.	c #A92222",
"R.	c #460E0E",
"S.	c #373737",
"T.	c #0C0202",
"U.	c #B82525",
"V.	c #6A1515",
"W.	c #6D6D6D",
"X.	c #060606",
"Y.	c #3A0C0C",
"Z.	c #8F1D1D",
"`.	c #868686",
" +	c #3E0C0C",
".+	c #AD2323",
"++	c #D22A2A",
"@+	c #8C1C1C",
"#+	c #FC3232",
"$+	c #292929",
"%+	c #951E1E",
"&+	c #0C0C0C",
"*+	c #A52121",
"=+	c #3B0C0C",
"-+	c #B62424",
";+	c #B72929",
">+	c #AA3C3C",
",+	c #C04A4A",
"'+	c #D64B4B",
")+	c #F03C3C",
"!+	c #6A6A6A",
"~+	c #180505",
"{+	c #B62C2C",
"]+	c #995B5B",
"^+	c #8A8282",
"/+	c #8A8787",
"(+	c #A66D6D",
"_+	c #E44343",
":+	c #821A1A",
"<+	c #4C3D3D",
"[+	c #8C7777",
"}+	c #959595",
"|+	c #989898",
"1+	c #969696",
"2+	c #929292",
"3+	c #8C8787",
"4+	c #101010",
"5+	c #2F2F2F",
"6+	c #8A8A8A",
"7+	c #707070",
"8+	c #A9A9A9",
"9+	c #B8B8B8",
"0+	c #BDBDBD",
"a+	c #BBBBBB",
"b+	c #B1B1B1",
"c+	c #9B9B9B",
"d+	c #3A3A3A",
"e+	c #979797",
"f+	c #B4B4B4",
"g+	c #C0C0C0",
"h+	c #9E9E9E",
"i+	c #161616",
"j+	c #AAAAAA",
"k+	c #B5B5B5",
"l+	c #7B7B7B",
"m+	c #656565",
"n+	c #B7B7B7",
"o+	c #BFBFBF",
"p+	c #9D9D9D",
"q+	c #737373",
"r+	c #717171",
"s+	c #6E6E6E",
"t+	c #767676",
"u+	c #9A9A9A",
"v+	c #A5A5A5",
"w+	c #141414",
"x+	c #BABABA",
"y+	c #A2A2A2",
"z+	c #696969",
"A+	c #B0B0B0",
"B+	c #999999",
"C+	c #A7A7A7",
"D+	c #878787",
"E+	c #939393",
"F+	c #454755",
"G+	c #87878B",
"H+	c #949494",
"I+	c #A0A0A0",
"J+	c #8D8E8E",
"K+	c #6E6F76",
"L+	c #101328",
"M+	c #4B5591",
"N+	c #737689",
"O+	c #82848B",
"P+	c #61699F",
"Q+	c #29336A",
"R+	c #070812",
"S+	c #3B4897",
"T+	c #4A5491",
"U+	c #5F658B",
"V+	c #73778D",
"W+	c #697099",
"X+	c #5F699F",
"Y+	c #4D5CB2",
"Z+	c #4858B8",
"`+	c #212854",
" @	c #38448F",
".@	c #4453AD",
"+@	c #181D3E",
"@@	c #303A7A",
"#@	c #0F1327",
"$@	c #2C3570",
"%@	c #06070F",
"&@	c #222957",
"*@	c #4352AB",
"=@	c #020306",
"-@	c #141833",
";@	c #354188",
">@	c #6B6B6B",
",@	c #131730",
"'@	c #38448B",
")@	c #828282",
"!@	c #060710",
"~@	c #3B4896",
"{@	c #272F62",
"]@	c #37438C",
"^@	c #181D3D",
"/@	c #2E3977",
"(@	c #0E1123",
"_@	c #272F63",
":@	c #030408",
"<@	c #1E254E",
"[@	c #414FA5",
"}@	c #171C3C",
"|@	c #38458F",
"1@	c #101429",
"2@	c #2E3875",
"3@	c #090B17",
"4@	c #252D5F",
"5@	c #020205",
"6@	c #3A4693",
"7@	c #1B2144",
"8@	c #344086",
"9@	c #10142A",
"0@	c #2C3671",
"a@	c #060810",
"b@	c #232B5A",
"c@	c #4555B1",
"d@	c #000001",
"e@	c #1C2248",
"f@	c #141832",
"g@	c #313C7D",
"h@	c #0D0F20",
"i@	c #04050B",
"j@	c #1C2348",
"k@	c #6F6F6F",
"l@	c #12162E",
"m@	c #3B478F",
"n@	c #494A55",
"o@	c #3D457C",
"p@	c #4857B4",
"q@	c #404042",
"r@	c #4A5387",
"s@	c #4958B1",
"t@	c #6C7194",
"u@	c #323D80",
"v@	c #4D5377",
"w@	c #4250A8",
"x@	c #47518E",
"y@	c #080914",
"z@	c #1D244B",
"A@	c #404FA4",
"B@	c #151935",
"C@	c #3A4794",
"D@	c #0A0D1B",
"E@	c #303B7B",
"F@	c #030307",
"G@	c #090B18",
"                                                                              . +                                                                               ",
"                                                                              @ #                                                                               ",
"                                                                              $ %                                                                               ",
"                                                                            & * =                                                                               ",
"                                                                    - ; > , ' ) ! , ~ { ]                                                                       ",
"                                                          ^ / ( _ : < [ } | 1 2 3 4 5 6 7 8 9 0 a b                                                             ",
"                                                    c d e < f g     b | d h i 2 j k 6 5 l m m m 4 n o > g                                                       ",
"                                                p e q / c   r s t u v w x y z 2 A B C t u D E F G H m l I C J                                                   ",
"                                            K L M H N | e O P B : : Q t R S T 2 U V W w 0 : : X Y Z ` 5  ...+.C @.                                              ",
"                                        c +.#.H m 6  .$.%.: C &.*.C s [ =.-.;.2 >.,.| a '.Q t W ).X L Y u , ^ ..!.%.~.                                          ",
"                                      {.9 4 m G ].Y : Q W x ^.-           /.@ 2 >.(.          b _.e O :.: C R <.g - X , c                                       ",
"                                    [.}.m H }.|.: 0 v ( ~.                1.@ 2 >.2.                c [.*.t : C W {   { L ^                                     ",
"                                c 3.6 m k o X Q S 4.b                     5.@ 2 >.6.                      _.w 7.: &.7.K {.X 8.                                  ",
"                              b |.4 H I ).: $.3.-                         9.@ 2 >.0.                        c a.R %.y b.r ^ < -.                                ",
"                            b c.H l ].Q %.P J                             d.@ 2 >.e.                            - Y 7.L v f.c g.;                               ",
"                          b h.i.G j.%.y :.8.                              k.@ 2 >.>.l.                            .._ &.: &.a._ 8 ;                             ",
"                        c s p } D L m._ c                                 n.@ 2 >.>.o.                                h b.: *.n m p.-.                          ",
"                        h.q.r.s.L *.~                                   t.u.@ 2 >.>.v.                                  / u : O 6 m  .-                         ",
"                      f h K S %.m.~                                     w.@ @ 2 >.>.x.                                    y.&.: Z 5 H R c                       ",
"                    ] e   m.3.y _                                       z.@ @ 2 >.>.A.                                      f.|.: j.l 5 g.                      ",
"                  c &.p B.|.%.W g                                       C.@ @ 2 >.>.D.                                        g.).B E.m F.G.                    ",
"                  +.[.- v : S ]                                         H.@ @ 2 >.>.*                                           y Q ).7 H S c                   ",
"                b L   y %.$.I.                                          J.@ @ 2 >.>.K.L.                                        b b.L M.l 6 N.                  ",
"                g.{.=.&.%.x                                             O.@ @ 2 >.>.>.P.                                          f.P %.I m j...                ",
"              g s   :.: R r.                                            Q.@ @ 2 >.>.>.R.                                            0 L W 4 6 [                 ",
"              g.{./ |.3.S.                                            T.U.@ @ 2 >.>.>.V.                                            -.$.X I m W.c               ",
"            c j.X Y : O X.                                            Y.@ @ @ 2 >.>.>.Z.                                              y L b.`.9 a               ",
"            f G 4 W Q (                                                +@ @ @ 2 >.>.>..+                                              r |.3.h.X.:.              ",
"            |.m F %.O r.                                              (.@ @ @ 2 >.>.>.++                                                P : w   y -             ",
"          ..` m 9 : x                                                 @+@ @ @ 2 >.>.>.#+w.                                              g.x P / f $+            ",
"          | 6 4 $.C ^.                                                %+@ @ @ 2 >.>.>.>.#                                               &+Z B s X.Q             ",
"          4.l 7 3.R ]                                                 *+@ @ @ 2 >.>.>.>.=+                                                s.: ).  7.            ",
"          v m ` : &.                                                /.-+@ ;+>+,+'+)+>.>..                                                 x X W g < r.          ",
"           .m !+: m.                                                ~+{+]+^+6 5 G /+(+_+:+                                                a.m.|.=.a /           ",
"        - n H s.B e                                             g q.<+[+H m }+|+1+2+m 3+]+{ 4+^                                           y.$.7.5+-.a.          ",
"        ; 6+4 w ).^.                              8.} > s 7.Z 7+}.I N m 1+8+9+0+a+b+c+m 6+I I #.W.v m.g._.y.                              c W X y ^ d+          ",
"        h G G x $.f.              c {.{ +.X P D p.I I I I I I I I 8 l e+f+g+g+g+g+g+a+h+m n I I I I I I I I I W.b.0 S.N.i+X.                *.: *.  X           ",
"        <.5 6 y u q.g G.d !.B $.9 ` I I I I I I I I I I I I I I I `.m j+g+g+g+g+g+g+g+k+}+5 I I I I I I I I I I I I I I I l+7+s.Y h.[ @.p   m.: P   e           ",
"      b h.6+N m+ .W.#.I I I I I I I I I I I I I I I I I I I I I I G }+n+g+g+g+g+g+g+g+o+p+m I I I I I I I I I I I I I I I I I I I I I I }.q+r+9 s+> P 8...      ",
"<.).M.t+t+t+t+t+t+t+t+t+t+t+t+t+t+t+t+t+t+t+t+t+t+t+t+t+t+t+t+t+p.G u+a+g+g+g+g+g+g+g+g+v+m I t+t+t+t+t+t+t+t+t+t+t+t+t+t+t+t+t+t+t+t+t+t+t+t+t+t+t+t+].m+&.Q 8.",
"c - w+; d+<.e Q Q Q Q Q Q Q Q Q Q Q Q Q Q Q Q Q Q Q Q Q Q Q Q Q &.G e+x+g+g+g+g+g+g+g+g+y+m z+Q Q Q Q Q Q Q Q Q Q Q Q Q Q Q Q Q Q Q Q Q Q Q Q Q ).W m._.| ] b   ",
"        <.q.a.Q u =.@.{ [ !.h.B Q Q Q Q Q Q Q Q Q Q Q Q Q Q Q Q x 7 m A+g+g+g+g+g+g+g+x+B+l Z Q Q Q Q Q Q Q Q Q Q Q Q Q Q Q Q Q : S.> I.=.y.m.: t+m u           ",
"        <.@.N.C O @.          g - w+; a 5+4.X Q Q Q Q Q Q Q Q Q Q s+m c+a+g+g+g+g+g+o+C+m D+7.Q Q Q Q Q Q Q Q Q %.< , $+{ | ] b             w : l+m |.          ",
"        _.[ i+*.*.h                           p 4+J a a.g.B Q Q Q Y n m p+k+o+g+g+x+C+E+l M.Q Q Q Q d+> d / -.p ..                          i.L `.m L           ",
"        4+< 8.u 0 4.                                        X.{.i+f.F+G+m H+p+v+I+e+m J+K+f.} -.p ..                                      &+c.y 7 H ,           ",
"          :.c b.: Q                                                 L+M+N+G m m m l O+P+Q+                                                I.|.t G G [.          ",
"          ).  $.: ).                                                R+S+S+T+U+V+W+X+Y+Z+`+                                                h.y W l k w+          ",
"          B X.0 X R b                                                  @S+S+S+.@Z+Z+Z+Z++@                                                &.: z+m I ^           ",
"          a f [.Y m.d                                                 @@S+S+S+.@Z+Z+Z+Z+#@                                              K c.L M m b.            ",
"          X.d+X.u L %.                                                $@S+S+S+.@Z+Z+Z+Z+%@                                              N.*.).6+5 !.            ",
"            X   C L W ^                                               &@S+S+S+.@Z+Z+Z+*@=@                                              m.: m+H D+w+            ",
"            > G.} *.x ^.                                              -@S+S+S+.@Z+Z+Z+;@                                              {.O X M m q               ",
"            b w S >@: t                                               ,@S+S+S+.@Z+Z+Z+'@                                              h.Q *.v )@~               ",
"              ).m 7 C t _.                                            !@~@S+S+.@Z+Z+Z+{@                                            g b.: P c ).X.              ",
"              w+k H 9 : *.c                                             ]@S+S+.@Z+Z+Z+^@                                            g.C m.$+-.%.                ",
"                |.m 7 x 7.>                                             /@S+S+.@Z+Z+Z+(@                                          p $.: $.c C ~.                ",
"                -.F H r+: R -                                           _@S+S+.@Z+Z+Z+:@                                          Q %.P f.| e                   ",
"                  B l 5 R %.:.c                                         <@S+S+.@Z+Z+[@                                          I.:.B y   7.^                   ",
"                  K  .m F.y C s                                         }@S+S+.@Z+Z+|@                                        q.w : &.p h _.                    ",
"                    d D+m ].L Y h                                       1@S+S+.@Z+Z+2@                                      &+$.: O r - _                       ",
"                      %.l 4 q : u ;                                     3@S+S+.@Z+Z+4@                                    X.W %.*., c X K                       ",
"                      ^ M.m G W : u y.                                  5@6@S+.@Z+Z+7@                                  b &.3.0 (   +.=.                        ",
"                        - q+m k *.: &.f.                                  8@S+.@Z+Z+9@                                r.u 3.%.B c N.$+                          ",
"                          -.E.)@_ $.: |.>                                 0@S+.@Z+Z+a@                              q.b.%.x ` i.f ,                             ",
"                            ; %.  f W : t 3.X.                            b@S+.@Z+c@d@                            N.v L *.)@m 6 0                               ",
"                              ; < ^ | P B C b.N.                          e@S+.@Z+S+                          4+7.$.: s.k m 6+< c                               ",
"                                -.0 8.X.m.0 L R W J                       f@S+.@Z+g@                      p : i.Q %.z+5 m `.[                                   ",
"                                  8.B @.c , R L %.b.t J                   h@S+.@Z+_@                  K e v y : |.}.l H q+=.                                    ",
"                                      <., ^ ~.y $.X L |.P , r.            i@S+.@Z+j@            g { x W 3.: :.k@G m 6 O K                                       ",
"                                        G.: /   G.Q R B : 0 Z s.0 a.G...     @.@Z+l@    p [.h.$.q &.: L *.k@6 m l p.[                                           ",
"                                            a L ;   g.n j.P B : %.*.s.c.P |.m@.@Z+n@:.$.O t y : L :.$.e 9 m 4 F.3.K                                             ",
"                                              c [ x >@H m G n r+v w 0 : : : o@.@p@q@: : y t W &.y [ ^   L 8 B ~.                                                ",
"                                                    a &.F.G H m H 5 6+`.I ` r@.@s@W &.7.s d ~.    i+( :.~ b                                                     ",
"                                                        - $+Q 9 N 6 l m m m t@.@u@      8.f.~ s h.<.4+                                                          ",
"                                                                b q.$+_ m.R v@w@x@d+0 ( 5+@.K                                                                   ",
"                                                                            y@w@z@                                                                              ",
"                                                                            5@A@B@                                                                              ",
"                                                                              C@D@                                                                              ",
"                                                                              E@F@                                                                              ",
"                                                                              G@                                                                                "};
