/* XPM */
static char * compass_xpm[] = {
"80 80 335 2",
"  	c #000000",
". 	c #020202",
"+ 	c #0D0D0D",
"@ 	c #191919",
"# 	c #2C2C2C",
"$ 	c #404040",
"% 	c #4B4B4B",
"& 	c #4E4E4E",
"* 	c #5C5C5C",
"= 	c #595959",
"- 	c #545050",
"; 	c #5B5B5B",
"> 	c #4C4C4C",
", 	c #181818",
"' 	c #0B0B0B",
") 	c #010101",
"! 	c #0E0E0E",
"~ 	c #272727",
"{ 	c #464646",
"] 	c #646464",
"^ 	c #777777",
"/ 	c #7E7E7E",
"( 	c #7F7F7F",
"_ 	c #808080",
": 	c #7A7474",
"< 	c #765E5E",
"[ 	c #7D7D7D",
"} 	c #626262",
"| 	c #424242",
"1 	c #232323",
"2 	c #090909",
"3 	c #2F2F2F",
"4 	c #585858",
"5 	c #787878",
"6 	c #7A7A7A",
"7 	c #727272",
"8 	c #696969",
"9 	c #5D5D5D",
"0 	c #5A5A5A",
"a 	c #604C4C",
"b 	c #7B4141",
"c 	c #767676",
"d 	c #2D2D2D",
"e 	c #141414",
"f 	c #494949",
"g 	c #717171",
"h 	c #707070",
"i 	c #525252",
"j 	c #363636",
"k 	c #202020",
"l 	c #101010",
"m 	c #060606",
"n 	c #2F0909",
"o 	c #701616",
"p 	c #1E1E1E",
"q 	c #323232",
"r 	c #505050",
"s 	c #6F6F6F",
"t 	c #161616",
"u 	c #4D4D4D",
"v 	c #797979",
"w 	c #6C6C6C",
"x 	c #1B1B1B",
"y 	c #4B0F0F",
"z 	c #931D1D",
"A 	c #050505",
"B 	c #171717",
"C 	c #3C3C3C",
"D 	c #676767",
"E 	c #545454",
"F 	c #484848",
"G 	c #661414",
"H 	c #B32323",
"I 	c #020000",
"J 	c #030303",
"K 	c #1D1D1D",
"L 	c #7B7B7B",
"M 	c #4F4F4F",
"N 	c #0F0F0F",
"O 	c #2B2B2B",
"P 	c #6D6D6D",
"Q 	c #4A4A4A",
"R 	c #131313",
"S 	c #861A1A",
"T 	c #CA2828",
"U 	c #050101",
"V 	c #040404",
"W 	c #535353",
"X 	c #7C7C7C",
"Y 	c #A42020",
"Z 	c #E22E2E",
"` 	c #0C0202",
" .	c #222222",
"..	c #636363",
"+.	c #212121",
"@.	c #C02626",
"#.	c #F23030",
"$.	c #1D0505",
"%.	c #242424",
"&.	c #444444",
"*.	c #070101",
"=.	c #D92B2B",
"-.	c #FB3333",
";.	c #340A0A",
">.	c #383838",
",.	c #3B3B3B",
"'.	c #282828",
").	c #140404",
"!.	c #EC3030",
"~.	c #FD3535",
"{.	c #4D0F0F",
"].	c #1F1F1F",
"^.	c #070707",
"/.	c #515151",
"(.	c #3E3E3E",
"_.	c #270707",
":.	c #F73131",
"<.	c #FF3333",
"[.	c #6B1515",
"}.	c #666666",
"|.	c #656565",
"1.	c #898989",
"2.	c #B0B0B0",
"3.	c #400C0C",
"4.	c #8B1B1B",
"5.	c #121212",
"6.	c #939393",
"7.	c #B6B6B6",
"8.	c #591111",
"9.	c #AA2222",
"0.	c #111111",
"a.	c #393939",
"b.	c #606060",
"c.	c #080808",
"d.	c #B2B2B2",
"e.	c #781818",
"f.	c #C72727",
"g.	c #030101",
"h.	c #9D9D9D",
"i.	c #252525",
"j.	c #E02C2C",
"k.	c #747474",
"l.	c #BBBBBB",
"m.	c #6E6E6E",
"n.	c #757575",
"o.	c #EE3030",
"p.	c #180404",
"q.	c #6A6A6A",
"r.	c #BABABA",
"s.	c #575757",
"t.	c #303030",
"u.	c #CF2929",
"v.	c #F83434",
"w.	c #2D0909",
"x.	c #A3A3A3",
"y.	c #0E0202",
"z.	c #E32D2D",
"A.	c #FD3333",
"B.	c #480E0E",
"C.	c #3D3D3D",
"D.	c #2E2E2E",
"E.	c #6B6B6B",
"F.	c #F33131",
"G.	c #0C0C0C",
"H.	c #360A0A",
"I.	c #841A1A",
"J.	c #565656",
"K.	c #A22020",
"L.	c #151515",
"M.	c #474747",
"N.	c #DB2B2B",
"O.	c #3F3F3F",
"P.	c #A72121",
"Q.	c #5F5F5F",
"R.	c #C42626",
"S.	c #2A0808",
"T.	c #313131",
"U.	c #090101",
"V.	c #5E1212",
"W.	c #555555",
"X.	c #F83232",
"Y.	c #7D1919",
"Z.	c #410D0D",
"`.	c #9D1F1F",
" +	c #1C1C1C",
".+	c #373737",
"++	c #5A1212",
"@+	c #B92525",
"#+	c #3A3A3A",
"$+	c #7A1818",
"%+	c #D52B2B",
"&+	c #5E5E5E",
"*+	c #981E1E",
"=+	c #0F0303",
"-+	c #0A0A0A",
";+	c #B62424",
">+	c #220606",
",+	c #D22A2A",
"'+	c #3C0C0C",
")+	c #E92F2F",
"!+	c #F13535",
"~+	c #CA5858",
"{+	c #B78181",
"]+	c #B58787",
"^+	c #C36363",
"/+	c #E43C3C",
"(+	c #DC3E3E",
"_+	c #B89898",
":+	c #BFBFBF",
"<+	c #C0C0C0",
"[+	c #B8ACAC",
"}+	c #D05454",
"|+	c #731717",
"1+	c #2A0C0C",
"2+	c #B39797",
"3+	c #BAB4B4",
"4+	c #722E2E",
"5+	c #737373",
"6+	c #2B2929",
"7+	c #BCBCBC",
"8+	c #736D6D",
"9+	c #2A2A2A",
"0+	c #444040",
"a+	c #858181",
"b+	c #A0A0A0",
"c+	c #8E8E8E",
"d+	c #393131",
"e+	c #BEBEBE",
"f+	c #7D7777",
"g+	c #212747",
"h+	c #AAABB2",
"i+	c #BCBDBE",
"j+	c #51587F",
"k+	c #010205",
"l+	c #1A2044",
"m+	c #626CA6",
"n+	c #B3B4B7",
"o+	c #7C81A4",
"p+	c #344086",
"q+	c #000002",
"r+	c #121630",
"s+	c #4656B6",
"t+	c #5460A8",
"u+	c #858AA5",
"v+	c #A5A6AD",
"w+	c #A6A7AE",
"x+	c #9497A8",
"y+	c #5F69A3",
"z+	c #4757B5",
"A+	c #2B3571",
"B+	c #0A0D1C",
"C+	c #4555B5",
"D+	c #4858B8",
"E+	c #4555B1",
"F+	c #4656B4",
"G+	c #212957",
"H+	c #05060D",
"I+	c #4252AE",
"J+	c #181E40",
"K+	c #020306",
"L+	c #3D4BA1",
"M+	c #0F1227",
"N+	c #333333",
"O+	c #36438E",
"P+	c #4454B2",
"Q+	c #080A16",
"R+	c #2F3A7B",
"S+	c #3F4DA5",
"T+	c #030407",
"U+	c #686868",
"V+	c #262F64",
"W+	c #374491",
"X+	c #010203",
"Y+	c #1E2550",
"Z+	c #161B3A",
"`+	c #4757B7",
" @	c #252E61",
".@	c #343434",
"+@	c #0E1124",
"@@	c #1C224A",
"#@	c #434343",
"$@	c #4453B0",
"%@	c #4656B8",
"&@	c #131731",
"*@	c #030409",
"=@	c #4555B3",
"-@	c #3A4898",
";@	c #4150AB",
">@	c #323E84",
",@	c #3B4999",
"'@	c #020204",
")@	c #333E85",
"!@	c #353535",
"~@	c #222A5A",
"{@	c #29326B",
"]@	c #1F2651",
"^@	c #161C3C",
"/@	c #0C0F1E",
"(@	c #AAAAAA",
"_@	c #060710",
":@	c #4251AC",
"<@	c #070811",
"[@	c #9C9C9C",
"}@	c #AEAEAE",
"|@	c #262626",
"1@	c #35418B",
"2@	c #616161",
"3@	c #2D3877",
"4@	c #273065",
"5@	c #232B5D",
"6@	c #191F43",
"7@	c #11152D",
"8@	c #0E1126",
"9@	c #090B19",
"0@	c #090B17",
"a@	c #404FA8",
"b@	c #04050C",
"c@	c #404EA6",
"d@	c #394695",
"e@	c #010103",
"f@	c #454545",
"g@	c #3B4899",
"h@	c #303B7E",
"i@	c #273067",
"j@	c #2B356F",
"k@	c #1D244D",
"l@	c #151A37",
"m@	c #292929",
"n@	c #1D2345",
"o@	c #131627",
"p@	c #595C6F",
"q@	c #686970",
"r@	c #68696E",
"s@	c #767678",
"t@	c #1A1A1A",
"                                                              . + @ # $ % & * = - ; > % $ # , ' .                                                               ",
"                                                      ) ! ~ { ] ^ / ( _ _ _ _ : < _ _ _ _ ( [ ^ } | 1 ' )                                                       ",
"                                                  2 3 4 5 ( _ _ _ ( 6 7 8 9 0 a b = 9 8 7 6 / _ _ _ ( c 4 d 2                                                   ",
"                                            ) e f g ( _ _ / h i j k l m . )   n o   ) . m l p q r s [ _ _ ( g f e )                                             ",
"                                        ) t u v _ _ [ w | x m                 y z                 A B C D [ _ _ v E x )                                         ",
"                                      ' F v _ _ 5 u k A                       G H I                     J K % 5 _ _ L M N                                       ",
"                                  . O P _ _ 5 Q R )                           S T U                         ) R Q 5 _ _ 7 q V                                   ",
"                                l W [ _ X u R                               I Y Z `                               R u L _ / 0 N                                 ",
"                               .s _ ( ..+.)                                 I @.#.$.                                ) @ ; / _ h %.)                             ",
"                          J j ^ _ X &.m                                     *.=.-.;.                                    J >.5 _ L ,.J                           ",
"                        V F [ _ h '.)                                       ).!.~.{.                                        ].P _ / Q V                         ",
"                      ^./.( _ _ (.                                          _.:.<.[.                                          t }._ ( E ^.                      ",
"                    V /._ _ |.1.2.$ )                                       3.-.<.4.                                            + ; _ _ /.V                     ",
"                  . F ( _ 0 ' 5.6.7.|                                       8.~.<.9.I                                             0.P _ ( F .                   ",
"                ) a.[ _ b.c.    5.6.d.d                                     e.<.<.f.g.                                          2 / h.|._ [ a.)                 ",
"                +.6 _ D !         5._ i.                                    z <.<.j.`                                         V k.l.f ! }._ 6 +.                ",
"              + m._ n.,             .                                     I H <.<.o.p.                                      V q.r.= .   N P _ m.+               ",
"            J s._ [ t.                                                    U u.<.<.v.w.                                      t x.0 .        .6 _ s.J             ",
"            O / _ > .                                                     y.z.<.<.A.B.                                        R .         ) C.( / D.            ",
"          c.E._ E.2                                                       $.F.<.<.<.G                                                       ^.|._ h G.          ",
"          (.( [ '.                                                        H.-.<.<.<.I.                                                        +.[ _ % )         ",
"        l n._ J..                                                         {.~.<.<.<.K.                                                        ) E _ v L.        ",
"        M._ L @                                                           [.<.<.<.<.@.I                                                         e 5 _ %         ",
"      N c _ E )                                                           S <.<.<.<.N.*.                                                          % _ c N       ",
"      O._ [ ].                                                          I P.<.<.<.<.o.).                                                          R 5 _ $       ",
"    V D _ Q..                                                           I R.<.<.<.<.v.S.                                                          ) i _ E.m     ",
"    K [ _ T.                                                            U.N.<.<.<.<.A.3.                                                            %./ / ~     ",
"    { _ 5 l                                                             ).o.<.<.<.<.<.V.                                                            ^.h _ i )   ",
"  m E._ W.)                                                             _.X.<.<.<.<.<.Y.                                                              M._ 7 c.  ",
"  x X _ q                                                               Z.A.<.<.<.<.<.`.                                                              1 ( /  +  ",
"  .+_ X e                                                               ++~.<.<.<.<.<.@+I                                                             2 n._ #+  ",
"  W._ E.J                                                               $+<.<.<.<.<.<.%+U                                                             ) &+_ 4 ) ",
"J E._ /.                                                                *+<.<.<.<.<.<.!.=+                                                              $ _ m.V ",
"-+^ _ j                                                               I ;+<.<.<.<.<.<.X.>+                                                              # _ 6 ! ",
"e [ ( %.                                                              g.,+<.<.A.A.<.<.A.'+                                                              x / ( p ",
"%.( [ L.                                                              ` )+!+~+{+]+^+/+A.++                                                              ! v _ q ",
"# _ L 0.                                                              $.(+_+:+<+<+:+[+}+|+                                                              c.n._ #+",
"#+_ n.c.                                                              1+2+<+<+<+<+<+<+3+4+                                                              ^.5+_ (.",
"O._ 5+-+A A A A )                                                     6+7+<+<+<+<+<+<+<+8+                                                    ) A A A A ^.8 _ % ",
"% _ 8 }.x.x.x.x.9+                                                    0+:+<+<+<+<+<+<+<+a+g.                                                  B b+x.x.x.c+m._ > ",
"f _ w % k.k.k.k.p                                                     d+e+<+<+<+<+<+<+<+f+g.                                                  l 7 k.k.k.}.w _ > ",
",._ n.c.                                                              g+h+<+<+<+<+<+<+i+j+k+                                                            V P _ F ",
">._ ^ '                                                               l+m+n+<+<+<+<+i+o+p+q+                                                            c.n._ #+",
"9+_ X 5.                                                              r+s+t+u+v+w+x+y+z+A+                                                              c.n._ #+",
"].( [ @                                                               B+C+D+s+E+E+F+D+D+G+                                                              0.L _ d ",
"0.L _ O                                                               H+I+D+D+D+D+D+D+D+J+                                                              +.( / @ ",
"c.k._ $                                                               K+L+D+D+D+D+D+D+s+M+                                                              N+_ ^ -+",
". D _ ; )                                                             q+O+D+D+D+D+D+D+P+Q+                                                              % _ 8 J ",
"  % _ 5+c.                                                              R+D+D+D+D+D+D+S+T+                                                            J U+_ >   ",
"  O ( ( +.                                                              V+D+D+D+D+D+D+W+X+                                                            R X ( d   ",
"  l ^ _ (.                                                              Y+D+D+D+D+D+D+R+                                                              3 _ 6 5.  ",
"  . Q._ D V                                                             Z+`+D+D+D+D+D+ @                                                            ) = _ 8 V   ",
"    .@_ [  +                                                            +@s+D+D+D+D+D+@@                                                            l v _ |     ",
"    l v _ #@                                                            Q+$@D+D+D+D+%@&@                                                            j _ L @     ",
"    ) 9 _ s 2                                                           *@S+D+D+D+D+=@B+                                                          m U+_ b..     ",
"      # ( ( .@                                                          k+-@D+D+D+D+;@H+                                                          3 ( ( q       ",
"      A D _ D V                                                         q+>@D+D+D+D+,@'@                                                        A U+_ P ^.      ",
"        D.( ( 3                                                           A+D+D+D+D+)@q+                                                        3 ( ( !@        ",
"        A |._ P 2                                                         ~@D+D+D+D+{@                                                        ^.8 _ w c.        ",
"          +.X _ { )                                                       l+D+D+D+D+]@                                                      ) C.( / #           ",
"          . E _ 6 K                                                       r+%@D+D+`+^@                                        e +.          L.n._ s..           ",
"            t c _ 8 '                                                     /@=@D+D+C++@                                      ) 5 (@.@      m 9 _ c R             ",
"              a./ _ /.J         2 s.G.                                    _@:@D+D+:@<@                                        , [@d..+  ) | ( / j               ",
"              A W _ / !@      ^./ 7.q                                     T+L+D+D+L+T+                                          @ [@}@|@d L _ W V               ",
"                ' 8 _ 6 #   V E.l.W )                                     X+O+D+D+1@X+                                            , 6.2@6 _ 8 '                 ",
"                  , 5+_ c  .] r.= .                                         R+D+D+3@                                                '.c _ 5+,                   ",
"                    1 c _ c D J..                                           4@D+D+5@                                              +.n._ c 1                     ",
"                      d L _ 6 q )                                           Y+D+`+6@                                          ) # c _ L d                       ",
"                        9+c _ [ ,.J                                         Z+`+s+7@                                        . >.L _ v 3                         ",
"                           .g _ / W.+                                       8@s+P+9@                                      c.Q [ _ c %.)                         ",
"                            B ] _ _ E.+.)                                   0@$@a@b@                                    , ..( _ w k                             ",
"                              2 Q X _ L > G.                                b@c@d@e@                                -+f@5 _ / r G.                              ",
"                                ) 3 g _ _ g .+c.                            '@g@h@q+                            -+.+m._ _ g D..                                 ",
"                                    e u 6 _ ( m.C.+                         q+)@i@                          2 j w ( _ X r 0.                                    ",
"                                      .  += X _ _ n.u |@^.                    j@k@                    A +.% 7 ( _ [ Q.+.)                                       ",
"                                          . |@&+X _ _ ( s > O + .             ~@l@            . G.m@F q./ _ _ X &+i.J                                           ",
"                                              J @ { h / _ _ ( 5 D W O.# k e 0.n@o@0.L.k # (.r ] 5 ( _ _ / s { @ J                                               ",
"                                                    2 ~ /.h [ _ _ _ _ ( ( X L p@q@X [ ( ( _ _ _ _ [ g i ~ c.                                                    ",
"                                                          c.K O.0 q.n.X / / ( r@s@( / / X n.q.0 O.K c.)                                                         ",
"                                                                ) J c.R @ x '.|@'.~ t@@ R c.J )                                                                 "};
