<?xml version="1.0" encoding="UTF-8" standalone="no"?>
<svg
   xmlns:dc="http://purl.org/dc/elements/1.1/"
   xmlns:cc="http://creativecommons.org/ns#"
   xmlns:rdf="http://www.w3.org/1999/02/22-rdf-syntax-ns#"
   xmlns:svg="http://www.w3.org/2000/svg"
   xmlns="http://www.w3.org/2000/svg"
   xmlns:sodipodi="http://sodipodi.sourceforge.net/DTD/sodipodi-0.dtd"
   xmlns:inkscape="http://www.inkscape.org/namespaces/inkscape"
   viewBox="0 0 16 16"
   version="1.1"
   id="svg6"
   sodipodi:docname="chart-style-parametric.svg"
   inkscape:export-filename="/mnt/partizione/icone/originali/replace/i119.png"
   inkscape:export-xdpi="96"
   inkscape:export-ydpi="96"
   inkscape:version="0.92+devel unknown">
  <metadata
     id="metadata10">
    <rdf:RDF>
      <cc:Work
         rdf:about="">
        <dc:format>image/svg+xml</dc:format>
        <dc:type
           rdf:resource="http://purl.org/dc/dcmitype/StillImage" />
        <dc:title></dc:title>
      </cc:Work>
    </rdf:RDF>
  </metadata>
  <sodipodi:namedview
     pagecolor="#ffffff"
     bordercolor="#666666"
     inkscape:document-rotation="0"
     borderopacity="1"
     objecttolerance="10"
     gridtolerance="10"
     guidetolerance="10"
     inkscape:pageopacity="0"
     inkscape:pageshadow="2"
     inkscape:window-width="1920"
     inkscape:window-height="1016"
     id="namedview8"
     showgrid="true"
     inkscape:snap-bbox="true"
     inkscape:bbox-nodes="true"
     inkscape:snap-nodes="false"
     inkscape:zoom="36.195028"
     inkscape:cx="8"
     inkscape:cy="8"
     inkscape:window-x="0"
     inkscape:window-y="0"
     inkscape:window-maximized="1"
     inkscape:current-layer="svg6">
    <inkscape:grid
       type="xygrid"
       id="grid4269" />
  </sodipodi:namedview>
  <defs
     id="defs3051">
    <style
       type="text/css"
       id="current-color-scheme">
      .ColorScheme-Text {
        color:#4d4d4d;
      }
      </style>
  </defs>
  <path
     style="fill:currentColor;fill-opacity:1;stroke:none"
     d="m 8.1601562,1 -7.15625,7.125 V 11 c 1.075,0.019 2.84375,0 2.84375,0 L 11.003906,3.84375 Z m -0.71875,2.15625 1.40625,1.40625 -2.8457031,2.875 -1.4375,-1.4394531 z m -3.59375,3.5625 1.4375,1.40625 -0.71875,0.71875 -1.40625,-1.40625 z"
     class="ColorScheme-Text"
     id="path4"
     inkscape:connector-curvature="0"
     sodipodi:nodetypes="cccccccccccccccc" />
  <path
     inkscape:connector-curvature="0"
     style="fill:currentColor;fill-opacity:1;stroke:none;stroke-width:1"
     d="m 7.9965903,8 v 1.7477212 h -0.578776 v 0.0057 h 0.578776 V 15 H 14.99659 V 14.416666 H 8.5799236 V 9.7534179 H 11.186695 L 9.4366943,11.503418 H 8.5844809 v 0.583333 h 1.0937499 l 2.4051102,-2.4051105 1.238444,1.2384435 0.0035,-0.0023 0.0023,0.0023 1.649738,-1.649739 c 0.0018,0.00292 -0.412451,-0.4124349 -0.412451,-0.4124349 L 13.325223,10.097493 12.0845,8.8579101 l -0.0012,0.00114 -0.0011,-0.00114 -0.890951,0.8898111 H 8.5799236 V 8 Z m 3.2664377,4.083333 -1.166666,1.166666 H 8.5833416 v 0.583334 h 1.7499994 v -0.0046 l 0.0046,0.0046 1.166667,-1.166667 h 0.928545 l 1.166668,1.166667 H 15 v -0.583334 h -1.158691 l -1.166666,-1.166666 h -0.824868 z"
     class="ColorScheme-Text"
     id="path4-6" />
</svg>
