<?xml version="1.0" encoding="UTF-8" standalone="no"?>
<svg
   xmlns:dc="http://purl.org/dc/elements/1.1/"
   xmlns:cc="http://creativecommons.org/ns#"
   xmlns:rdf="http://www.w3.org/1999/02/22-rdf-syntax-ns#"
   xmlns:svg="http://www.w3.org/2000/svg"
   xmlns="http://www.w3.org/2000/svg"
   xmlns:sodipodi="http://sodipodi.sourceforge.net/DTD/sodipodi-0.dtd"
   xmlns:inkscape="http://www.inkscape.org/namespaces/inkscape"
   viewBox="0 0 16 16"
   version="1.1"
   id="svg6"
   sodipodi:docname="show-dso-less.svg"
   width="16"
   height="16"
   inkscape:export-filename="/mnt/partizione/icone/originali/replace/i55.png"
   inkscape:export-xdpi="96"
   inkscape:export-ydpi="96"
   inkscape:version="0.92+devel unknown">
  <metadata
     id="metadata10">
    <rdf:RDF>
      <cc:Work
         rdf:about="">
        <dc:format>image/svg+xml</dc:format>
        <dc:type
           rdf:resource="http://purl.org/dc/dcmitype/StillImage" />
        <dc:title></dc:title>
      </cc:Work>
    </rdf:RDF>
  </metadata>
  <sodipodi:namedview
     pagecolor="#ffffff"
     bordercolor="#666666"
     inkscape:document-rotation="0"
     borderopacity="1"
     objecttolerance="10"
     gridtolerance="10"
     guidetolerance="10"
     inkscape:pageopacity="0"
     inkscape:pageshadow="2"
     inkscape:window-width="1920"
     inkscape:window-height="1016"
     id="namedview8"
     showgrid="true"
     inkscape:snap-nodes="false"
     inkscape:snap-others="false"
     inkscape:snap-bbox="true"
     inkscape:bbox-nodes="true"
     inkscape:zoom="38.545455"
     inkscape:cx="9.1580189"
     inkscape:cy="6.5972597"
     inkscape:window-x="0"
     inkscape:window-y="0"
     inkscape:window-maximized="1"
     inkscape:current-layer="svg6">
    <inkscape:grid
       type="xygrid"
       id="grid4269" />
  </sodipodi:namedview>
  <defs
     id="defs3051">
    <style
       type="text/css"
       id="current-color-scheme">
      .ColorScheme-Text {
        color:#4d4d4d;
      }
      </style>
  </defs>
  <path
     style="fill:currentColor;fill-opacity:1;stroke:none;stroke-width:0.87369215"
     d="M 9.0790356,5.8049968 C 8.1103924,4.7952816 6.6063763,4.7259982 5.7194222,5.6505605 4.8324413,6.5751509 4.7065685,7.8210753 5.6752119,8.8307906 4.8680045,7.9893564 5.272398,6.725603 6.0115731,5.9550989 6.7507354,5.1845816 8.004469,5.2422585 8.8116763,6.0836927 9.1765051,6.463991 9.379126,6.9395827 9.4328041,7.4175142 A 1.8132965,1.5141255 51.72713 0 0 9.0548629,6.8749099 1.8132965,1.5141255 51.72713 0 0 6.7504745,6.66522 l -0.00263,0.00274 a 1.8132965,1.5141255 51.72713 0 0 -0.080034,0.093632 C 5.8491274,7.7157768 5.9223874,9.230527 6.8598357,10.207725 c 0.9686429,1.009715 2.4898179,1.061113 3.3973583,0.11509 0.907567,-0.9460491 1.042735,-2.2016623 0.07409,-3.2113781 0.807207,0.841434 0.390582,2.1179395 -0.3657179,2.9062941 C 9.209281,10.806099 7.9417408,10.762812 7.1345344,9.9213784 6.715479,9.4845542 6.5048143,8.9184837 6.5030437,8.3647266 A 1.8132965,1.5141255 51.72713 0 0 6.9521594,9.0667712 1.8132965,1.5141255 51.72713 0 0 9.2252329,9.305023 l 0.00197,0.00206 c 0.00509,-0.00532 0.00917,-0.011507 0.014237,-0.016856 A 1.8132965,1.5141255 51.72713 0 0 9.2560359,9.277025 1.8132965,1.5141255 51.72713 0 0 9.3556729,9.1568364 C 10.102784,8.2199582 9.9973524,6.7622514 9.0790356,5.8049968 Z"
     class="ColorScheme-Text"
     id="path4"
     inkscape:connector-curvature="0" />
</svg>
