<?xml version="1.0" encoding="UTF-8" standalone="no"?>
<!-- Created with Inkscape (http://www.inkscape.org/) -->

<svg
   width="48"
   height="48"
   viewBox="0 0 12.7 12.7"
   version="1.1"
   id="svg138"
   inkscape:export-filename="/home/mattia/bitmap.png"
   inkscape:export-xdpi="160"
   inkscape:export-ydpi="160"
   inkscape:version="1.1 (c68e22c387, 2021-05-23)"
   sodipodi:docname="skychart_new.svg"
   xmlns:inkscape="http://www.inkscape.org/namespaces/inkscape"
   xmlns:sodipodi="http://sodipodi.sourceforge.net/DTD/sodipodi-0.dtd"
   xmlns:xlink="http://www.w3.org/1999/xlink"
   xmlns="http://www.w3.org/2000/svg"
   xmlns:svg="http://www.w3.org/2000/svg">
  <sodipodi:namedview
     id="namedview140"
     pagecolor="#ffffff"
     bordercolor="#666666"
     borderopacity="1.0"
     inkscape:pageshadow="2"
     inkscape:pageopacity="0.0"
     inkscape:pagecheckerboard="0"
     inkscape:document-units="mm"
     showgrid="true"
     units="px"
     width="64px"
     inkscape:snap-object-midpoints="true"
     inkscape:snap-center="false"
     inkscape:snap-smooth-nodes="false"
     inkscape:snap-intersection-paths="false"
     inkscape:object-paths="false"
     inkscape:snap-others="true"
     inkscape:object-nodes="false"
     inkscape:snap-bbox="false"
     inkscape:bbox-nodes="true"
     inkscape:snap-nodes="true"
     inkscape:snap-global="true"
     inkscape:zoom="6.3703311"
     inkscape:cx="25.116434"
     inkscape:cy="21.505947"
     inkscape:window-width="2560"
     inkscape:window-height="1367"
     inkscape:window-x="0"
     inkscape:window-y="0"
     inkscape:window-maximized="1"
     inkscape:current-layer="layer1">
    <inkscape:grid
       type="xygrid"
       id="grid188" />
  </sodipodi:namedview>
  <defs
     id="defs135">
    <linearGradient
       inkscape:collect="always"
       id="linearGradient19233">
      <stop
         style="stop-color:#333333;stop-opacity:0;"
         offset="0"
         id="stop19231" />
      <stop
         style="stop-color:#333333;stop-opacity:1;"
         offset="1"
         id="stop19229" />
    </linearGradient>
    <linearGradient
       inkscape:collect="always"
       id="linearGradient10280">
      <stop
         style="stop-color:#ffffff;stop-opacity:1;"
         offset="0"
         id="stop10276" />
      <stop
         style="stop-color:#ffffff;stop-opacity:0;"
         offset="1"
         id="stop10278" />
    </linearGradient>
    <filter
       inkscape:collect="always"
       style="color-interpolation-filters:sRGB"
       id="filter7829"
       x="-0.14821428"
       y="-0.074107143"
       width="1.2964286"
       height="1.1482143">
      <feGaussianBlur
         inkscape:collect="always"
         stdDeviation="0.17363281"
         id="feGaussianBlur7831" />
    </filter>
    <filter
       inkscape:collect="always"
       style="color-interpolation-filters:sRGB"
       id="filter9786"
       x="-0.043199998"
       y="-0.053999999"
       width="1.0864"
       height="1.108">
      <feGaussianBlur
         inkscape:collect="always"
         stdDeviation="0.19049999"
         id="feGaussianBlur9788" />
    </filter>
    <linearGradient
       inkscape:collect="always"
       xlink:href="#linearGradient10280"
       id="linearGradient10282"
       x1="4.4979167"
       y1="7.4083333"
       x2="15.345834"
       y2="-1.8520833"
       gradientUnits="userSpaceOnUse" />
    <filter
       inkscape:collect="always"
       style="color-interpolation-filters:sRGB"
       id="filter7829-7"
       x="-0.12968746"
       y="-0.071551703"
       width="1.2593749"
       height="1.1431034">
      <feGaussianBlur
         inkscape:collect="always"
         stdDeviation="0.17363281"
         id="feGaussianBlur7831-5" />
    </filter>
    <filter
       inkscape:collect="always"
       style="color-interpolation-filters:sRGB"
       id="filter16710"
       x="-0.768"
       y="-0.768"
       width="2.536"
       height="2.536">
      <feGaussianBlur
         inkscape:collect="always"
         stdDeviation="0.16933332"
         id="feGaussianBlur16712" />
    </filter>
    <filter
       inkscape:collect="always"
       style="color-interpolation-filters:sRGB"
       id="filter16710-6"
       x="-0.768"
       y="-0.768"
       width="2.536"
       height="2.536">
      <feGaussianBlur
         inkscape:collect="always"
         stdDeviation="0.16933332"
         id="feGaussianBlur16712-2" />
    </filter>
    <filter
       inkscape:collect="always"
       style="color-interpolation-filters:sRGB"
       id="filter16710-1"
       x="-0.768"
       y="-0.768"
       width="2.536"
       height="2.536">
      <feGaussianBlur
         inkscape:collect="always"
         stdDeviation="0.16933332"
         id="feGaussianBlur16712-27" />
    </filter>
    <filter
       inkscape:collect="always"
       style="color-interpolation-filters:sRGB"
       id="filter16710-6-9"
       x="-0.768"
       y="-0.768"
       width="2.536"
       height="2.536">
      <feGaussianBlur
         inkscape:collect="always"
         stdDeviation="0.16933332"
         id="feGaussianBlur16712-2-3" />
    </filter>
    <filter
       inkscape:collect="always"
       style="color-interpolation-filters:sRGB"
       id="filter16710-6-9-7"
       x="-0.768"
       y="-0.768"
       width="2.536"
       height="2.536">
      <feGaussianBlur
         inkscape:collect="always"
         stdDeviation="0.16933332"
         id="feGaussianBlur16712-2-3-9" />
    </filter>
    <filter
       inkscape:collect="always"
       style="color-interpolation-filters:sRGB"
       id="filter16710-6-9-0"
       x="-0.768"
       y="-0.768"
       width="2.536"
       height="2.536">
      <feGaussianBlur
         inkscape:collect="always"
         stdDeviation="0.16933332"
         id="feGaussianBlur16712-2-3-2" />
    </filter>
    <radialGradient
       inkscape:collect="always"
       xlink:href="#linearGradient19233"
       id="radialGradient19235"
       cx="1.3229165"
       cy="11.90625"
       fx="1.3229165"
       fy="11.90625"
       r="6.3499999"
       gradientUnits="userSpaceOnUse"
       gradientTransform="matrix(2.2916667,-4.6259842e-8,1.0269101e-7,2.0833334,-1.7087684,-12.898438)" />
  </defs>
  <g
     inkscape:label="Livello 1"
     inkscape:groupmode="layer"
     id="layer1">
    <rect
       style="fill:url(#radialGradient19235);fill-rule:nonzero;stroke-width:0.264583;fill-opacity:1;opacity:1;stroke:none"
       id="rect190"
       width="12.7"
       height="12.7"
       x="0"
       y="0" />
    <path
       style="fill:#000000;stroke:#000000;stroke-width:0.00070004;stroke-linecap:butt;stroke-linejoin:miter;stroke-opacity:1;stroke-miterlimit:4;stroke-dasharray:none;fill-opacity:1;vector-effect:non-scaling-stroke;-inkscape-stroke:hairline"
       d="m 12.700014,11.377124 c 0.02161,0.02155 0.0462,0.04047 0.06483,0.06466 0.003,0.004 -0.01004,0 -0.01504,0 -0.03007,0 -0.06014,0 -0.09021,0 -0.0074,0 -0.134841,0.04462 -0.135317,0.0451 -0.0035,0.0035 0.0035,0.01153 0,0.01503 -0.0071,0.0071 -0.02297,-0.0071 -0.03007,0 -0.0075,0.0075 -0.0075,0.02257 -0.01504,0.03007 -0.01253,0.01253 -0.04761,0.0025 -0.06014,0.01503 -0.0035,0.0035 0.0045,0.01284 0,0.01504 -0.009,0.0045 -0.02057,-0.0032 -0.03007,0 -0.0363,0.0121 -0.08548,0.04274 -0.120281,0.06014 -0.0497,0.02485 -0.107201,0.143852 -0.120281,0.150352 -0.009,0.0045 -0.02107,-0.0045 -0.03007,0 -0.0038,0.0019 -0.01194,0.02387 -0.01504,0.03007 -0.01201,0.02397 -0.04889,0.01882 -0.06014,0.03007 -0.0035,0.0035 0.0035,0.01154 0,0.01504 -0.01064,0.01063 -0.03085,-0.0048 -0.04511,0 -0.04202,0.01401 -0.07907,0.04366 -0.120281,0.06014 -0.04298,0.0172 -0.07775,0.03093 -0.120282,0.04511 -0.06976,0.02325 -0.345708,0 -0.436018,0 -0.155356,0 -0.318256,0.0069 -0.466089,-0.03007 -0.02432,-0.0061 -0.05124,0.0091 -0.07518,0 -0.01753,-0.0044 -0.02832,-0.02337 -0.0451,-0.03007 -0.01233,-0.0049 -0.06083,-0.0078 -0.07518,-0.01504 -0.03278,-0.01639 -0.05622,-0.07125 -0.07518,-0.09021 -0.0075,-0.0075 -0.0376,0.0075 -0.0451,0 -0.0022,-0.0022 -0.02737,-0.04371 -0.03007,-0.04511 -0.009,-0.0045 -0.02177,0.0056 -0.03007,0 -0.01584,-0.01055 -0.02217,-0.0372 -0.03007,-0.0451 -0.0092,-0.0092 -0.112936,-0.04895 -0.135316,-0.06014 -0.01345,-0.0067 -0.03085,0.0048 -0.04511,0 -0.147438,-0.04915 -0.3717123,0.01983 -0.5111943,-0.01504 -0.070167,-0.01754 -0.1242434,-0.06212 -0.1804214,-0.09021 -0.062573,-0.03127 0.016072,0.001 -0.015036,-0.03007 -0.010761,-0.01073 -0.054165,-0.008 -0.075176,-0.01503 -0.00528,-0.0018 -0.1340761,-0.07398 -0.1353161,-0.07518 -0.00344,-0.0034 -0.011696,-0.04291 -0.015036,-0.04511 -0.08009,-0.05339 -0.4503152,-0.0143 -0.4660892,-0.03007 -0.00354,-0.0035 0.00354,-0.01154 0,-0.01504 -0.016522,-0.01654 -0.307096,-0.0085 -0.345808,-0.01504 -0.052662,-0.0088 -0.054463,-0.03007 -0.105246,-0.03007 -0.01346,0 -0.2525052,-0.06608 -0.2706322,-0.07518 -0.068809,-0.03437 0.063801,0.0062 -0.045105,-0.03007 -0.01982,-0.0066 -0.058219,-0.0065 -0.075176,-0.01504 -0.010026,-0.005 0.017718,-0.03567 -0.015036,-0.03007 -0.026132,-0.01307 -0.066383,-0.01816 -0.090211,-0.03007 -0.00448,-0.0022 0.00354,-0.01154 0,-0.01504 -0.00348,-0.0035 -0.05514,-0.02837 -0.06014,-0.03007 -0.039384,-0.01313 -0.077817,-0.01946 -0.1202812,-0.03007 -0.026978,-0.0068 -0.060035,-0.03505 -0.090211,-0.04511 -0.02222,-0.0074 -0.052544,0.0057 -0.075176,0 -0.048737,-0.01219 -0.063493,-0.04846 -0.090211,-0.07518 -0.00277,-0.0028 -0.042335,-0.01224 -0.045105,-0.01504 -0.00354,-0.0036 0.00354,-0.01154 0,-0.01504 -0.014942,-0.01494 -0.1132841,0 -0.1353161,0 -9.464e-4,0 -0.1316261,-0.01133 -0.1353161,-0.01503 -0.00354,-0.0036 0.00448,-0.01284 0,-0.01504 -0.052576,-0.02628 -0.4354886,0.01504 -0.5111946,0.01504 -0.030742,0 -0.208163,-0.0162 -0.240562,0 -0.062573,0.03127 0.016072,-0.001 -0.015036,0.03007 -0.012001,0.012 -0.059402,-0.0079 -0.075176,0 -0.012679,0.0063 -0.017391,0.02377 -0.03007,0.03007 -0.013447,0.0067 -0.031146,-0.0056 -0.045105,0 -0.016777,0.0067 -0.028942,0.02197 -0.045105,0.03007 -0.019612,0.0098 -0.1732515,0.0072 -0.1804215,0 -0.00354,-0.0036 0.00354,-0.01154 0,-0.01504 -0.024994,-0.025 -0.1626457,-0.04237 -0.1954567,-0.07518 -0.00752,-0.0075 -0.00752,-0.02257 -0.015036,-0.03007 -0.010631,-0.01063 -0.031656,0.0067 -0.045105,0 -0.00293,-0.0015 -0.011774,-0.02677 -0.015034,-0.03007 -0.00709,-0.0071 -0.02111,0.0045 -0.03007,0 -0.02072,-0.01036 -0.02022,-0.03531 -0.03007,-0.04511 -0.00709,-0.0071 -0.02111,0.0045 -0.03007,0 -0.012377,-0.0062 -0.1012859,-0.05614 -0.1052459,-0.06014 -0.00354,-0.0036 0.00354,-0.01154 0,-0.01504 -0.00709,-0.0071 -0.02111,0.0045 -0.03007,0 -0.020312,-0.01016 -0.040633,-0.02027 -0.060141,-0.03007 -0.062572,-0.03127 0.016074,0.001 -0.015034,-0.03007 -0.00924,-0.0092 -0.035038,-0.0099 -0.045105,-0.03007 -0.00225,-0.0045 0.00448,-0.01284 0,-0.01504 -0.00896,-0.0045 -0.02111,0.0045 -0.03007,0 -0.00896,-0.0045 0.00448,-0.02107 0,-0.03007 -0.013016,-0.02603 -0.062161,-0.03411 -0.075176,-0.06014 -0.012028,-0.02406 0.012028,-0.06615 0,-0.09021 -0.00534,-0.01067 -0.1006072,-0.08041 -0.1202812,-0.09021 -0.03286,-0.01643 -0.3421732,-0.0067 -0.3758782,0 -0.010988,0.0022 -0.019082,0.01284 -0.03007,0.01504 -0.089919,0.01794 -0.1873442,-0.01272 -0.2706322,0.01504 -0.1037424,0.03458 -0.2420657,-0.03458 -0.3458081,0 -0.057956,0.01932 -0.1317687,0.01733 -0.1954567,0.03007 -0.049293,0.0099 -0.1436087,0.07933 -0.1954567,0.105246 -0.00896,0.0045 -0.02111,-0.0045 -0.03007,0 -0.032557,0.01628 -0.059072,0.04457 -0.090211,0.06014 -0.00896,0.0045 -0.02298,-0.0071 -0.03007,0 -0.011003,0.011 -0.027288,0.04232 -0.045105,0.06014 -0.019878,0.01988 -0.055014,0.01999 -0.075175,0.03007 -0.00685,0.0034 -0.054271,0.07228 -0.060141,0.07518 -0.00896,0.0045 -0.0211,-0.0045 -0.03007,0 -0.00448,0.0022 0.00354,0.01154 0,0.01504 -0.027939,0.02794 -0.1286534,0.08355 -0.1503514,0.105246 -0.00354,0.0036 0.00354,0.01154 0,0.01504 -0.00501,0.005 -0.040095,0.01004 -0.045105,0.01504 -0.00751,0.0075 -0.00751,0.02257 -0.015034,0.03007 -0.018705,0.01871 -0.087791,0.04389 -0.1202811,0.06014 -0.00896,0.0045 -0.02298,-0.0071 -0.03007,0 -0.00354,0.0036 0.00354,0.01154 0,0.01504 -0.019013,0.01902 -0.07264,0.02754 -0.090211,0.04511 -0.00354,0.0035 0.00354,0.01153 0,0.01503 -0.00501,0.005 -0.040096,0.01004 -0.045106,0.01504 -0.00354,0.0035 0.00448,0.01284 0,0.01504 -0.00896,0.0045 -0.02111,-0.0045 -0.03007,0 -0.00162,8.1e-4 -0.018143,0.02407 -0.03007,0.03007 -0.016839,0.0084 -0.044245,0.0071 -0.060141,0.01504 -0.00293,0.0015 -0.011776,0.02677 -0.015036,0.03007 -0.010024,0.01002 -0.050119,-0.01002 -0.060141,0 -0.00354,0.0035 0.00354,0.01154 0,0.01504 -0.00965,0.0096 -0.2344173,0.01504 -0.2706323,0.01504 -0.013321,0 -0.05081,0.0047 -0.06014,0 -0.00448,-0.0023 0.00354,-0.01154 0,-0.01504 -0.019912,-0.01991 -0.1488686,0 -0.1804216,0 -0.083725,0 -0.1633421,-0.02153 -0.2405621,-0.06014 -0.00897,-0.0045 -0.02298,0.0071 -0.03007,0 -0.00354,-0.0035 0.00354,-0.01153 0,-0.01503 -0.00709,-0.0071 -0.02298,0.0071 -0.03007,0 -0.00354,-0.0036 0.00354,-0.01154 0,-0.01504 -0.00753,-0.0075 -0.05028,-0.0051 -0.06014,-0.01504 -0.042734,-0.04273 -0.079264,-0.144882 -0.1503514,-0.180422 -0.016886,-0.0084 -0.078721,-0.0036 -0.090211,-0.01504 -0.00354,-0.0036 0.00354,-0.01154 0,-0.01504 -0.00709,-0.0071 -0.02298,0.0071 -0.03007,0 -0.015785,-0.01578 -0.00528,-0.01679 -0.045105,-0.03007 -0.00951,-0.0032 -0.02298,0.0071 -0.03007,0 -0.00354,-0.0036 0.00354,-0.01154 0,-0.01504 -0.00752,-0.0075 -0.037585,0.0075 -0.045105,0 -0.00354,-0.0036 0.00354,-0.01154 0,-0.01504 -0.00709,-0.0071 -0.02298,0.0071 -0.03007,0 -0.010025,-0.01002 -0.00501,-0.03508 -0.015035,-0.0451 -0.00709,-0.0071 -0.02298,0.0071 -0.03007,0 -0.00751,-0.0075 -0.00751,-0.02257 -0.015035,-0.03007 -0.00709,-0.0071 -0.02298,0.0071 -0.03007,0 -0.00751,-0.0075 -0.00751,-0.02257 -0.015035,-0.03007 -0.00709,-0.0071 -0.02298,0.0071 -0.03007,0 -0.00354,-0.0035 0.00354,-0.01154 0,-0.01504 -0.011429,-0.01144 -0.059403,-0.0071 -0.075176,-0.01504 -0.033989,-0.01699 -0.064579,-0.04658 -0.1052459,-0.06014 -0.0085,-0.0028 -0.039065,0.006 -0.045105,0 -0.00354,-0.0035 0.00354,-0.01154 0,-0.01504 -0.00954,-0.0095 -0.047622,0.0063 -0.06014,0 -0.0470938,-0.02354 -0.10302253,-0.02144 -0.15035133,-0.0451 -0.0400937,-0.02005 -0.1102576,0.02005 -0.1503513,0 -0.0200794,-0.01004 -0.0711247,-0.01094 -0.0751757,-0.01504 -0.003544,-0.0035 0.003544,-0.01154 0,-0.01504 -0.0102013,-0.0102 -0.0463806,0.0069 -0.0601405,0 -0.108712,-0.0544 -0.24458916,-0.0451 -0.37587827,-0.0451 C 0.09076562,10.419346 0.04967299,10.444754 0,10.31875 V 12.7 h 12.7 v -1.322917"
       id="path6733" />
    <path
       style="opacity:0.9;fill:none;stroke:#ffffff;stroke-width:0.26458333;stroke-linecap:round;stroke-linejoin:miter;stroke-miterlimit:4;stroke-dasharray:none;stroke-dashoffset:0;stroke-opacity:1;filter:url(#filter7829)"
       d="M 4.7625,7.14375 7.2272805,2.1315633 8.4666667,-0.26458333"
       id="path7365"
       sodipodi:nodetypes="ccc" />
    <path
       style="opacity:0.9;fill:none;stroke:#ffffff;stroke-width:0.264583;stroke-linecap:round;stroke-linejoin:miter;stroke-miterlimit:4;stroke-dasharray:none;stroke-dashoffset:0;stroke-opacity:1;filter:url(#filter7829-7)"
       d="M 5.0270833,6.8791667 8.0210305,1.6023966 9.2604167,-0.79374997"
       id="path7365-3"
       sodipodi:nodetypes="ccc" />
    <path
       style="opacity:1;mix-blend-mode:normal;fill:url(#linearGradient10282);fill-opacity:1;stroke:none;stroke-width:0.264583px;stroke-linecap:butt;stroke-linejoin:miter;stroke-opacity:1;filter:url(#filter9786)"
       d="M 15.08125,2.9104167 11.267897,4.0653411 8.2020833,5.2916667 4.4979166,7.4083332 6.6145833,4.4979167 9.525,2.1166667 l 4.233333,-3.175 z"
       id="path9146"
       sodipodi:nodetypes="cccccccc" />
    <circle
       style="opacity:1;mix-blend-mode:normal;fill:#ffffff;fill-opacity:1;fill-rule:nonzero;stroke:none;stroke-width:0.264583;stroke-linecap:round;stroke-miterlimit:4;stroke-dasharray:none;stroke-dashoffset:0;stroke-opacity:1;filter:url(#filter16710)"
       id="path16656"
       cx="3.6443708"
       cy="1.8379281"
       r="0.26458332"
       transform="matrix(0.78911999,0,0,0.79932855,-0.23001251,0.38297496)" />
    <circle
       style="mix-blend-mode:normal;fill:#ffffff;fill-opacity:1;fill-rule:nonzero;stroke:none;stroke-width:0.264583;stroke-linecap:round;stroke-miterlimit:4;stroke-dasharray:none;stroke-dashoffset:0;stroke-opacity:1;filter:url(#filter16710-6)"
       id="path16656-9"
       cx="3.6443708"
       cy="1.8379281"
       r="0.26458332"
       transform="matrix(0.78911999,0,0,0.79932855,-1.0237625,5.145475)" />
    <circle
       style="mix-blend-mode:normal;fill:#ffe67e;fill-opacity:1;fill-rule:nonzero;stroke:none;stroke-width:0.264583;stroke-linecap:round;stroke-miterlimit:4;stroke-dasharray:none;stroke-dashoffset:0;stroke-opacity:1;filter:url(#filter16710-6-9)"
       id="path16656-9-6"
       cx="3.6443708"
       cy="1.8379281"
       r="0.26458332"
       transform="matrix(0.78911999,0,0,0.79932855,0.82832082,2.2350583)" />
    <circle
       style="mix-blend-mode:normal;fill:#ffe67e;fill-opacity:1;fill-rule:nonzero;stroke:none;stroke-width:0.264583;stroke-linecap:round;stroke-miterlimit:4;stroke-dasharray:none;stroke-dashoffset:0;stroke-opacity:1;filter:url(#filter16710-6-9-7)"
       id="path16656-9-6-2"
       cx="3.6443708"
       cy="1.8379281"
       r="0.26458332"
       transform="matrix(0.78911999,0,0,0.79932855,5.8554042,5.939225)" />
    <circle
       style="mix-blend-mode:normal;fill:#ffffff;fill-opacity:1;fill-rule:nonzero;stroke:none;stroke-width:0.264583;stroke-linecap:round;stroke-miterlimit:4;stroke-dasharray:none;stroke-dashoffset:0;stroke-opacity:1;filter:url(#filter16710-1)"
       id="path16656-0"
       cx="3.6443708"
       cy="1.8379281"
       r="0.26458332"
       transform="matrix(0.78911999,0,0,0.79932855,8.5012375,8.320475)" />
    <circle
       style="mix-blend-mode:normal;fill:#ffe67e;fill-opacity:1;fill-rule:nonzero;stroke:none;stroke-width:0.264583;stroke-linecap:round;stroke-miterlimit:4;stroke-dasharray:none;stroke-dashoffset:0;stroke-opacity:1;filter:url(#filter16710-6-9-0)"
       id="path16656-9-6-3"
       cx="3.6443708"
       cy="1.8379281"
       r="0.26458332"
       transform="matrix(0.78911999,0,0,0.79932855,9.0304042,4.0871416)" />
  </g>
</svg>
