<?xml version="1.0" encoding="UTF-8" standalone="no"?>
<svg
   viewBox="0 0 22 22"
   version="1.1"
   id="svg6"
   sodipodi:docname="lock-magnitude.svg"
   inkscape:version="1.1.1 (3bf5ae0d25, 2021-09-20)"
   xmlns:inkscape="http://www.inkscape.org/namespaces/inkscape"
   xmlns:sodipodi="http://sodipodi.sourceforge.net/DTD/sodipodi-0.dtd"
   xmlns="http://www.w3.org/2000/svg"
   xmlns:svg="http://www.w3.org/2000/svg">
  <sodipodi:namedview
     id="namedview8"
     pagecolor="#ffffff"
     bordercolor="#666666"
     borderopacity="1.0"
     inkscape:pageshadow="2"
     inkscape:pageopacity="0.0"
     inkscape:pagecheckerboard="0"
     showgrid="false"
     inkscape:zoom="28.636364"
     inkscape:cx="10.98254"
     inkscape:cy="10.98254"
     inkscape:window-width="1876"
     inkscape:window-height="1171"
     inkscape:window-x="44"
     inkscape:window-y="0"
     inkscape:window-maximized="1"
     inkscape:current-layer="svg6" />
  <defs
     id="defs3051">
    <style
       type="text/css"
       id="current-color-scheme">
      .ColorScheme-Text {
        color:#eff0f1;
      }
      </style>
  </defs>
  <path
     style="fill:currentColor;fill-opacity:1;stroke:none"
     transform="translate(-1-1)"
     d="m12 4c-2.027598 0-3.87132.756694-5.28125 2-.126239.11132-.25603.22478-.375.34375l-.34375.375c-1.243306 1.40993-2 3.253652-2 5.28125 0 4.41828 3.58172 8 8 8 2.027598 0 3.87132-.756694 5.28125-2l.375-.34375c.11897-.11897.23243-.248761.34375-.375 1.243306-1.40993 2-3.253652 2-5.28125 0-4.41828-3.58172-8-8-8m0 1c3.86599 0 7 3.13401 7 7 0 1.75366-.653215 3.334268-1.71875 4.5625l-9.84375-9.84375c1.228231-1.065535 2.80884-1.71875 4.5625-1.71875m-5.28125 2.4375l9.84375 9.84375c-1.228232 1.065535-2.80884 1.71875-4.5625 1.71875-3.86599 0-7-3.13401-7-7 0-1.75366.653215-3.334269 1.71875-4.5625"
     class="ColorScheme-Text"
     id="path4" />
  <path
     sodipodi:type="star"
     style="fill:#f2f2f2;stroke:none;stroke-width:0.159001;stroke-linecap:round;stroke-linejoin:round;paint-order:stroke fill markers"
     id="path4269-6"
     sodipodi:sides="4"
     sodipodi:cx="0.79311746"
     sodipodi:cy="293.55978"
     sodipodi:r1="0.52981567"
     sodipodi:r2="0.22735855"
     sodipodi:arg1="0.0078822309"
     sodipodi:arg2="0.76850291"
     inkscape:flatsided="false"
     inkscape:rounded="0"
     inkscape:randomized="0"
     transform="matrix(9.4374578,0,0,9.4375561,3.4822045,-2759.4502)"
     d="m 1.3229167,293.56396 -0.36633934,0.15385 -0.16763598,0.37177 -0.15385168,-0.36634 -0.37177145,-0.16763 0.36633932,-0.15385 0.16763598,-0.37178 0.15385167,0.36634 z" />
</svg>
